<ttFont>
    <TTGlyph name="A" xMin="5" yMin="0" xMax="657" yMax="665">
      <contour>
        <pt x="68" y="112" on="1"/>
        <pt x="229" y="578" on="1"/>
        <pt x="166" y="584" on="1"/>
        <pt x="166" y="665" on="1"/>
        <pt x="395" y="665" on="1"/>
        <pt x="599" y="88" on="1"/>
        <pt x="600" y="88" on="1"/>
        <pt x="657" y="85" on="1"/>
        <pt x="657" y="0" on="1"/>
        <pt x="399" y="0" on="1"/>
        <pt x="399" y="81" on="1"/>
        <pt x="437" y="84" on="1"/>
        <pt x="454" y="86" on="0"/>
        <pt x="466" y="98" on="0"/>
        <pt x="461" y="114" on="1"/>
        <pt x="440" y="176" on="1"/>
        <pt x="206" y="176" on="1"/>
        <pt x="176" y="88" on="1"/>
        <pt x="236" y="85" on="1"/>
        <pt x="236" y="0" on="1"/>
        <pt x="5" y="0" on="1"/>
        <pt x="5" y="81" on="1"/>
        <pt x="38" y="84" on="1"/>
        <pt x="59" y="86" on="0"/>
      </contour>
      <contour>
        <pt x="323" y="553" on="1"/>
        <pt x="230" y="268" on="1"/>
        <pt x="416" y="268" on="1"/>
        <pt x="326" y="553" on="1"/>
      </contour>
    </TTGlyph>
    <TTGlyph name="AE" xMin="0" yMin="0" xMax="814" yMax="665">
      <contour>
        <pt x="63" y="112" on="1"/>
        <pt x="224" y="578" on="1"/>
        <pt x="161" y="584" on="1"/>
        <pt x="161" y="665" on="1"/>
        <pt x="802" y="665" on="1"/>
        <pt x="802" y="499" on="1"/>
        <pt x="700" y="492" on="1"/>
        <pt x="700" y="532" on="1"/>
        <pt x="700" y="549" on="0"/>
        <pt x="690" y="563" on="0"/>
        <pt x="671" y="563" on="1"/>
        <pt x="446" y="563" on="1"/>
        <pt x="505" y="392" on="1"/>
        <pt x="754" y="392" on="1"/>
        <pt x="754" y="290" on="1"/>
        <pt x="523" y="290" on="1"/>
        <pt x="589" y="103" on="1"/>
        <pt x="684" y="103" on="1"/>
        <pt x="702" y="103" on="0"/>
        <pt x="712" y="118" on="0"/>
        <pt x="712" y="135" on="1"/>
        <pt x="712" y="185" on="1"/>
        <pt x="814" y="178" on="1"/>
        <pt x="814" y="0" on="1"/>
        <pt x="394" y="0" on="1"/>
        <pt x="394" y="81" on="1"/>
        <pt x="432" y="84" on="1"/>
        <pt x="449" y="86" on="0"/>
        <pt x="461" y="98" on="0"/>
        <pt x="456" y="114" on="1"/>
        <pt x="435" y="176" on="1"/>
        <pt x="201" y="176" on="1"/>
        <pt x="171" y="88" on="1"/>
        <pt x="231" y="85" on="1"/>
        <pt x="231" y="0" on="1"/>
        <pt x="0" y="0" on="1"/>
        <pt x="0" y="81" on="1"/>
        <pt x="33" y="84" on="1"/>
        <pt x="54" y="86" on="0"/>
      </contour>
      <contour>
        <pt x="318" y="553" on="1"/>
        <pt x="225" y="268" on="1"/>
        <pt x="411" y="268" on="1"/>
        <pt x="321" y="553" on="1"/>
      </contour>
    </TTGlyph>
    <TTGlyph name="AEacute" xMin="0" yMin="0" xMax="814" yMax="948">
      <component glyphName="AE" x="0" y="0" flags="0x1004"/>
      <component glyphName="acute" x="259" y="162" flags="0x1004"/>
    </TTGlyph>
    <TTGlyph name="Aacute" xMin="5" yMin="0" xMax="657" yMax="907">
      <contour>
        <pt x="68" y="112" on="1"/>
        <pt x="229" y="578" on="1"/>
        <pt x="166" y="584" on="1"/>
        <pt x="166" y="665" on="1"/>
        <pt x="395" y="665" on="1"/>
        <pt x="599" y="88" on="1"/>
        <pt x="600" y="88" on="1"/>
        <pt x="657" y="85" on="1"/>
        <pt x="657" y="0" on="1"/>
        <pt x="399" y="0" on="1"/>
        <pt x="399" y="81" on="1"/>
        <pt x="437" y="84" on="1"/>
        <pt x="454" y="86" on="0"/>
        <pt x="466" y="98" on="0"/>
        <pt x="461" y="114" on="1"/>
        <pt x="440" y="176" on="1"/>
        <pt x="206" y="176" on="1"/>
        <pt x="176" y="88" on="1"/>
        <pt x="236" y="85" on="1"/>
        <pt x="236" y="0" on="1"/>
        <pt x="5" y="0" on="1"/>
        <pt x="5" y="81" on="1"/>
        <pt x="38" y="84" on="1"/>
        <pt x="59" y="86" on="0"/>
      </contour>
      <contour>
        <pt x="323" y="553" on="1"/>
        <pt x="230" y="268" on="1"/>
        <pt x="416" y="268" on="1"/>
        <pt x="326" y="553" on="1"/>
      </contour>
      <contour>
        <pt x="221" y="750" on="1"/>
        <pt x="383" y="907" on="1"/>
        <pt x="423" y="874" on="1"/>
        <pt x="441" y="857" on="0"/>
        <pt x="441" y="841" on="1"/>
        <pt x="441" y="816" on="0"/>
        <pt x="406" y="796" on="1"/>
        <pt x="251" y="709" on="1"/>
      </contour>
    </TTGlyph>
    <TTGlyph name="Abreve" xMin="5" yMin="0" xMax="657" yMax="874">
      <contour>
        <pt x="68" y="112" on="1"/>
        <pt x="229" y="578" on="1"/>
        <pt x="166" y="584" on="1"/>
        <pt x="166" y="665" on="1"/>
        <pt x="395" y="665" on="1"/>
        <pt x="599" y="88" on="1"/>
        <pt x="600" y="88" on="1"/>
        <pt x="657" y="85" on="1"/>
        <pt x="657" y="0" on="1"/>
        <pt x="399" y="0" on="1"/>
        <pt x="399" y="81" on="1"/>
        <pt x="437" y="84" on="1"/>
        <pt x="454" y="86" on="0"/>
        <pt x="466" y="98" on="0"/>
        <pt x="461" y="114" on="1"/>
        <pt x="440" y="176" on="1"/>
        <pt x="206" y="176" on="1"/>
        <pt x="176" y="88" on="1"/>
        <pt x="236" y="85" on="1"/>
        <pt x="236" y="0" on="1"/>
        <pt x="5" y="0" on="1"/>
        <pt x="5" y="81" on="1"/>
        <pt x="38" y="84" on="1"/>
        <pt x="59" y="86" on="0"/>
      </contour>
      <contour>
        <pt x="323" y="553" on="1"/>
        <pt x="230" y="268" on="1"/>
        <pt x="416" y="268" on="1"/>
        <pt x="326" y="553" on="1"/>
      </contour>
      <contour>
        <pt x="406" y="874" on="1"/>
        <pt x="472" y="847" on="1"/>
        <pt x="430" y="720" on="0"/>
        <pt x="175" y="720" on="0"/>
        <pt x="140" y="846" on="1"/>
        <pt x="207" y="874" on="1"/>
        <pt x="238" y="796" on="0"/>
        <pt x="307" y="796" on="1"/>
        <pt x="344" y="796" on="0"/>
        <pt x="389" y="833" on="0"/>
      </contour>
    </TTGlyph>
    <TTGlyph name="Acircumflex" xMin="5" yMin="0" xMax="657" yMax="893">
      <contour>
        <pt x="68" y="112" on="1"/>
        <pt x="229" y="578" on="1"/>
        <pt x="166" y="584" on="1"/>
        <pt x="166" y="665" on="1"/>
        <pt x="395" y="665" on="1"/>
        <pt x="599" y="88" on="1"/>
        <pt x="600" y="88" on="1"/>
        <pt x="657" y="85" on="1"/>
        <pt x="657" y="0" on="1"/>
        <pt x="399" y="0" on="1"/>
        <pt x="399" y="81" on="1"/>
        <pt x="437" y="84" on="1"/>
        <pt x="454" y="86" on="0"/>
        <pt x="466" y="98" on="0"/>
        <pt x="461" y="114" on="1"/>
        <pt x="440" y="176" on="1"/>
        <pt x="206" y="176" on="1"/>
        <pt x="176" y="88" on="1"/>
        <pt x="236" y="85" on="1"/>
        <pt x="236" y="0" on="1"/>
        <pt x="5" y="0" on="1"/>
        <pt x="5" y="81" on="1"/>
        <pt x="38" y="84" on="1"/>
        <pt x="59" y="86" on="0"/>
      </contour>
      <contour>
        <pt x="323" y="553" on="1"/>
        <pt x="230" y="268" on="1"/>
        <pt x="416" y="268" on="1"/>
        <pt x="326" y="553" on="1"/>
      </contour>
      <contour>
        <pt x="181" y="708" on="1"/>
        <pt x="140" y="742" on="1"/>
        <pt x="258" y="870" on="1"/>
        <pt x="279" y="893" on="0"/>
        <pt x="300" y="893" on="1"/>
        <pt x="340" y="872" on="1"/>
        <pt x="460" y="743" on="1"/>
        <pt x="419" y="708" on="1"/>
        <pt x="299" y="794" on="1"/>
      </contour>
    </TTGlyph>
    <TTGlyph name="Adieresis" xMin="5" yMin="0" xMax="657" yMax="854">
      <contour>
        <pt x="68" y="112" on="1"/>
        <pt x="229" y="578" on="1"/>
        <pt x="166" y="584" on="1"/>
        <pt x="166" y="665" on="1"/>
        <pt x="395" y="665" on="1"/>
        <pt x="599" y="88" on="1"/>
        <pt x="600" y="88" on="1"/>
        <pt x="657" y="85" on="1"/>
        <pt x="657" y="0" on="1"/>
        <pt x="399" y="0" on="1"/>
        <pt x="399" y="81" on="1"/>
        <pt x="437" y="84" on="1"/>
        <pt x="454" y="86" on="0"/>
        <pt x="466" y="98" on="0"/>
        <pt x="461" y="114" on="1"/>
        <pt x="440" y="176" on="1"/>
        <pt x="206" y="176" on="1"/>
        <pt x="176" y="88" on="1"/>
        <pt x="236" y="85" on="1"/>
        <pt x="236" y="0" on="1"/>
        <pt x="5" y="0" on="1"/>
        <pt x="5" y="81" on="1"/>
        <pt x="38" y="84" on="1"/>
        <pt x="59" y="86" on="0"/>
      </contour>
      <contour>
        <pt x="323" y="553" on="1"/>
        <pt x="230" y="268" on="1"/>
        <pt x="416" y="268" on="1"/>
        <pt x="326" y="553" on="1"/>
      </contour>
      <contour>
        <pt x="372" y="721" on="0"/>
        <pt x="334" y="758" on="0"/>
        <pt x="334" y="815" on="0"/>
        <pt x="373" y="854" on="0"/>
        <pt x="433" y="854" on="0"/>
        <pt x="472" y="815" on="0"/>
        <pt x="472" y="758" on="0"/>
        <pt x="433" y="721" on="0"/>
      </contour>
      <contour>
        <pt x="172" y="721" on="0"/>
        <pt x="134" y="758" on="0"/>
        <pt x="134" y="815" on="0"/>
        <pt x="173" y="854" on="0"/>
        <pt x="233" y="854" on="0"/>
        <pt x="272" y="815" on="0"/>
        <pt x="272" y="758" on="0"/>
        <pt x="233" y="721" on="0"/>
      </contour>
    </TTGlyph>
    <TTGlyph name="Agrave" xMin="5" yMin="0" xMax="657" yMax="907">
      <contour>
        <pt x="68" y="112" on="1"/>
        <pt x="229" y="578" on="1"/>
        <pt x="166" y="584" on="1"/>
        <pt x="166" y="665" on="1"/>
        <pt x="395" y="665" on="1"/>
        <pt x="599" y="88" on="1"/>
        <pt x="600" y="88" on="1"/>
        <pt x="657" y="85" on="1"/>
        <pt x="657" y="0" on="1"/>
        <pt x="399" y="0" on="1"/>
        <pt x="399" y="81" on="1"/>
        <pt x="437" y="84" on="1"/>
        <pt x="454" y="86" on="0"/>
        <pt x="466" y="98" on="0"/>
        <pt x="461" y="114" on="1"/>
        <pt x="440" y="176" on="1"/>
        <pt x="206" y="176" on="1"/>
        <pt x="176" y="88" on="1"/>
        <pt x="236" y="85" on="1"/>
        <pt x="236" y="0" on="1"/>
        <pt x="5" y="0" on="1"/>
        <pt x="5" y="81" on="1"/>
        <pt x="38" y="84" on="1"/>
        <pt x="59" y="86" on="0"/>
      </contour>
      <contour>
        <pt x="323" y="553" on="1"/>
        <pt x="230" y="268" on="1"/>
        <pt x="416" y="268" on="1"/>
        <pt x="326" y="553" on="1"/>
      </contour>
      <contour>
        <pt x="237" y="907" on="1"/>
        <pt x="399" y="750" on="1"/>
        <pt x="369" y="709" on="1"/>
        <pt x="214" y="796" on="1"/>
        <pt x="178" y="816" on="0"/>
        <pt x="178" y="856" on="0"/>
        <pt x="197" y="874" on="1"/>
      </contour>
    </TTGlyph>
    <TTGlyph name="Amacron" xMin="5" yMin="0" xMax="657" yMax="821">
      <contour>
        <pt x="68" y="112" on="1"/>
        <pt x="229" y="578" on="1"/>
        <pt x="166" y="584" on="1"/>
        <pt x="166" y="665" on="1"/>
        <pt x="395" y="665" on="1"/>
        <pt x="599" y="88" on="1"/>
        <pt x="600" y="88" on="1"/>
        <pt x="657" y="85" on="1"/>
        <pt x="657" y="0" on="1"/>
        <pt x="399" y="0" on="1"/>
        <pt x="399" y="81" on="1"/>
        <pt x="437" y="84" on="1"/>
        <pt x="454" y="86" on="0"/>
        <pt x="466" y="98" on="0"/>
        <pt x="461" y="114" on="1"/>
        <pt x="440" y="176" on="1"/>
        <pt x="206" y="176" on="1"/>
        <pt x="176" y="88" on="1"/>
        <pt x="236" y="85" on="1"/>
        <pt x="236" y="0" on="1"/>
        <pt x="5" y="0" on="1"/>
        <pt x="5" y="81" on="1"/>
        <pt x="38" y="84" on="1"/>
        <pt x="59" y="86" on="0"/>
      </contour>
      <contour>
        <pt x="323" y="553" on="1"/>
        <pt x="230" y="268" on="1"/>
        <pt x="416" y="268" on="1"/>
        <pt x="326" y="553" on="1"/>
      </contour>
      <contour>
        <pt x="159" y="734" on="1"/>
        <pt x="159" y="821" on="1"/>
        <pt x="446" y="821" on="1"/>
        <pt x="446" y="734" on="1"/>
      </contour>
    </TTGlyph>
    <TTGlyph name="Aogonek" xMin="5" yMin="-214" xMax="657" yMax="665">
      <contour>
        <pt x="68" y="112" on="1"/>
        <pt x="229" y="578" on="1"/>
        <pt x="166" y="584" on="1"/>
        <pt x="166" y="665" on="1"/>
        <pt x="395" y="665" on="1"/>
        <pt x="599" y="88" on="1"/>
        <pt x="600" y="88" on="1"/>
        <pt x="657" y="85" on="1"/>
        <pt x="657" y="0" on="1"/>
        <pt x="612" y="0" on="1"/>
        <pt x="513" y="-43" on="0"/>
        <pt x="513" y="-97" on="1"/>
        <pt x="513" y="-135" on="0"/>
        <pt x="554" y="-135" on="1"/>
        <pt x="576" y="-135" on="0"/>
        <pt x="601" y="-124" on="1"/>
        <pt x="623" y="-190" on="1"/>
        <pt x="573" y="-214" on="0"/>
        <pt x="464" y="-214" on="0"/>
        <pt x="413" y="-159" on="0"/>
        <pt x="413" y="-118" on="1"/>
        <pt x="413" y="-49" on="0"/>
        <pt x="501" y="0" on="1"/>
        <pt x="399" y="0" on="1"/>
        <pt x="399" y="81" on="1"/>
        <pt x="437" y="84" on="1"/>
        <pt x="454" y="86" on="0"/>
        <pt x="466" y="98" on="0"/>
        <pt x="461" y="114" on="1"/>
        <pt x="440" y="176" on="1"/>
        <pt x="206" y="176" on="1"/>
        <pt x="176" y="88" on="1"/>
        <pt x="236" y="85" on="1"/>
        <pt x="236" y="0" on="1"/>
        <pt x="5" y="0" on="1"/>
        <pt x="5" y="81" on="1"/>
        <pt x="38" y="84" on="1"/>
        <pt x="59" y="86" on="0"/>
      </contour>
      <contour>
        <pt x="323" y="553" on="1"/>
        <pt x="230" y="268" on="1"/>
        <pt x="416" y="268" on="1"/>
        <pt x="326" y="553" on="1"/>
      </contour>
    </TTGlyph>
    <TTGlyph name="Aring" xMin="5" yMin="0" xMax="657" yMax="886">
      <contour>
        <pt x="68" y="112" on="1"/>
        <pt x="229" y="578" on="1"/>
        <pt x="166" y="584" on="1"/>
        <pt x="166" y="665" on="1"/>
        <pt x="395" y="665" on="1"/>
        <pt x="599" y="88" on="1"/>
        <pt x="600" y="88" on="1"/>
        <pt x="657" y="85" on="1"/>
        <pt x="657" y="0" on="1"/>
        <pt x="399" y="0" on="1"/>
        <pt x="399" y="81" on="1"/>
        <pt x="437" y="84" on="1"/>
        <pt x="454" y="86" on="0"/>
        <pt x="466" y="98" on="0"/>
        <pt x="461" y="114" on="1"/>
        <pt x="440" y="176" on="1"/>
        <pt x="206" y="176" on="1"/>
        <pt x="176" y="88" on="1"/>
        <pt x="236" y="85" on="1"/>
        <pt x="236" y="0" on="1"/>
        <pt x="5" y="0" on="1"/>
        <pt x="5" y="81" on="1"/>
        <pt x="38" y="84" on="1"/>
        <pt x="59" y="86" on="0"/>
      </contour>
      <contour>
        <pt x="323" y="553" on="1"/>
        <pt x="230" y="268" on="1"/>
        <pt x="416" y="268" on="1"/>
        <pt x="326" y="553" on="1"/>
      </contour>
      <contour>
        <pt x="259" y="700" on="0"/>
        <pt x="210" y="753" on="0"/>
        <pt x="210" y="834" on="0"/>
        <pt x="263" y="886" on="0"/>
        <pt x="348" y="886" on="0"/>
        <pt x="398" y="835" on="0"/>
        <pt x="398" y="755" on="0"/>
        <pt x="346" y="700" on="0"/>
      </contour>
      <contour>
        <pt x="341" y="834" on="0"/>
        <pt x="269" y="834" on="0"/>
        <pt x="269" y="751" on="0"/>
        <pt x="305" y="751" on="1"/>
        <pt x="322" y="751" on="0"/>
        <pt x="341" y="775" on="0"/>
        <pt x="341" y="793" on="1"/>
      </contour>
    </TTGlyph>
    <TTGlyph name="Aringacute" xMin="5" yMin="0" xMax="657" yMax="1077">
      <contour>
        <pt x="68" y="112" on="1"/>
        <pt x="229" y="578" on="1"/>
        <pt x="166" y="584" on="1"/>
        <pt x="166" y="665" on="1"/>
        <pt x="395" y="665" on="1"/>
        <pt x="599" y="88" on="1"/>
        <pt x="600" y="88" on="1"/>
        <pt x="657" y="85" on="1"/>
        <pt x="657" y="0" on="1"/>
        <pt x="399" y="0" on="1"/>
        <pt x="399" y="81" on="1"/>
        <pt x="437" y="84" on="1"/>
        <pt x="454" y="86" on="0"/>
        <pt x="466" y="98" on="0"/>
        <pt x="461" y="114" on="1"/>
        <pt x="440" y="176" on="1"/>
        <pt x="206" y="176" on="1"/>
        <pt x="176" y="88" on="1"/>
        <pt x="236" y="85" on="1"/>
        <pt x="236" y="0" on="1"/>
        <pt x="5" y="0" on="1"/>
        <pt x="5" y="81" on="1"/>
        <pt x="38" y="84" on="1"/>
        <pt x="59" y="86" on="0"/>
      </contour>
      <contour>
        <pt x="323" y="553" on="1"/>
        <pt x="230" y="268" on="1"/>
        <pt x="416" y="268" on="1"/>
        <pt x="326" y="553" on="1"/>
      </contour>
      <contour>
        <pt x="259" y="691" on="0"/>
        <pt x="210" y="744" on="0"/>
        <pt x="210" y="825" on="0"/>
        <pt x="263" y="877" on="0"/>
        <pt x="348" y="877" on="0"/>
        <pt x="398" y="826" on="0"/>
        <pt x="398" y="746" on="0"/>
        <pt x="346" y="691" on="0"/>
      </contour>
      <contour>
        <pt x="341" y="825" on="0"/>
        <pt x="269" y="825" on="0"/>
        <pt x="269" y="742" on="0"/>
        <pt x="305" y="742" on="1"/>
        <pt x="322" y="742" on="0"/>
        <pt x="341" y="766" on="0"/>
        <pt x="341" y="784" on="1"/>
      </contour>
      <contour>
        <pt x="195" y="920" on="1"/>
        <pt x="357" y="1077" on="1"/>
        <pt x="397" y="1044" on="1"/>
        <pt x="415" y="1027" on="0"/>
        <pt x="415" y="1011" on="1"/>
        <pt x="415" y="986" on="0"/>
        <pt x="380" y="966" on="1"/>
        <pt x="225" y="879" on="1"/>
      </contour>
    </TTGlyph>
    <TTGlyph name="Atilde" xMin="5" yMin="0" xMax="657" yMax="846">
      <contour>
        <pt x="68" y="112" on="1"/>
        <pt x="229" y="578" on="1"/>
        <pt x="166" y="584" on="1"/>
        <pt x="166" y="665" on="1"/>
        <pt x="395" y="665" on="1"/>
        <pt x="599" y="88" on="1"/>
        <pt x="600" y="88" on="1"/>
        <pt x="657" y="85" on="1"/>
        <pt x="657" y="0" on="1"/>
        <pt x="399" y="0" on="1"/>
        <pt x="399" y="81" on="1"/>
        <pt x="437" y="84" on="1"/>
        <pt x="454" y="86" on="0"/>
        <pt x="466" y="98" on="0"/>
        <pt x="461" y="114" on="1"/>
        <pt x="440" y="176" on="1"/>
        <pt x="206" y="176" on="1"/>
        <pt x="176" y="88" on="1"/>
        <pt x="236" y="85" on="1"/>
        <pt x="236" y="0" on="1"/>
        <pt x="5" y="0" on="1"/>
        <pt x="5" y="81" on="1"/>
        <pt x="38" y="84" on="1"/>
        <pt x="59" y="86" on="0"/>
      </contour>
      <contour>
        <pt x="323" y="553" on="1"/>
        <pt x="230" y="268" on="1"/>
        <pt x="416" y="268" on="1"/>
        <pt x="326" y="553" on="1"/>
      </contour>
      <contour>
        <pt x="184" y="728" on="1"/>
        <pt x="136" y="763" on="1"/>
        <pt x="172" y="842" on="0"/>
        <pt x="238" y="842" on="1"/>
        <pt x="262" y="842" on="0"/>
        <pt x="354" y="814" on="0"/>
        <pt x="397" y="814" on="0"/>
        <pt x="416" y="846" on="1"/>
        <pt x="470" y="817" on="1"/>
        <pt x="437" y="730" on="0"/>
        <pt x="367" y="730" on="1"/>
        <pt x="346" y="730" on="0"/>
        <pt x="258" y="757" on="0"/>
        <pt x="222" y="757" on="0"/>
        <pt x="200" y="746" on="0"/>
      </contour>
    </TTGlyph>
    <TTGlyph name="B" xMin="34" yMin="0" xMax="571" yMax="665">
      <contour>
        <pt x="39" y="665" on="1"/>
        <pt x="321" y="665" on="1"/>
        <pt x="537" y="665" on="0"/>
        <pt x="537" y="498" on="1"/>
        <pt x="537" y="406" on="0"/>
        <pt x="445" y="358" on="1"/>
        <pt x="504" y="343" on="0"/>
        <pt x="571" y="263" on="0"/>
        <pt x="571" y="199" on="1"/>
        <pt x="571" y="102" on="0"/>
        <pt x="440" y="0" on="0"/>
        <pt x="315" y="0" on="1"/>
        <pt x="34" y="0" on="1"/>
        <pt x="34" y="81" on="1"/>
        <pt x="67" y="84" on="1"/>
        <pt x="96" y="87" on="0"/>
        <pt x="96" y="112" on="1"/>
        <pt x="96" y="577" on="1"/>
        <pt x="39" y="580" on="1"/>
      </contour>
      <contour>
        <pt x="218" y="303" on="1"/>
        <pt x="218" y="94" on="1"/>
        <pt x="312" y="94" on="1"/>
        <pt x="442" y="94" on="0"/>
        <pt x="442" y="200" on="1"/>
        <pt x="442" y="250" on="0"/>
        <pt x="377" y="303" on="0"/>
        <pt x="317" y="303" on="1"/>
      </contour>
      <contour>
        <pt x="218" y="573" on="1"/>
        <pt x="218" y="392" on="1"/>
        <pt x="292" y="392" on="1"/>
        <pt x="354" y="392" on="0"/>
        <pt x="413" y="443" on="0"/>
        <pt x="413" y="535" on="0"/>
        <pt x="354" y="573" on="0"/>
        <pt x="299" y="573" on="1"/>
      </contour>
    </TTGlyph>
    <TTGlyph name="C" xMin="40" yMin="-13" xMax="552" yMax="677">
      <contour>
        <pt x="436" y="559" on="1"/>
        <pt x="425" y="578" on="0"/>
        <pt x="354" y="578" on="1"/>
        <pt x="261" y="578" on="0"/>
        <pt x="165" y="452" on="0"/>
        <pt x="165" y="333" on="1"/>
        <pt x="165" y="86" on="0"/>
        <pt x="350" y="86" on="1"/>
        <pt x="353" y="86" on="0"/>
        <pt x="400" y="86" on="0"/>
        <pt x="442" y="99" on="0"/>
        <pt x="450" y="113" on="0"/>
        <pt x="450" y="128" on="1"/>
        <pt x="450" y="208" on="1"/>
        <pt x="552" y="201" on="1"/>
        <pt x="552" y="28" on="1"/>
        <pt x="474" y="-13" on="0"/>
        <pt x="354" y="-13" on="1"/>
        <pt x="201" y="-13" on="0"/>
        <pt x="40" y="159" on="0"/>
        <pt x="40" y="329" on="1"/>
        <pt x="40" y="423" on="0"/>
        <pt x="94" y="563" on="0"/>
        <pt x="140" y="602" on="1"/>
        <pt x="230" y="677" on="0"/>
        <pt x="354" y="677" on="1"/>
        <pt x="454" y="677" on="0"/>
        <pt x="542" y="636" on="1"/>
        <pt x="542" y="466" on="1"/>
        <pt x="440" y="459" on="1"/>
        <pt x="440" y="537" on="1"/>
        <pt x="440" y="552" on="0"/>
      </contour>
    </TTGlyph>
    <TTGlyph name="Cacute" xMin="40" yMin="-13" xMax="552" yMax="907">
      <contour>
        <pt x="436" y="559" on="1"/>
        <pt x="425" y="578" on="0"/>
        <pt x="354" y="578" on="1"/>
        <pt x="261" y="578" on="0"/>
        <pt x="165" y="452" on="0"/>
        <pt x="165" y="333" on="1"/>
        <pt x="165" y="86" on="0"/>
        <pt x="350" y="86" on="1"/>
        <pt x="353" y="86" on="0"/>
        <pt x="400" y="86" on="0"/>
        <pt x="442" y="99" on="0"/>
        <pt x="450" y="113" on="0"/>
        <pt x="450" y="128" on="1"/>
        <pt x="450" y="208" on="1"/>
        <pt x="552" y="201" on="1"/>
        <pt x="552" y="28" on="1"/>
        <pt x="474" y="-13" on="0"/>
        <pt x="354" y="-13" on="1"/>
        <pt x="201" y="-13" on="0"/>
        <pt x="40" y="159" on="0"/>
        <pt x="40" y="329" on="1"/>
        <pt x="40" y="423" on="0"/>
        <pt x="94" y="563" on="0"/>
        <pt x="140" y="602" on="1"/>
        <pt x="230" y="677" on="0"/>
        <pt x="354" y="677" on="1"/>
        <pt x="454" y="677" on="0"/>
        <pt x="542" y="636" on="1"/>
        <pt x="542" y="466" on="1"/>
        <pt x="440" y="459" on="1"/>
        <pt x="440" y="537" on="1"/>
        <pt x="440" y="552" on="0"/>
      </contour>
      <contour>
        <pt x="238" y="750" on="1"/>
        <pt x="400" y="907" on="1"/>
        <pt x="440" y="874" on="1"/>
        <pt x="458" y="857" on="0"/>
        <pt x="458" y="841" on="1"/>
        <pt x="458" y="816" on="0"/>
        <pt x="423" y="796" on="1"/>
        <pt x="268" y="709" on="1"/>
      </contour>
    </TTGlyph>
    <TTGlyph name="Ccaron" xMin="40" yMin="-13" xMax="552" yMax="893">
      <contour>
        <pt x="436" y="559" on="1"/>
        <pt x="425" y="578" on="0"/>
        <pt x="354" y="578" on="1"/>
        <pt x="261" y="578" on="0"/>
        <pt x="165" y="452" on="0"/>
        <pt x="165" y="333" on="1"/>
        <pt x="165" y="86" on="0"/>
        <pt x="350" y="86" on="1"/>
        <pt x="353" y="86" on="0"/>
        <pt x="400" y="86" on="0"/>
        <pt x="442" y="99" on="0"/>
        <pt x="450" y="113" on="0"/>
        <pt x="450" y="128" on="1"/>
        <pt x="450" y="208" on="1"/>
        <pt x="552" y="201" on="1"/>
        <pt x="552" y="28" on="1"/>
        <pt x="474" y="-13" on="0"/>
        <pt x="354" y="-13" on="1"/>
        <pt x="201" y="-13" on="0"/>
        <pt x="40" y="159" on="0"/>
        <pt x="40" y="329" on="1"/>
        <pt x="40" y="423" on="0"/>
        <pt x="94" y="563" on="0"/>
        <pt x="140" y="602" on="1"/>
        <pt x="230" y="677" on="0"/>
        <pt x="354" y="677" on="1"/>
        <pt x="454" y="677" on="0"/>
        <pt x="542" y="636" on="1"/>
        <pt x="542" y="466" on="1"/>
        <pt x="440" y="459" on="1"/>
        <pt x="440" y="537" on="1"/>
        <pt x="440" y="552" on="0"/>
      </contour>
      <contour>
        <pt x="458" y="893" on="1"/>
        <pt x="499" y="859" on="1"/>
        <pt x="381" y="731" on="1"/>
        <pt x="360" y="708" on="0"/>
        <pt x="339" y="708" on="1"/>
        <pt x="299" y="729" on="1"/>
        <pt x="179" y="858" on="1"/>
        <pt x="220" y="893" on="1"/>
        <pt x="340" y="807" on="1"/>
      </contour>
    </TTGlyph>
    <TTGlyph name="Ccedilla" xMin="40" yMin="-242" xMax="552" yMax="677">
      <contour>
        <pt x="436" y="559" on="1"/>
        <pt x="425" y="578" on="0"/>
        <pt x="354" y="578" on="1"/>
        <pt x="261" y="578" on="0"/>
        <pt x="165" y="452" on="0"/>
        <pt x="165" y="333" on="1"/>
        <pt x="165" y="86" on="0"/>
        <pt x="350" y="86" on="1"/>
        <pt x="353" y="86" on="0"/>
        <pt x="400" y="86" on="0"/>
        <pt x="442" y="99" on="0"/>
        <pt x="450" y="113" on="0"/>
        <pt x="450" y="128" on="1"/>
        <pt x="450" y="208" on="1"/>
        <pt x="552" y="201" on="1"/>
        <pt x="552" y="28" on="1"/>
        <pt x="474" y="-13" on="0"/>
        <pt x="355" y="-13" on="1"/>
        <pt x="342" y="-63" on="1"/>
        <pt x="384" y="-66" on="0"/>
        <pt x="435" y="-108" on="0"/>
        <pt x="435" y="-195" on="0"/>
        <pt x="362" y="-242" on="0"/>
        <pt x="264" y="-242" on="0"/>
        <pt x="223" y="-224" on="1"/>
        <pt x="239" y="-172" on="1"/>
        <pt x="278" y="-185" on="0"/>
        <pt x="306" y="-185" on="1"/>
        <pt x="354" y="-185" on="0"/>
        <pt x="354" y="-110" on="0"/>
        <pt x="266" y="-110" on="1"/>
        <pt x="298" y="-9" on="1"/>
        <pt x="172" y="5" on="0"/>
        <pt x="40" y="176" on="0"/>
        <pt x="40" y="329" on="1"/>
        <pt x="40" y="423" on="0"/>
        <pt x="94" y="563" on="0"/>
        <pt x="140" y="602" on="1"/>
        <pt x="230" y="677" on="0"/>
        <pt x="354" y="677" on="1"/>
        <pt x="454" y="677" on="0"/>
        <pt x="542" y="636" on="1"/>
        <pt x="542" y="466" on="1"/>
        <pt x="440" y="459" on="1"/>
        <pt x="440" y="537" on="1"/>
        <pt x="440" y="552" on="0"/>
      </contour>
    </TTGlyph>
    <TTGlyph name="Ccircumflex" xMin="40" yMin="-13" xMax="552" yMax="893">
      <contour>
        <pt x="436" y="559" on="1"/>
        <pt x="425" y="578" on="0"/>
        <pt x="354" y="578" on="1"/>
        <pt x="261" y="578" on="0"/>
        <pt x="165" y="452" on="0"/>
        <pt x="165" y="333" on="1"/>
        <pt x="165" y="86" on="0"/>
        <pt x="350" y="86" on="1"/>
        <pt x="353" y="86" on="0"/>
        <pt x="400" y="86" on="0"/>
        <pt x="442" y="99" on="0"/>
        <pt x="450" y="113" on="0"/>
        <pt x="450" y="128" on="1"/>
        <pt x="450" y="208" on="1"/>
        <pt x="552" y="201" on="1"/>
        <pt x="552" y="28" on="1"/>
        <pt x="474" y="-13" on="0"/>
        <pt x="354" y="-13" on="1"/>
        <pt x="201" y="-13" on="0"/>
        <pt x="40" y="159" on="0"/>
        <pt x="40" y="329" on="1"/>
        <pt x="40" y="423" on="0"/>
        <pt x="94" y="563" on="0"/>
        <pt x="140" y="602" on="1"/>
        <pt x="230" y="677" on="0"/>
        <pt x="354" y="677" on="1"/>
        <pt x="454" y="677" on="0"/>
        <pt x="542" y="636" on="1"/>
        <pt x="542" y="466" on="1"/>
        <pt x="440" y="459" on="1"/>
        <pt x="440" y="537" on="1"/>
        <pt x="440" y="552" on="0"/>
      </contour>
      <contour>
        <pt x="224" y="708" on="1"/>
        <pt x="183" y="742" on="1"/>
        <pt x="301" y="870" on="1"/>
        <pt x="322" y="893" on="0"/>
        <pt x="343" y="893" on="1"/>
        <pt x="383" y="872" on="1"/>
        <pt x="503" y="743" on="1"/>
        <pt x="462" y="708" on="1"/>
        <pt x="342" y="794" on="1"/>
      </contour>
    </TTGlyph>
    <TTGlyph name="Cdotaccent" xMin="40" yMin="-13" xMax="552" yMax="860">
      <contour>
        <pt x="436" y="559" on="1"/>
        <pt x="425" y="578" on="0"/>
        <pt x="354" y="578" on="1"/>
        <pt x="261" y="578" on="0"/>
        <pt x="165" y="452" on="0"/>
        <pt x="165" y="333" on="1"/>
        <pt x="165" y="86" on="0"/>
        <pt x="350" y="86" on="1"/>
        <pt x="353" y="86" on="0"/>
        <pt x="400" y="86" on="0"/>
        <pt x="442" y="99" on="0"/>
        <pt x="450" y="113" on="0"/>
        <pt x="450" y="128" on="1"/>
        <pt x="450" y="208" on="1"/>
        <pt x="552" y="201" on="1"/>
        <pt x="552" y="28" on="1"/>
        <pt x="474" y="-13" on="0"/>
        <pt x="354" y="-13" on="1"/>
        <pt x="201" y="-13" on="0"/>
        <pt x="40" y="159" on="0"/>
        <pt x="40" y="329" on="1"/>
        <pt x="40" y="423" on="0"/>
        <pt x="94" y="563" on="0"/>
        <pt x="140" y="602" on="1"/>
        <pt x="230" y="677" on="0"/>
        <pt x="354" y="677" on="1"/>
        <pt x="454" y="677" on="0"/>
        <pt x="542" y="636" on="1"/>
        <pt x="542" y="466" on="1"/>
        <pt x="440" y="459" on="1"/>
        <pt x="440" y="537" on="1"/>
        <pt x="440" y="552" on="0"/>
      </contour>
      <contour>
        <pt x="314" y="727" on="0"/>
        <pt x="276" y="764" on="0"/>
        <pt x="276" y="821" on="0"/>
        <pt x="315" y="860" on="0"/>
        <pt x="375" y="860" on="0"/>
        <pt x="414" y="821" on="0"/>
        <pt x="414" y="764" on="0"/>
        <pt x="375" y="727" on="0"/>
      </contour>
    </TTGlyph>
    <TTGlyph name="D" xMin="34" yMin="0" xMax="625" yMax="665">
      <contour>
        <pt x="34" y="0" on="1"/>
        <pt x="34" y="81" on="1"/>
        <pt x="67" y="84" on="1"/>
        <pt x="96" y="87" on="0"/>
        <pt x="96" y="112" on="1"/>
        <pt x="96" y="577" on="1"/>
        <pt x="39" y="580" on="1"/>
        <pt x="39" y="665" on="1"/>
        <pt x="313" y="665" on="1"/>
        <pt x="460" y="665" on="0"/>
        <pt x="625" y="509" on="0"/>
        <pt x="625" y="356" on="1"/>
        <pt x="625" y="261" on="0"/>
        <pt x="575" y="120" on="0"/>
        <pt x="532" y="80" on="1"/>
        <pt x="446" y="0" on="0"/>
        <pt x="318" y="0" on="1"/>
      </contour>
      <contour>
        <pt x="218" y="568" on="1"/>
        <pt x="218" y="96" on="1"/>
        <pt x="320" y="96" on="1"/>
        <pt x="406" y="96" on="0"/>
        <pt x="502" y="220" on="0"/>
        <pt x="502" y="338" on="1"/>
        <pt x="502" y="568" on="0"/>
        <pt x="307" y="568" on="1"/>
      </contour>
    </TTGlyph>
    <TTGlyph name="Dcaron" xMin="34" yMin="0" xMax="625" yMax="893">
      <contour>
        <pt x="34" y="0" on="1"/>
        <pt x="34" y="81" on="1"/>
        <pt x="67" y="84" on="1"/>
        <pt x="96" y="87" on="0"/>
        <pt x="96" y="112" on="1"/>
        <pt x="96" y="577" on="1"/>
        <pt x="39" y="580" on="1"/>
        <pt x="39" y="665" on="1"/>
        <pt x="313" y="665" on="1"/>
        <pt x="460" y="665" on="0"/>
        <pt x="625" y="509" on="0"/>
        <pt x="625" y="356" on="1"/>
        <pt x="625" y="261" on="0"/>
        <pt x="575" y="120" on="0"/>
        <pt x="532" y="80" on="1"/>
        <pt x="446" y="0" on="0"/>
        <pt x="318" y="0" on="1"/>
      </contour>
      <contour>
        <pt x="218" y="568" on="1"/>
        <pt x="218" y="96" on="1"/>
        <pt x="320" y="96" on="1"/>
        <pt x="406" y="96" on="0"/>
        <pt x="502" y="220" on="0"/>
        <pt x="502" y="338" on="1"/>
        <pt x="502" y="568" on="0"/>
        <pt x="307" y="568" on="1"/>
      </contour>
      <contour>
        <pt x="418" y="893" on="1"/>
        <pt x="459" y="859" on="1"/>
        <pt x="341" y="731" on="1"/>
        <pt x="320" y="708" on="0"/>
        <pt x="299" y="708" on="1"/>
        <pt x="259" y="729" on="1"/>
        <pt x="139" y="858" on="1"/>
        <pt x="180" y="893" on="1"/>
        <pt x="300" y="807" on="1"/>
      </contour>
    </TTGlyph>
    <TTGlyph name="Dcroat" xMin="36" yMin="0" xMax="639" yMax="665">
      <contour>
        <pt x="48" y="0" on="1"/>
        <pt x="48" y="81" on="1"/>
        <pt x="81" y="84" on="1"/>
        <pt x="110" y="87" on="0"/>
        <pt x="110" y="112" on="1"/>
        <pt x="110" y="290" on="1"/>
        <pt x="36" y="290" on="1"/>
        <pt x="36" y="380" on="1"/>
        <pt x="110" y="380" on="1"/>
        <pt x="110" y="577" on="1"/>
        <pt x="53" y="580" on="1"/>
        <pt x="53" y="665" on="1"/>
        <pt x="327" y="665" on="1"/>
        <pt x="474" y="665" on="0"/>
        <pt x="639" y="509" on="0"/>
        <pt x="639" y="356" on="1"/>
        <pt x="639" y="261" on="0"/>
        <pt x="589" y="120" on="0"/>
        <pt x="546" y="80" on="1"/>
        <pt x="460" y="0" on="0"/>
        <pt x="332" y="0" on="1"/>
      </contour>
      <contour>
        <pt x="232" y="568" on="1"/>
        <pt x="232" y="380" on="1"/>
        <pt x="401" y="380" on="1"/>
        <pt x="401" y="290" on="1"/>
        <pt x="232" y="290" on="1"/>
        <pt x="232" y="96" on="1"/>
        <pt x="334" y="96" on="1"/>
        <pt x="420" y="96" on="0"/>
        <pt x="516" y="220" on="0"/>
        <pt x="516" y="338" on="1"/>
        <pt x="516" y="568" on="0"/>
        <pt x="321" y="568" on="1"/>
      </contour>
    </TTGlyph>
    <TTGlyph name="Delta" xMin="16" yMin="0" xMax="653" yMax="665">
      <contour>
        <pt x="653" y="0" on="1"/>
        <pt x="16" y="0" on="1"/>
        <pt x="273" y="665" on="1"/>
        <pt x="398" y="665" on="1"/>
      </contour>
      <contour>
        <pt x="337" y="538" on="1"/>
        <pt x="333" y="538" on="1"/>
        <pt x="169" y="93" on="1"/>
        <pt x="500" y="93" on="1"/>
      </contour>
    </TTGlyph>
    <TTGlyph name="E" xMin="34" yMin="0" xMax="509" yMax="665">
      <contour>
        <pt x="509" y="0" on="1"/>
        <pt x="34" y="0" on="1"/>
        <pt x="34" y="81" on="1"/>
        <pt x="67" y="84" on="1"/>
        <pt x="96" y="87" on="0"/>
        <pt x="96" y="112" on="1"/>
        <pt x="96" y="577" on="1"/>
        <pt x="39" y="580" on="1"/>
        <pt x="39" y="665" on="1"/>
        <pt x="497" y="665" on="1"/>
        <pt x="497" y="499" on="1"/>
        <pt x="395" y="492" on="1"/>
        <pt x="395" y="532" on="1"/>
        <pt x="395" y="549" on="0"/>
        <pt x="385" y="563" on="0"/>
        <pt x="366" y="563" on="1"/>
        <pt x="218" y="563" on="1"/>
        <pt x="218" y="392" on="1"/>
        <pt x="449" y="392" on="1"/>
        <pt x="449" y="290" on="1"/>
        <pt x="218" y="290" on="1"/>
        <pt x="218" y="103" on="1"/>
        <pt x="379" y="103" on="1"/>
        <pt x="397" y="103" on="0"/>
        <pt x="407" y="118" on="0"/>
        <pt x="407" y="135" on="1"/>
        <pt x="407" y="185" on="1"/>
        <pt x="509" y="178" on="1"/>
      </contour>
    </TTGlyph>
    <TTGlyph name="Eacute" xMin="34" yMin="0" xMax="509" yMax="907">
      <contour>
        <pt x="509" y="0" on="1"/>
        <pt x="34" y="0" on="1"/>
        <pt x="34" y="81" on="1"/>
        <pt x="67" y="84" on="1"/>
        <pt x="96" y="87" on="0"/>
        <pt x="96" y="112" on="1"/>
        <pt x="96" y="577" on="1"/>
        <pt x="39" y="580" on="1"/>
        <pt x="39" y="665" on="1"/>
        <pt x="497" y="665" on="1"/>
        <pt x="497" y="499" on="1"/>
        <pt x="395" y="492" on="1"/>
        <pt x="395" y="532" on="1"/>
        <pt x="395" y="549" on="0"/>
        <pt x="385" y="563" on="0"/>
        <pt x="366" y="563" on="1"/>
        <pt x="218" y="563" on="1"/>
        <pt x="218" y="392" on="1"/>
        <pt x="449" y="392" on="1"/>
        <pt x="449" y="290" on="1"/>
        <pt x="218" y="290" on="1"/>
        <pt x="218" y="103" on="1"/>
        <pt x="379" y="103" on="1"/>
        <pt x="397" y="103" on="0"/>
        <pt x="407" y="118" on="0"/>
        <pt x="407" y="135" on="1"/>
        <pt x="407" y="185" on="1"/>
        <pt x="509" y="178" on="1"/>
      </contour>
      <contour>
        <pt x="184" y="750" on="1"/>
        <pt x="346" y="907" on="1"/>
        <pt x="386" y="874" on="1"/>
        <pt x="404" y="857" on="0"/>
        <pt x="404" y="841" on="1"/>
        <pt x="404" y="816" on="0"/>
        <pt x="369" y="796" on="1"/>
        <pt x="214" y="709" on="1"/>
      </contour>
    </TTGlyph>
    <TTGlyph name="Ebreve" xMin="34" yMin="0" xMax="509" yMax="874">
      <contour>
        <pt x="509" y="0" on="1"/>
        <pt x="34" y="0" on="1"/>
        <pt x="34" y="81" on="1"/>
        <pt x="67" y="84" on="1"/>
        <pt x="96" y="87" on="0"/>
        <pt x="96" y="112" on="1"/>
        <pt x="96" y="577" on="1"/>
        <pt x="39" y="580" on="1"/>
        <pt x="39" y="665" on="1"/>
        <pt x="497" y="665" on="1"/>
        <pt x="497" y="499" on="1"/>
        <pt x="395" y="492" on="1"/>
        <pt x="395" y="532" on="1"/>
        <pt x="395" y="549" on="0"/>
        <pt x="385" y="563" on="0"/>
        <pt x="366" y="563" on="1"/>
        <pt x="218" y="563" on="1"/>
        <pt x="218" y="392" on="1"/>
        <pt x="449" y="392" on="1"/>
        <pt x="449" y="290" on="1"/>
        <pt x="218" y="290" on="1"/>
        <pt x="218" y="103" on="1"/>
        <pt x="379" y="103" on="1"/>
        <pt x="397" y="103" on="0"/>
        <pt x="407" y="118" on="0"/>
        <pt x="407" y="135" on="1"/>
        <pt x="407" y="185" on="1"/>
        <pt x="509" y="178" on="1"/>
      </contour>
      <contour>
        <pt x="376" y="874" on="1"/>
        <pt x="442" y="847" on="1"/>
        <pt x="400" y="720" on="0"/>
        <pt x="145" y="720" on="0"/>
        <pt x="110" y="846" on="1"/>
        <pt x="177" y="874" on="1"/>
        <pt x="208" y="796" on="0"/>
        <pt x="277" y="796" on="1"/>
        <pt x="314" y="796" on="0"/>
        <pt x="359" y="833" on="0"/>
      </contour>
    </TTGlyph>
    <TTGlyph name="Ecaron" xMin="34" yMin="0" xMax="509" yMax="893">
      <contour>
        <pt x="509" y="0" on="1"/>
        <pt x="34" y="0" on="1"/>
        <pt x="34" y="81" on="1"/>
        <pt x="67" y="84" on="1"/>
        <pt x="96" y="87" on="0"/>
        <pt x="96" y="112" on="1"/>
        <pt x="96" y="577" on="1"/>
        <pt x="39" y="580" on="1"/>
        <pt x="39" y="665" on="1"/>
        <pt x="497" y="665" on="1"/>
        <pt x="497" y="499" on="1"/>
        <pt x="395" y="492" on="1"/>
        <pt x="395" y="532" on="1"/>
        <pt x="395" y="549" on="0"/>
        <pt x="385" y="563" on="0"/>
        <pt x="366" y="563" on="1"/>
        <pt x="218" y="563" on="1"/>
        <pt x="218" y="392" on="1"/>
        <pt x="449" y="392" on="1"/>
        <pt x="449" y="290" on="1"/>
        <pt x="218" y="290" on="1"/>
        <pt x="218" y="103" on="1"/>
        <pt x="379" y="103" on="1"/>
        <pt x="397" y="103" on="0"/>
        <pt x="407" y="118" on="0"/>
        <pt x="407" y="135" on="1"/>
        <pt x="407" y="185" on="1"/>
        <pt x="509" y="178" on="1"/>
      </contour>
      <contour>
        <pt x="402" y="893" on="1"/>
        <pt x="443" y="859" on="1"/>
        <pt x="325" y="731" on="1"/>
        <pt x="304" y="708" on="0"/>
        <pt x="283" y="708" on="1"/>
        <pt x="243" y="729" on="1"/>
        <pt x="123" y="858" on="1"/>
        <pt x="164" y="893" on="1"/>
        <pt x="284" y="807" on="1"/>
      </contour>
    </TTGlyph>
    <TTGlyph name="Ecircumflex" xMin="34" yMin="0" xMax="509" yMax="893">
      <contour>
        <pt x="509" y="0" on="1"/>
        <pt x="34" y="0" on="1"/>
        <pt x="34" y="81" on="1"/>
        <pt x="67" y="84" on="1"/>
        <pt x="96" y="87" on="0"/>
        <pt x="96" y="112" on="1"/>
        <pt x="96" y="577" on="1"/>
        <pt x="39" y="580" on="1"/>
        <pt x="39" y="665" on="1"/>
        <pt x="497" y="665" on="1"/>
        <pt x="497" y="499" on="1"/>
        <pt x="395" y="492" on="1"/>
        <pt x="395" y="532" on="1"/>
        <pt x="395" y="549" on="0"/>
        <pt x="385" y="563" on="0"/>
        <pt x="366" y="563" on="1"/>
        <pt x="218" y="563" on="1"/>
        <pt x="218" y="392" on="1"/>
        <pt x="449" y="392" on="1"/>
        <pt x="449" y="290" on="1"/>
        <pt x="218" y="290" on="1"/>
        <pt x="218" y="103" on="1"/>
        <pt x="379" y="103" on="1"/>
        <pt x="397" y="103" on="0"/>
        <pt x="407" y="118" on="0"/>
        <pt x="407" y="135" on="1"/>
        <pt x="407" y="185" on="1"/>
        <pt x="509" y="178" on="1"/>
      </contour>
      <contour>
        <pt x="155" y="708" on="1"/>
        <pt x="114" y="742" on="1"/>
        <pt x="232" y="870" on="1"/>
        <pt x="253" y="893" on="0"/>
        <pt x="274" y="893" on="1"/>
        <pt x="314" y="872" on="1"/>
        <pt x="434" y="743" on="1"/>
        <pt x="393" y="708" on="1"/>
        <pt x="273" y="794" on="1"/>
      </contour>
    </TTGlyph>
    <TTGlyph name="Edieresis" xMin="34" yMin="0" xMax="509" yMax="854">
      <contour>
        <pt x="509" y="0" on="1"/>
        <pt x="34" y="0" on="1"/>
        <pt x="34" y="81" on="1"/>
        <pt x="67" y="84" on="1"/>
        <pt x="96" y="87" on="0"/>
        <pt x="96" y="112" on="1"/>
        <pt x="96" y="577" on="1"/>
        <pt x="39" y="580" on="1"/>
        <pt x="39" y="665" on="1"/>
        <pt x="497" y="665" on="1"/>
        <pt x="497" y="499" on="1"/>
        <pt x="395" y="492" on="1"/>
        <pt x="395" y="532" on="1"/>
        <pt x="395" y="549" on="0"/>
        <pt x="385" y="563" on="0"/>
        <pt x="366" y="563" on="1"/>
        <pt x="218" y="563" on="1"/>
        <pt x="218" y="392" on="1"/>
        <pt x="449" y="392" on="1"/>
        <pt x="449" y="290" on="1"/>
        <pt x="218" y="290" on="1"/>
        <pt x="218" y="103" on="1"/>
        <pt x="379" y="103" on="1"/>
        <pt x="397" y="103" on="0"/>
        <pt x="407" y="118" on="0"/>
        <pt x="407" y="135" on="1"/>
        <pt x="407" y="185" on="1"/>
        <pt x="509" y="178" on="1"/>
      </contour>
      <contour>
        <pt x="345" y="721" on="0"/>
        <pt x="307" y="758" on="0"/>
        <pt x="307" y="815" on="0"/>
        <pt x="346" y="854" on="0"/>
        <pt x="406" y="854" on="0"/>
        <pt x="445" y="815" on="0"/>
        <pt x="445" y="758" on="0"/>
        <pt x="406" y="721" on="0"/>
      </contour>
      <contour>
        <pt x="145" y="721" on="0"/>
        <pt x="107" y="758" on="0"/>
        <pt x="107" y="815" on="0"/>
        <pt x="146" y="854" on="0"/>
        <pt x="206" y="854" on="0"/>
        <pt x="245" y="815" on="0"/>
        <pt x="245" y="758" on="0"/>
        <pt x="206" y="721" on="0"/>
      </contour>
    </TTGlyph>
    <TTGlyph name="Edotaccent" xMin="34" yMin="0" xMax="509" yMax="860">
      <contour>
        <pt x="509" y="0" on="1"/>
        <pt x="34" y="0" on="1"/>
        <pt x="34" y="81" on="1"/>
        <pt x="67" y="84" on="1"/>
        <pt x="96" y="87" on="0"/>
        <pt x="96" y="112" on="1"/>
        <pt x="96" y="577" on="1"/>
        <pt x="39" y="580" on="1"/>
        <pt x="39" y="665" on="1"/>
        <pt x="497" y="665" on="1"/>
        <pt x="497" y="499" on="1"/>
        <pt x="395" y="492" on="1"/>
        <pt x="395" y="532" on="1"/>
        <pt x="395" y="549" on="0"/>
        <pt x="385" y="563" on="0"/>
        <pt x="366" y="563" on="1"/>
        <pt x="218" y="563" on="1"/>
        <pt x="218" y="392" on="1"/>
        <pt x="449" y="392" on="1"/>
        <pt x="449" y="290" on="1"/>
        <pt x="218" y="290" on="1"/>
        <pt x="218" y="103" on="1"/>
        <pt x="379" y="103" on="1"/>
        <pt x="397" y="103" on="0"/>
        <pt x="407" y="118" on="0"/>
        <pt x="407" y="135" on="1"/>
        <pt x="407" y="185" on="1"/>
        <pt x="509" y="178" on="1"/>
      </contour>
      <contour>
        <pt x="246" y="727" on="0"/>
        <pt x="208" y="764" on="0"/>
        <pt x="208" y="821" on="0"/>
        <pt x="247" y="860" on="0"/>
        <pt x="307" y="860" on="0"/>
        <pt x="346" y="821" on="0"/>
        <pt x="346" y="764" on="0"/>
        <pt x="307" y="727" on="0"/>
      </contour>
    </TTGlyph>
    <TTGlyph name="Egrave" xMin="34" yMin="0" xMax="509" yMax="907">
      <contour>
        <pt x="509" y="0" on="1"/>
        <pt x="34" y="0" on="1"/>
        <pt x="34" y="81" on="1"/>
        <pt x="67" y="84" on="1"/>
        <pt x="96" y="87" on="0"/>
        <pt x="96" y="112" on="1"/>
        <pt x="96" y="577" on="1"/>
        <pt x="39" y="580" on="1"/>
        <pt x="39" y="665" on="1"/>
        <pt x="497" y="665" on="1"/>
        <pt x="497" y="499" on="1"/>
        <pt x="395" y="492" on="1"/>
        <pt x="395" y="532" on="1"/>
        <pt x="395" y="549" on="0"/>
        <pt x="385" y="563" on="0"/>
        <pt x="366" y="563" on="1"/>
        <pt x="218" y="563" on="1"/>
        <pt x="218" y="392" on="1"/>
        <pt x="449" y="392" on="1"/>
        <pt x="449" y="290" on="1"/>
        <pt x="218" y="290" on="1"/>
        <pt x="218" y="103" on="1"/>
        <pt x="379" y="103" on="1"/>
        <pt x="397" y="103" on="0"/>
        <pt x="407" y="118" on="0"/>
        <pt x="407" y="135" on="1"/>
        <pt x="407" y="185" on="1"/>
        <pt x="509" y="178" on="1"/>
      </contour>
      <contour>
        <pt x="214" y="907" on="1"/>
        <pt x="376" y="750" on="1"/>
        <pt x="346" y="709" on="1"/>
        <pt x="191" y="796" on="1"/>
        <pt x="155" y="816" on="0"/>
        <pt x="155" y="856" on="0"/>
        <pt x="174" y="874" on="1"/>
      </contour>
    </TTGlyph>
    <TTGlyph name="Emacron" xMin="34" yMin="0" xMax="509" yMax="821">
      <contour>
        <pt x="509" y="0" on="1"/>
        <pt x="34" y="0" on="1"/>
        <pt x="34" y="81" on="1"/>
        <pt x="67" y="84" on="1"/>
        <pt x="96" y="87" on="0"/>
        <pt x="96" y="112" on="1"/>
        <pt x="96" y="577" on="1"/>
        <pt x="39" y="580" on="1"/>
        <pt x="39" y="665" on="1"/>
        <pt x="497" y="665" on="1"/>
        <pt x="497" y="499" on="1"/>
        <pt x="395" y="492" on="1"/>
        <pt x="395" y="532" on="1"/>
        <pt x="395" y="549" on="0"/>
        <pt x="385" y="563" on="0"/>
        <pt x="366" y="563" on="1"/>
        <pt x="218" y="563" on="1"/>
        <pt x="218" y="392" on="1"/>
        <pt x="449" y="392" on="1"/>
        <pt x="449" y="290" on="1"/>
        <pt x="218" y="290" on="1"/>
        <pt x="218" y="103" on="1"/>
        <pt x="379" y="103" on="1"/>
        <pt x="397" y="103" on="0"/>
        <pt x="407" y="118" on="0"/>
        <pt x="407" y="135" on="1"/>
        <pt x="407" y="185" on="1"/>
        <pt x="509" y="178" on="1"/>
      </contour>
      <contour>
        <pt x="128" y="734" on="1"/>
        <pt x="128" y="821" on="1"/>
        <pt x="415" y="821" on="1"/>
        <pt x="415" y="734" on="1"/>
      </contour>
    </TTGlyph>
    <TTGlyph name="Eng" xMin="32" yMin="-217" xMax="680" yMax="665">
      <contour>
        <pt x="32" y="0" on="1"/>
        <pt x="32" y="81" on="1"/>
        <pt x="68" y="84" on="1"/>
        <pt x="94" y="86" on="0"/>
        <pt x="94" y="112" on="1"/>
        <pt x="94" y="577" on="1"/>
        <pt x="37" y="580" on="1"/>
        <pt x="37" y="665" on="1"/>
        <pt x="217" y="665" on="1"/>
        <pt x="497" y="212" on="1"/>
        <pt x="499" y="212" on="1"/>
        <pt x="499" y="577" on="1"/>
        <pt x="433" y="580" on="1"/>
        <pt x="433" y="665" on="1"/>
        <pt x="680" y="665" on="1"/>
        <pt x="680" y="584" on="1"/>
        <pt x="644" y="581" on="1"/>
        <pt x="620" y="579" on="0"/>
        <pt x="620" y="550" on="1"/>
        <pt x="620" y="-22" on="1"/>
        <pt x="620" y="-120" on="0"/>
        <pt x="553" y="-217" on="0"/>
        <pt x="370" y="-217" on="0"/>
        <pt x="293" y="-172" on="1"/>
        <pt x="337" y="-85" on="1"/>
        <pt x="389" y="-117" on="0"/>
        <pt x="469" y="-117" on="0"/>
        <pt x="498" y="-74" on="0"/>
        <pt x="498" y="-23" on="1"/>
        <pt x="498" y="8" on="1"/>
        <pt x="216" y="462" on="1"/>
        <pt x="214" y="462" on="1"/>
        <pt x="214" y="88" on="1"/>
        <pt x="279" y="85" on="1"/>
        <pt x="279" y="0" on="1"/>
      </contour>
    </TTGlyph>
    <TTGlyph name="Eogonek" xMin="34" yMin="-214" xMax="509" yMax="665">
      <contour>
        <pt x="509" y="0" on="1"/>
        <pt x="396" y="-39" on="0"/>
        <pt x="396" y="-97" on="1"/>
        <pt x="396" y="-135" on="0"/>
        <pt x="437" y="-135" on="1"/>
        <pt x="459" y="-135" on="0"/>
        <pt x="484" y="-124" on="1"/>
        <pt x="506" y="-190" on="1"/>
        <pt x="456" y="-214" on="0"/>
        <pt x="347" y="-214" on="0"/>
        <pt x="296" y="-159" on="0"/>
        <pt x="296" y="-118" on="1"/>
        <pt x="296" y="-49" on="0"/>
        <pt x="384" y="0" on="1"/>
        <pt x="34" y="0" on="1"/>
        <pt x="34" y="81" on="1"/>
        <pt x="67" y="84" on="1"/>
        <pt x="96" y="87" on="0"/>
        <pt x="96" y="112" on="1"/>
        <pt x="96" y="577" on="1"/>
        <pt x="39" y="580" on="1"/>
        <pt x="39" y="665" on="1"/>
        <pt x="497" y="665" on="1"/>
        <pt x="497" y="499" on="1"/>
        <pt x="395" y="492" on="1"/>
        <pt x="395" y="532" on="1"/>
        <pt x="395" y="549" on="0"/>
        <pt x="385" y="563" on="0"/>
        <pt x="366" y="563" on="1"/>
        <pt x="218" y="563" on="1"/>
        <pt x="218" y="392" on="1"/>
        <pt x="449" y="392" on="1"/>
        <pt x="449" y="290" on="1"/>
        <pt x="218" y="290" on="1"/>
        <pt x="218" y="103" on="1"/>
        <pt x="379" y="103" on="1"/>
        <pt x="397" y="103" on="0"/>
        <pt x="407" y="118" on="0"/>
        <pt x="407" y="135" on="1"/>
        <pt x="407" y="185" on="1"/>
        <pt x="509" y="178" on="1"/>
      </contour>
    </TTGlyph>
    <TTGlyph name="Eth" xMin="36" yMin="0" xMax="639" yMax="665">
      <contour>
        <pt x="48" y="0" on="1"/>
        <pt x="48" y="81" on="1"/>
        <pt x="81" y="84" on="1"/>
        <pt x="110" y="87" on="0"/>
        <pt x="110" y="112" on="1"/>
        <pt x="110" y="290" on="1"/>
        <pt x="36" y="290" on="1"/>
        <pt x="36" y="380" on="1"/>
        <pt x="110" y="380" on="1"/>
        <pt x="110" y="577" on="1"/>
        <pt x="53" y="580" on="1"/>
        <pt x="53" y="665" on="1"/>
        <pt x="327" y="665" on="1"/>
        <pt x="474" y="665" on="0"/>
        <pt x="639" y="509" on="0"/>
        <pt x="639" y="356" on="1"/>
        <pt x="639" y="261" on="0"/>
        <pt x="589" y="120" on="0"/>
        <pt x="546" y="80" on="1"/>
        <pt x="460" y="0" on="0"/>
        <pt x="332" y="0" on="1"/>
      </contour>
      <contour>
        <pt x="232" y="568" on="1"/>
        <pt x="232" y="380" on="1"/>
        <pt x="401" y="380" on="1"/>
        <pt x="401" y="290" on="1"/>
        <pt x="232" y="290" on="1"/>
        <pt x="232" y="96" on="1"/>
        <pt x="334" y="96" on="1"/>
        <pt x="420" y="96" on="0"/>
        <pt x="516" y="220" on="0"/>
        <pt x="516" y="338" on="1"/>
        <pt x="516" y="568" on="0"/>
        <pt x="321" y="568" on="1"/>
      </contour>
    </TTGlyph>
    <TTGlyph name="Euro" xMin="40" yMin="-12" xMax="544" yMax="657">
      <contour>
        <pt x="359" y="558" on="1"/>
        <pt x="304" y="558" on="0"/>
        <pt x="239" y="484" on="0"/>
        <pt x="233" y="427" on="1"/>
        <pt x="445" y="427" on="1"/>
        <pt x="445" y="345" on="1"/>
        <pt x="40" y="345" on="1"/>
        <pt x="40" y="427" on="1"/>
        <pt x="111" y="427" on="1"/>
        <pt x="122" y="540" on="0"/>
        <pt x="264" y="657" on="0"/>
        <pt x="459" y="657" on="0"/>
        <pt x="536" y="616" on="1"/>
        <pt x="536" y="476" on="1"/>
        <pt x="434" y="469" on="1"/>
        <pt x="434" y="516" on="1"/>
        <pt x="434" y="531" on="0"/>
        <pt x="426" y="544" on="0"/>
        <pt x="391" y="558" on="0"/>
      </contour>
      <contour>
        <pt x="40" y="206" on="1"/>
        <pt x="40" y="288" on="1"/>
        <pt x="445" y="288" on="1"/>
        <pt x="445" y="206" on="1"/>
        <pt x="235" y="206" on="1"/>
        <pt x="247" y="147" on="0"/>
        <pt x="310" y="89" on="0"/>
        <pt x="431" y="89" on="0"/>
        <pt x="487" y="136" on="1"/>
        <pt x="544" y="56" on="1"/>
        <pt x="469" y="-12" on="0"/>
        <pt x="354" y="-12" on="1"/>
        <pt x="149" y="-12" on="0"/>
        <pt x="111" y="206" on="1"/>
      </contour>
    </TTGlyph>
    <TTGlyph name="F" xMin="34" yMin="0" xMax="522" yMax="665">
      <contour>
        <pt x="34" y="0" on="1"/>
        <pt x="34" y="81" on="1"/>
        <pt x="67" y="84" on="1"/>
        <pt x="96" y="87" on="0"/>
        <pt x="96" y="112" on="1"/>
        <pt x="96" y="577" on="1"/>
        <pt x="39" y="580" on="1"/>
        <pt x="39" y="665" on="1"/>
        <pt x="522" y="665" on="1"/>
        <pt x="522" y="499" on="1"/>
        <pt x="420" y="492" on="1"/>
        <pt x="420" y="532" on="1"/>
        <pt x="420" y="549" on="0"/>
        <pt x="410" y="563" on="0"/>
        <pt x="391" y="563" on="1"/>
        <pt x="218" y="563" on="1"/>
        <pt x="218" y="386" on="1"/>
        <pt x="464" y="386" on="1"/>
        <pt x="464" y="284" on="1"/>
        <pt x="218" y="284" on="1"/>
        <pt x="218" y="88" on="1"/>
        <pt x="307" y="85" on="1"/>
        <pt x="307" y="0" on="1"/>
      </contour>
    </TTGlyph>
    <TTGlyph name="G" xMin="40" yMin="-12" xMax="616" yMax="677">
      <contour>
        <pt x="564" y="233" on="1"/>
        <pt x="564" y="52" on="1"/>
        <pt x="471" y="-12" on="0"/>
        <pt x="195" y="-12" on="0"/>
        <pt x="40" y="161" on="0"/>
        <pt x="40" y="331" on="1"/>
        <pt x="40" y="406" on="0"/>
        <pt x="79" y="526" on="0"/>
        <pt x="142" y="604" on="0"/>
        <pt x="184" y="630" on="1"/>
        <pt x="264" y="677" on="0"/>
        <pt x="467" y="677" on="0"/>
        <pt x="555" y="636" on="1"/>
        <pt x="555" y="466" on="1"/>
        <pt x="453" y="459" on="1"/>
        <pt x="453" y="537" on="1"/>
        <pt x="453" y="552" on="0"/>
        <pt x="449" y="559" on="1"/>
        <pt x="438" y="578" on="0"/>
        <pt x="358" y="578" on="1"/>
        <pt x="165" y="578" on="0"/>
        <pt x="165" y="339" on="1"/>
        <pt x="165" y="87" on="0"/>
        <pt x="339" y="87" on="1"/>
        <pt x="408" y="87" on="0"/>
        <pt x="445" y="111" on="1"/>
        <pt x="445" y="260" on="1"/>
        <pt x="444" y="260" on="1"/>
        <pt x="367" y="263" on="1"/>
        <pt x="367" y="348" on="1"/>
        <pt x="616" y="348" on="1"/>
        <pt x="616" y="268" on="1"/>
        <pt x="593" y="266" on="1"/>
        <pt x="577" y="264" on="0"/>
        <pt x="564" y="251" on="0"/>
      </contour>
    </TTGlyph>
    <TTGlyph name="Gbreve" xMin="40" yMin="-12" xMax="616" yMax="874">
      <contour>
        <pt x="564" y="233" on="1"/>
        <pt x="564" y="52" on="1"/>
        <pt x="471" y="-12" on="0"/>
        <pt x="195" y="-12" on="0"/>
        <pt x="40" y="161" on="0"/>
        <pt x="40" y="331" on="1"/>
        <pt x="40" y="406" on="0"/>
        <pt x="79" y="526" on="0"/>
        <pt x="142" y="604" on="0"/>
        <pt x="184" y="630" on="1"/>
        <pt x="264" y="677" on="0"/>
        <pt x="467" y="677" on="0"/>
        <pt x="555" y="636" on="1"/>
        <pt x="555" y="466" on="1"/>
        <pt x="453" y="459" on="1"/>
        <pt x="453" y="537" on="1"/>
        <pt x="453" y="552" on="0"/>
        <pt x="449" y="559" on="1"/>
        <pt x="438" y="578" on="0"/>
        <pt x="358" y="578" on="1"/>
        <pt x="165" y="578" on="0"/>
        <pt x="165" y="339" on="1"/>
        <pt x="165" y="87" on="0"/>
        <pt x="339" y="87" on="1"/>
        <pt x="408" y="87" on="0"/>
        <pt x="445" y="111" on="1"/>
        <pt x="445" y="260" on="1"/>
        <pt x="444" y="260" on="1"/>
        <pt x="367" y="263" on="1"/>
        <pt x="367" y="348" on="1"/>
        <pt x="616" y="348" on="1"/>
        <pt x="616" y="268" on="1"/>
        <pt x="593" y="266" on="1"/>
        <pt x="577" y="264" on="0"/>
        <pt x="564" y="251" on="0"/>
      </contour>
      <contour>
        <pt x="440" y="874" on="1"/>
        <pt x="506" y="847" on="1"/>
        <pt x="464" y="720" on="0"/>
        <pt x="209" y="720" on="0"/>
        <pt x="174" y="846" on="1"/>
        <pt x="241" y="874" on="1"/>
        <pt x="272" y="796" on="0"/>
        <pt x="341" y="796" on="1"/>
        <pt x="378" y="796" on="0"/>
        <pt x="423" y="833" on="0"/>
      </contour>
    </TTGlyph>
    <TTGlyph name="Gcircumflex" xMin="40" yMin="-12" xMax="616" yMax="893">
      <contour>
        <pt x="564" y="233" on="1"/>
        <pt x="564" y="52" on="1"/>
        <pt x="471" y="-12" on="0"/>
        <pt x="195" y="-12" on="0"/>
        <pt x="40" y="161" on="0"/>
        <pt x="40" y="331" on="1"/>
        <pt x="40" y="406" on="0"/>
        <pt x="79" y="526" on="0"/>
        <pt x="142" y="604" on="0"/>
        <pt x="184" y="630" on="1"/>
        <pt x="264" y="677" on="0"/>
        <pt x="467" y="677" on="0"/>
        <pt x="555" y="636" on="1"/>
        <pt x="555" y="466" on="1"/>
        <pt x="453" y="459" on="1"/>
        <pt x="453" y="537" on="1"/>
        <pt x="453" y="552" on="0"/>
        <pt x="449" y="559" on="1"/>
        <pt x="438" y="578" on="0"/>
        <pt x="358" y="578" on="1"/>
        <pt x="165" y="578" on="0"/>
        <pt x="165" y="339" on="1"/>
        <pt x="165" y="87" on="0"/>
        <pt x="339" y="87" on="1"/>
        <pt x="408" y="87" on="0"/>
        <pt x="445" y="111" on="1"/>
        <pt x="445" y="260" on="1"/>
        <pt x="444" y="260" on="1"/>
        <pt x="367" y="263" on="1"/>
        <pt x="367" y="348" on="1"/>
        <pt x="616" y="348" on="1"/>
        <pt x="616" y="268" on="1"/>
        <pt x="593" y="266" on="1"/>
        <pt x="577" y="264" on="0"/>
        <pt x="564" y="251" on="0"/>
      </contour>
      <contour>
        <pt x="229" y="708" on="1"/>
        <pt x="188" y="742" on="1"/>
        <pt x="306" y="870" on="1"/>
        <pt x="327" y="893" on="0"/>
        <pt x="348" y="893" on="1"/>
        <pt x="388" y="872" on="1"/>
        <pt x="508" y="743" on="1"/>
        <pt x="467" y="708" on="1"/>
        <pt x="347" y="794" on="1"/>
      </contour>
    </TTGlyph>
    <TTGlyph name="Gcommaaccent" xMin="40" yMin="-281" xMax="616" yMax="677">
      <contour>
        <pt x="564" y="233" on="1"/>
        <pt x="564" y="52" on="1"/>
        <pt x="471" y="-12" on="0"/>
        <pt x="195" y="-12" on="0"/>
        <pt x="40" y="161" on="0"/>
        <pt x="40" y="331" on="1"/>
        <pt x="40" y="406" on="0"/>
        <pt x="79" y="526" on="0"/>
        <pt x="142" y="604" on="0"/>
        <pt x="184" y="630" on="1"/>
        <pt x="264" y="677" on="0"/>
        <pt x="467" y="677" on="0"/>
        <pt x="555" y="636" on="1"/>
        <pt x="555" y="466" on="1"/>
        <pt x="453" y="459" on="1"/>
        <pt x="453" y="537" on="1"/>
        <pt x="453" y="552" on="0"/>
        <pt x="449" y="559" on="1"/>
        <pt x="438" y="578" on="0"/>
        <pt x="358" y="578" on="1"/>
        <pt x="165" y="578" on="0"/>
        <pt x="165" y="339" on="1"/>
        <pt x="165" y="87" on="0"/>
        <pt x="339" y="87" on="1"/>
        <pt x="408" y="87" on="0"/>
        <pt x="445" y="111" on="1"/>
        <pt x="445" y="260" on="1"/>
        <pt x="444" y="260" on="1"/>
        <pt x="367" y="263" on="1"/>
        <pt x="367" y="348" on="1"/>
        <pt x="616" y="348" on="1"/>
        <pt x="616" y="268" on="1"/>
        <pt x="593" y="266" on="1"/>
        <pt x="577" y="264" on="0"/>
        <pt x="564" y="251" on="0"/>
      </contour>
      <contour>
        <pt x="312" y="-61" on="1"/>
        <pt x="361" y="-71" on="1"/>
        <pt x="393" y="-77" on="0"/>
        <pt x="398" y="-100" on="1"/>
        <pt x="399" y="-104" on="0"/>
        <pt x="399" y="-127" on="0"/>
        <pt x="385" y="-146" on="1"/>
        <pt x="299" y="-281" on="1"/>
        <pt x="253" y="-259" on="1"/>
      </contour>
    </TTGlyph>
    <TTGlyph name="Gdotaccent" xMin="40" yMin="-12" xMax="616" yMax="860">
      <contour>
        <pt x="564" y="233" on="1"/>
        <pt x="564" y="52" on="1"/>
        <pt x="471" y="-12" on="0"/>
        <pt x="195" y="-12" on="0"/>
        <pt x="40" y="161" on="0"/>
        <pt x="40" y="331" on="1"/>
        <pt x="40" y="406" on="0"/>
        <pt x="79" y="526" on="0"/>
        <pt x="142" y="604" on="0"/>
        <pt x="184" y="630" on="1"/>
        <pt x="264" y="677" on="0"/>
        <pt x="467" y="677" on="0"/>
        <pt x="555" y="636" on="1"/>
        <pt x="555" y="466" on="1"/>
        <pt x="453" y="459" on="1"/>
        <pt x="453" y="537" on="1"/>
        <pt x="453" y="552" on="0"/>
        <pt x="449" y="559" on="1"/>
        <pt x="438" y="578" on="0"/>
        <pt x="358" y="578" on="1"/>
        <pt x="165" y="578" on="0"/>
        <pt x="165" y="339" on="1"/>
        <pt x="165" y="87" on="0"/>
        <pt x="339" y="87" on="1"/>
        <pt x="408" y="87" on="0"/>
        <pt x="445" y="111" on="1"/>
        <pt x="445" y="260" on="1"/>
        <pt x="444" y="260" on="1"/>
        <pt x="367" y="263" on="1"/>
        <pt x="367" y="348" on="1"/>
        <pt x="616" y="348" on="1"/>
        <pt x="616" y="268" on="1"/>
        <pt x="593" y="266" on="1"/>
        <pt x="577" y="264" on="0"/>
        <pt x="564" y="251" on="0"/>
      </contour>
      <contour>
        <pt x="322" y="727" on="0"/>
        <pt x="284" y="764" on="0"/>
        <pt x="284" y="821" on="0"/>
        <pt x="323" y="860" on="0"/>
        <pt x="383" y="860" on="0"/>
        <pt x="422" y="821" on="0"/>
        <pt x="422" y="764" on="0"/>
        <pt x="383" y="727" on="0"/>
      </contour>
    </TTGlyph>
    <TTGlyph name="H" xMin="32" yMin="0" xMax="684" yMax="665">
      <contour>
        <pt x="499" y="117" on="1"/>
        <pt x="499" y="290" on="1"/>
        <pt x="216" y="290" on="1"/>
        <pt x="216" y="88" on="1"/>
        <pt x="274" y="85" on="1"/>
        <pt x="274" y="0" on="1"/>
        <pt x="32" y="0" on="1"/>
        <pt x="32" y="81" on="1"/>
        <pt x="65" y="84" on="1"/>
        <pt x="94" y="87" on="0"/>
        <pt x="94" y="112" on="1"/>
        <pt x="94" y="577" on="1"/>
        <pt x="37" y="580" on="1"/>
        <pt x="37" y="665" on="1"/>
        <pt x="279" y="665" on="1"/>
        <pt x="279" y="584" on="1"/>
        <pt x="246" y="581" on="1"/>
        <pt x="230" y="579" on="0"/>
        <pt x="216" y="566" on="0"/>
        <pt x="216" y="548" on="1"/>
        <pt x="216" y="393" on="1"/>
        <pt x="499" y="393" on="1"/>
        <pt x="499" y="577" on="1"/>
        <pt x="442" y="580" on="1"/>
        <pt x="442" y="665" on="1"/>
        <pt x="684" y="665" on="1"/>
        <pt x="684" y="584" on="1"/>
        <pt x="651" y="581" on="1"/>
        <pt x="622" y="578" on="0"/>
        <pt x="622" y="549" on="1"/>
        <pt x="622" y="88" on="1"/>
        <pt x="679" y="85" on="1"/>
        <pt x="679" y="0" on="1"/>
        <pt x="437" y="0" on="1"/>
        <pt x="437" y="81" on="1"/>
        <pt x="470" y="84" on="1"/>
        <pt x="485" y="86" on="0"/>
        <pt x="499" y="99" on="0"/>
      </contour>
    </TTGlyph>
    <TTGlyph name="Hbar" xMin="38" yMin="0" xMax="695" yMax="665">
      <contour>
        <pt x="505" y="117" on="1"/>
        <pt x="505" y="290" on="1"/>
        <pt x="222" y="290" on="1"/>
        <pt x="222" y="88" on="1"/>
        <pt x="280" y="85" on="1"/>
        <pt x="280" y="0" on="1"/>
        <pt x="38" y="0" on="1"/>
        <pt x="38" y="81" on="1"/>
        <pt x="71" y="84" on="1"/>
        <pt x="100" y="87" on="0"/>
        <pt x="100" y="112" on="1"/>
        <pt x="100" y="452" on="1"/>
        <pt x="38" y="452" on="1"/>
        <pt x="38" y="529" on="1"/>
        <pt x="100" y="529" on="1"/>
        <pt x="100" y="577" on="1"/>
        <pt x="43" y="580" on="1"/>
        <pt x="43" y="665" on="1"/>
        <pt x="285" y="665" on="1"/>
        <pt x="285" y="584" on="1"/>
        <pt x="252" y="581" on="1"/>
        <pt x="236" y="579" on="0"/>
        <pt x="222" y="566" on="0"/>
        <pt x="222" y="548" on="1"/>
        <pt x="222" y="529" on="1"/>
        <pt x="505" y="529" on="1"/>
        <pt x="505" y="577" on="1"/>
        <pt x="448" y="580" on="1"/>
        <pt x="448" y="665" on="1"/>
        <pt x="690" y="665" on="1"/>
        <pt x="690" y="584" on="1"/>
        <pt x="657" y="581" on="1"/>
        <pt x="628" y="578" on="0"/>
        <pt x="628" y="549" on="1"/>
        <pt x="628" y="529" on="1"/>
        <pt x="695" y="529" on="1"/>
        <pt x="695" y="452" on="1"/>
        <pt x="628" y="452" on="1"/>
        <pt x="628" y="88" on="1"/>
        <pt x="685" y="85" on="1"/>
        <pt x="685" y="0" on="1"/>
        <pt x="443" y="0" on="1"/>
        <pt x="443" y="81" on="1"/>
        <pt x="476" y="84" on="1"/>
        <pt x="491" y="86" on="0"/>
        <pt x="505" y="99" on="0"/>
      </contour>
      <contour>
        <pt x="222" y="393" on="1"/>
        <pt x="505" y="393" on="1"/>
        <pt x="505" y="452" on="1"/>
        <pt x="222" y="452" on="1"/>
      </contour>
    </TTGlyph>
    <TTGlyph name="Hcircumflex" xMin="32" yMin="0" xMax="684" yMax="893">
      <contour>
        <pt x="499" y="117" on="1"/>
        <pt x="499" y="290" on="1"/>
        <pt x="216" y="290" on="1"/>
        <pt x="216" y="88" on="1"/>
        <pt x="274" y="85" on="1"/>
        <pt x="274" y="0" on="1"/>
        <pt x="32" y="0" on="1"/>
        <pt x="32" y="81" on="1"/>
        <pt x="65" y="84" on="1"/>
        <pt x="94" y="87" on="0"/>
        <pt x="94" y="112" on="1"/>
        <pt x="94" y="577" on="1"/>
        <pt x="37" y="580" on="1"/>
        <pt x="37" y="665" on="1"/>
        <pt x="279" y="665" on="1"/>
        <pt x="279" y="584" on="1"/>
        <pt x="246" y="581" on="1"/>
        <pt x="230" y="579" on="0"/>
        <pt x="216" y="566" on="0"/>
        <pt x="216" y="548" on="1"/>
        <pt x="216" y="393" on="1"/>
        <pt x="499" y="393" on="1"/>
        <pt x="499" y="577" on="1"/>
        <pt x="442" y="580" on="1"/>
        <pt x="442" y="665" on="1"/>
        <pt x="684" y="665" on="1"/>
        <pt x="684" y="584" on="1"/>
        <pt x="651" y="581" on="1"/>
        <pt x="622" y="578" on="0"/>
        <pt x="622" y="549" on="1"/>
        <pt x="622" y="88" on="1"/>
        <pt x="679" y="85" on="1"/>
        <pt x="679" y="0" on="1"/>
        <pt x="437" y="0" on="1"/>
        <pt x="437" y="81" on="1"/>
        <pt x="470" y="84" on="1"/>
        <pt x="485" y="86" on="0"/>
        <pt x="499" y="99" on="0"/>
      </contour>
      <contour>
        <pt x="236" y="708" on="1"/>
        <pt x="195" y="742" on="1"/>
        <pt x="313" y="870" on="1"/>
        <pt x="334" y="893" on="0"/>
        <pt x="355" y="893" on="1"/>
        <pt x="395" y="872" on="1"/>
        <pt x="515" y="743" on="1"/>
        <pt x="474" y="708" on="1"/>
        <pt x="354" y="794" on="1"/>
      </contour>
    </TTGlyph>
    <TTGlyph name="I" xMin="32" yMin="0" xMax="279" yMax="665">
      <contour>
        <pt x="94" y="117" on="1"/>
        <pt x="94" y="577" on="1"/>
        <pt x="37" y="580" on="1"/>
        <pt x="37" y="665" on="1"/>
        <pt x="279" y="665" on="1"/>
        <pt x="279" y="584" on="1"/>
        <pt x="246" y="581" on="1"/>
        <pt x="217" y="578" on="0"/>
        <pt x="217" y="549" on="1"/>
        <pt x="217" y="88" on="1"/>
        <pt x="274" y="85" on="1"/>
        <pt x="274" y="0" on="1"/>
        <pt x="32" y="0" on="1"/>
        <pt x="32" y="81" on="1"/>
        <pt x="65" y="84" on="1"/>
        <pt x="80" y="86" on="0"/>
        <pt x="94" y="99" on="0"/>
      </contour>
    </TTGlyph>
    <TTGlyph name="IJ" xMin="32" yMin="-13" xMax="766" yMax="665">
      <contour>
        <pt x="94" y="117" on="1"/>
        <pt x="94" y="577" on="1"/>
        <pt x="37" y="580" on="1"/>
        <pt x="37" y="665" on="1"/>
        <pt x="279" y="665" on="1"/>
        <pt x="279" y="584" on="1"/>
        <pt x="246" y="581" on="1"/>
        <pt x="217" y="578" on="0"/>
        <pt x="217" y="549" on="1"/>
        <pt x="217" y="88" on="1"/>
        <pt x="274" y="85" on="1"/>
        <pt x="274" y="0" on="1"/>
        <pt x="32" y="0" on="1"/>
        <pt x="32" y="81" on="1"/>
        <pt x="65" y="84" on="1"/>
        <pt x="80" y="86" on="0"/>
        <pt x="94" y="99" on="0"/>
      </contour>
      <contour>
        <pt x="700" y="134" on="1"/>
        <pt x="683" y="-13" on="0"/>
        <pt x="504" y="-13" on="1"/>
        <pt x="409" y="-13" on="0"/>
        <pt x="335" y="29" on="1"/>
        <pt x="335" y="204" on="1"/>
        <pt x="437" y="211" on="1"/>
        <pt x="437" y="132" on="1"/>
        <pt x="437" y="117" on="0"/>
        <pt x="445" y="103" on="0"/>
        <pt x="479" y="90" on="0"/>
        <pt x="550" y="90" on="0"/>
        <pt x="582" y="133" on="0"/>
        <pt x="582" y="181" on="1"/>
        <pt x="582" y="576" on="1"/>
        <pt x="504" y="580" on="1"/>
        <pt x="504" y="665" on="1"/>
        <pt x="766" y="665" on="1"/>
        <pt x="766" y="584" on="1"/>
        <pt x="733" y="581" on="1"/>
        <pt x="704" y="578" on="0"/>
        <pt x="704" y="550" on="1"/>
        <pt x="704" y="239" on="1"/>
        <pt x="704" y="168" on="0"/>
      </contour>
    </TTGlyph>
    <TTGlyph name="Iacute" xMin="32" yMin="0" xMax="284" yMax="907">
      <contour>
        <pt x="94" y="117" on="1"/>
        <pt x="94" y="577" on="1"/>
        <pt x="37" y="580" on="1"/>
        <pt x="37" y="665" on="1"/>
        <pt x="279" y="665" on="1"/>
        <pt x="279" y="584" on="1"/>
        <pt x="246" y="581" on="1"/>
        <pt x="217" y="578" on="0"/>
        <pt x="217" y="549" on="1"/>
        <pt x="217" y="88" on="1"/>
        <pt x="274" y="85" on="1"/>
        <pt x="274" y="0" on="1"/>
        <pt x="32" y="0" on="1"/>
        <pt x="32" y="81" on="1"/>
        <pt x="65" y="84" on="1"/>
        <pt x="80" y="86" on="0"/>
        <pt x="94" y="99" on="0"/>
      </contour>
      <contour>
        <pt x="64" y="750" on="1"/>
        <pt x="226" y="907" on="1"/>
        <pt x="266" y="874" on="1"/>
        <pt x="284" y="857" on="0"/>
        <pt x="284" y="841" on="1"/>
        <pt x="284" y="816" on="0"/>
        <pt x="249" y="796" on="1"/>
        <pt x="94" y="709" on="1"/>
      </contour>
    </TTGlyph>
    <TTGlyph name="Ibreve" xMin="-8" yMin="0" xMax="324" yMax="874">
      <contour>
        <pt x="94" y="117" on="1"/>
        <pt x="94" y="577" on="1"/>
        <pt x="37" y="580" on="1"/>
        <pt x="37" y="665" on="1"/>
        <pt x="279" y="665" on="1"/>
        <pt x="279" y="584" on="1"/>
        <pt x="246" y="581" on="1"/>
        <pt x="217" y="578" on="0"/>
        <pt x="217" y="549" on="1"/>
        <pt x="217" y="88" on="1"/>
        <pt x="274" y="85" on="1"/>
        <pt x="274" y="0" on="1"/>
        <pt x="32" y="0" on="1"/>
        <pt x="32" y="81" on="1"/>
        <pt x="65" y="84" on="1"/>
        <pt x="80" y="86" on="0"/>
        <pt x="94" y="99" on="0"/>
      </contour>
      <contour>
        <pt x="258" y="874" on="1"/>
        <pt x="324" y="847" on="1"/>
        <pt x="282" y="720" on="0"/>
        <pt x="27" y="720" on="0"/>
        <pt x="-8" y="846" on="1"/>
        <pt x="59" y="874" on="1"/>
        <pt x="90" y="796" on="0"/>
        <pt x="159" y="796" on="1"/>
        <pt x="196" y="796" on="0"/>
        <pt x="241" y="833" on="0"/>
      </contour>
    </TTGlyph>
    <TTGlyph name="Icircumflex" xMin="-3" yMin="0" xMax="317" yMax="893">
      <contour>
        <pt x="94" y="117" on="1"/>
        <pt x="94" y="577" on="1"/>
        <pt x="37" y="580" on="1"/>
        <pt x="37" y="665" on="1"/>
        <pt x="279" y="665" on="1"/>
        <pt x="279" y="584" on="1"/>
        <pt x="246" y="581" on="1"/>
        <pt x="217" y="578" on="0"/>
        <pt x="217" y="549" on="1"/>
        <pt x="217" y="88" on="1"/>
        <pt x="274" y="85" on="1"/>
        <pt x="274" y="0" on="1"/>
        <pt x="32" y="0" on="1"/>
        <pt x="32" y="81" on="1"/>
        <pt x="65" y="84" on="1"/>
        <pt x="80" y="86" on="0"/>
        <pt x="94" y="99" on="0"/>
      </contour>
      <contour>
        <pt x="38" y="708" on="1"/>
        <pt x="-3" y="742" on="1"/>
        <pt x="115" y="870" on="1"/>
        <pt x="136" y="893" on="0"/>
        <pt x="157" y="893" on="1"/>
        <pt x="197" y="872" on="1"/>
        <pt x="317" y="743" on="1"/>
        <pt x="276" y="708" on="1"/>
        <pt x="156" y="794" on="1"/>
      </contour>
    </TTGlyph>
    <TTGlyph name="Idieresis" xMin="-10" yMin="0" xMax="328" yMax="854">
      <contour>
        <pt x="94" y="117" on="1"/>
        <pt x="94" y="577" on="1"/>
        <pt x="37" y="580" on="1"/>
        <pt x="37" y="665" on="1"/>
        <pt x="279" y="665" on="1"/>
        <pt x="279" y="584" on="1"/>
        <pt x="246" y="581" on="1"/>
        <pt x="217" y="578" on="0"/>
        <pt x="217" y="549" on="1"/>
        <pt x="217" y="88" on="1"/>
        <pt x="274" y="85" on="1"/>
        <pt x="274" y="0" on="1"/>
        <pt x="32" y="0" on="1"/>
        <pt x="32" y="81" on="1"/>
        <pt x="65" y="84" on="1"/>
        <pt x="80" y="86" on="0"/>
        <pt x="94" y="99" on="0"/>
      </contour>
      <contour>
        <pt x="228" y="721" on="0"/>
        <pt x="190" y="758" on="0"/>
        <pt x="190" y="815" on="0"/>
        <pt x="229" y="854" on="0"/>
        <pt x="289" y="854" on="0"/>
        <pt x="328" y="815" on="0"/>
        <pt x="328" y="758" on="0"/>
        <pt x="289" y="721" on="0"/>
      </contour>
      <contour>
        <pt x="28" y="721" on="0"/>
        <pt x="-10" y="758" on="0"/>
        <pt x="-10" y="815" on="0"/>
        <pt x="29" y="854" on="0"/>
        <pt x="89" y="854" on="0"/>
        <pt x="128" y="815" on="0"/>
        <pt x="128" y="758" on="0"/>
        <pt x="89" y="721" on="0"/>
      </contour>
    </TTGlyph>
    <TTGlyph name="Idotaccent" xMin="32" yMin="0" xMax="279" yMax="860">
      <contour>
        <pt x="94" y="117" on="1"/>
        <pt x="94" y="577" on="1"/>
        <pt x="37" y="580" on="1"/>
        <pt x="37" y="665" on="1"/>
        <pt x="279" y="665" on="1"/>
        <pt x="279" y="584" on="1"/>
        <pt x="246" y="581" on="1"/>
        <pt x="217" y="578" on="0"/>
        <pt x="217" y="549" on="1"/>
        <pt x="217" y="88" on="1"/>
        <pt x="274" y="85" on="1"/>
        <pt x="274" y="0" on="1"/>
        <pt x="32" y="0" on="1"/>
        <pt x="32" y="81" on="1"/>
        <pt x="65" y="84" on="1"/>
        <pt x="80" y="86" on="0"/>
        <pt x="94" y="99" on="0"/>
      </contour>
      <contour>
        <pt x="127" y="727" on="0"/>
        <pt x="89" y="764" on="0"/>
        <pt x="89" y="821" on="0"/>
        <pt x="128" y="860" on="0"/>
        <pt x="188" y="860" on="0"/>
        <pt x="227" y="821" on="0"/>
        <pt x="227" y="764" on="0"/>
        <pt x="188" y="727" on="0"/>
      </contour>
    </TTGlyph>
    <TTGlyph name="Igrave" xMin="27" yMin="0" xMax="279" yMax="907">
      <contour>
        <pt x="94" y="117" on="1"/>
        <pt x="94" y="577" on="1"/>
        <pt x="37" y="580" on="1"/>
        <pt x="37" y="665" on="1"/>
        <pt x="279" y="665" on="1"/>
        <pt x="279" y="584" on="1"/>
        <pt x="246" y="581" on="1"/>
        <pt x="217" y="578" on="0"/>
        <pt x="217" y="549" on="1"/>
        <pt x="217" y="88" on="1"/>
        <pt x="274" y="85" on="1"/>
        <pt x="274" y="0" on="1"/>
        <pt x="32" y="0" on="1"/>
        <pt x="32" y="81" on="1"/>
        <pt x="65" y="84" on="1"/>
        <pt x="80" y="86" on="0"/>
        <pt x="94" y="99" on="0"/>
      </contour>
      <contour>
        <pt x="86" y="907" on="1"/>
        <pt x="248" y="750" on="1"/>
        <pt x="218" y="709" on="1"/>
        <pt x="63" y="796" on="1"/>
        <pt x="27" y="816" on="0"/>
        <pt x="27" y="856" on="0"/>
        <pt x="46" y="874" on="1"/>
      </contour>
    </TTGlyph>
    <TTGlyph name="Imacron" xMin="12" yMin="0" xMax="299" yMax="821">
      <contour>
        <pt x="94" y="117" on="1"/>
        <pt x="94" y="577" on="1"/>
        <pt x="37" y="580" on="1"/>
        <pt x="37" y="665" on="1"/>
        <pt x="279" y="665" on="1"/>
        <pt x="279" y="584" on="1"/>
        <pt x="246" y="581" on="1"/>
        <pt x="217" y="578" on="0"/>
        <pt x="217" y="549" on="1"/>
        <pt x="217" y="88" on="1"/>
        <pt x="274" y="85" on="1"/>
        <pt x="274" y="0" on="1"/>
        <pt x="32" y="0" on="1"/>
        <pt x="32" y="81" on="1"/>
        <pt x="65" y="84" on="1"/>
        <pt x="80" y="86" on="0"/>
        <pt x="94" y="99" on="0"/>
      </contour>
      <contour>
        <pt x="12" y="734" on="1"/>
        <pt x="12" y="821" on="1"/>
        <pt x="299" y="821" on="1"/>
        <pt x="299" y="734" on="1"/>
      </contour>
    </TTGlyph>
    <TTGlyph name="Iogonek" xMin="32" yMin="-214" xMax="279" yMax="665">
      <contour>
        <pt x="94" y="117" on="1"/>
        <pt x="94" y="577" on="1"/>
        <pt x="37" y="580" on="1"/>
        <pt x="37" y="665" on="1"/>
        <pt x="279" y="665" on="1"/>
        <pt x="279" y="584" on="1"/>
        <pt x="246" y="581" on="1"/>
        <pt x="217" y="578" on="0"/>
        <pt x="217" y="549" on="1"/>
        <pt x="217" y="88" on="1"/>
        <pt x="274" y="85" on="1"/>
        <pt x="274" y="0" on="1"/>
        <pt x="168" y="-41" on="0"/>
        <pt x="168" y="-97" on="1"/>
        <pt x="168" y="-135" on="0"/>
        <pt x="209" y="-135" on="1"/>
        <pt x="231" y="-135" on="0"/>
        <pt x="256" y="-124" on="1"/>
        <pt x="278" y="-190" on="1"/>
        <pt x="228" y="-214" on="0"/>
        <pt x="119" y="-214" on="0"/>
        <pt x="68" y="-159" on="0"/>
        <pt x="68" y="-78" on="0"/>
        <pt x="113" y="-30" on="0"/>
        <pt x="155" y="-7" on="1"/>
        <pt x="155" y="0" on="1"/>
        <pt x="32" y="0" on="1"/>
        <pt x="32" y="81" on="1"/>
        <pt x="65" y="84" on="1"/>
        <pt x="80" y="86" on="0"/>
        <pt x="94" y="99" on="0"/>
      </contour>
    </TTGlyph>
    <TTGlyph name="Itilde" xMin="-5" yMin="0" xMax="329" yMax="846">
      <contour>
        <pt x="94" y="117" on="1"/>
        <pt x="94" y="577" on="1"/>
        <pt x="37" y="580" on="1"/>
        <pt x="37" y="665" on="1"/>
        <pt x="279" y="665" on="1"/>
        <pt x="279" y="584" on="1"/>
        <pt x="246" y="581" on="1"/>
        <pt x="217" y="578" on="0"/>
        <pt x="217" y="549" on="1"/>
        <pt x="217" y="88" on="1"/>
        <pt x="274" y="85" on="1"/>
        <pt x="274" y="0" on="1"/>
        <pt x="32" y="0" on="1"/>
        <pt x="32" y="81" on="1"/>
        <pt x="65" y="84" on="1"/>
        <pt x="80" y="86" on="0"/>
        <pt x="94" y="99" on="0"/>
      </contour>
      <contour>
        <pt x="43" y="728" on="1"/>
        <pt x="-5" y="763" on="1"/>
        <pt x="31" y="842" on="0"/>
        <pt x="97" y="842" on="1"/>
        <pt x="121" y="842" on="0"/>
        <pt x="213" y="814" on="0"/>
        <pt x="256" y="814" on="0"/>
        <pt x="275" y="846" on="1"/>
        <pt x="329" y="817" on="1"/>
        <pt x="296" y="730" on="0"/>
        <pt x="226" y="730" on="1"/>
        <pt x="204" y="730" on="0"/>
        <pt x="116" y="757" on="0"/>
        <pt x="81" y="757" on="0"/>
        <pt x="59" y="746" on="0"/>
      </contour>
    </TTGlyph>
    <TTGlyph name="J" xMin="28" yMin="-13" xMax="459" yMax="665">
      <contour>
        <pt x="393" y="134" on="1"/>
        <pt x="376" y="-13" on="0"/>
        <pt x="196" y="-13" on="1"/>
        <pt x="102" y="-13" on="0"/>
        <pt x="28" y="29" on="1"/>
        <pt x="28" y="204" on="1"/>
        <pt x="130" y="211" on="1"/>
        <pt x="130" y="132" on="1"/>
        <pt x="130" y="117" on="0"/>
        <pt x="138" y="103" on="0"/>
        <pt x="172" y="90" on="0"/>
        <pt x="243" y="90" on="0"/>
        <pt x="275" y="133" on="0"/>
        <pt x="275" y="181" on="1"/>
        <pt x="275" y="576" on="1"/>
        <pt x="197" y="580" on="1"/>
        <pt x="197" y="665" on="1"/>
        <pt x="459" y="665" on="1"/>
        <pt x="459" y="584" on="1"/>
        <pt x="426" y="581" on="1"/>
        <pt x="397" y="578" on="0"/>
        <pt x="397" y="550" on="1"/>
        <pt x="397" y="239" on="1"/>
        <pt x="397" y="168" on="0"/>
      </contour>
    </TTGlyph>
    <TTGlyph name="Jcircumflex" xMin="28" yMin="-13" xMax="487" yMax="894">
      <contour>
        <pt x="393" y="134" on="1"/>
        <pt x="376" y="-13" on="0"/>
        <pt x="196" y="-13" on="1"/>
        <pt x="102" y="-13" on="0"/>
        <pt x="28" y="29" on="1"/>
        <pt x="28" y="204" on="1"/>
        <pt x="130" y="211" on="1"/>
        <pt x="130" y="132" on="1"/>
        <pt x="130" y="117" on="0"/>
        <pt x="138" y="103" on="0"/>
        <pt x="172" y="90" on="0"/>
        <pt x="243" y="90" on="0"/>
        <pt x="275" y="133" on="0"/>
        <pt x="275" y="181" on="1"/>
        <pt x="275" y="576" on="1"/>
        <pt x="197" y="580" on="1"/>
        <pt x="197" y="665" on="1"/>
        <pt x="459" y="665" on="1"/>
        <pt x="459" y="584" on="1"/>
        <pt x="426" y="581" on="1"/>
        <pt x="397" y="578" on="0"/>
        <pt x="397" y="550" on="1"/>
        <pt x="397" y="239" on="1"/>
        <pt x="397" y="168" on="0"/>
      </contour>
      <contour>
        <pt x="208" y="709" on="1"/>
        <pt x="167" y="743" on="1"/>
        <pt x="285" y="871" on="1"/>
        <pt x="306" y="894" on="0"/>
        <pt x="327" y="894" on="1"/>
        <pt x="367" y="873" on="1"/>
        <pt x="487" y="744" on="1"/>
        <pt x="446" y="709" on="1"/>
        <pt x="326" y="795" on="1"/>
      </contour>
    </TTGlyph>
    <TTGlyph name="K" xMin="32" yMin="0" xMax="612" yMax="665">
      <contour>
        <pt x="94" y="117" on="1"/>
        <pt x="94" y="577" on="1"/>
        <pt x="37" y="580" on="1"/>
        <pt x="37" y="665" on="1"/>
        <pt x="277" y="665" on="1"/>
        <pt x="277" y="584" on="1"/>
        <pt x="244" y="581" on="1"/>
        <pt x="215" y="578" on="0"/>
        <pt x="215" y="549" on="1"/>
        <pt x="215" y="329" on="1"/>
        <pt x="419" y="577" on="1"/>
        <pt x="363" y="580" on="1"/>
        <pt x="363" y="665" on="1"/>
        <pt x="597" y="665" on="1"/>
        <pt x="597" y="584" on="1"/>
        <pt x="564" y="581" on="1"/>
        <pt x="545" y="579" on="0"/>
        <pt x="524" y="553" on="1"/>
        <pt x="382" y="379" on="1"/>
        <pt x="559" y="88" on="1"/>
        <pt x="612" y="85" on="1"/>
        <pt x="612" y="0" on="1"/>
        <pt x="356" y="0" on="1"/>
        <pt x="356" y="81" on="1"/>
        <pt x="387" y="84" on="1"/>
        <pt x="407" y="86" on="0"/>
        <pt x="407" y="100" on="1"/>
        <pt x="407" y="106" on="0"/>
        <pt x="402" y="116" on="1"/>
        <pt x="303" y="287" on="1"/>
        <pt x="215" y="181" on="1"/>
        <pt x="215" y="88" on="1"/>
        <pt x="272" y="85" on="1"/>
        <pt x="272" y="0" on="1"/>
        <pt x="32" y="0" on="1"/>
        <pt x="32" y="81" on="1"/>
        <pt x="65" y="84" on="1"/>
        <pt x="80" y="86" on="0"/>
        <pt x="94" y="99" on="0"/>
      </contour>
    </TTGlyph>
    <TTGlyph name="Kcommaaccent" xMin="32" yMin="-281" xMax="612" yMax="665">
      <contour>
        <pt x="94" y="117" on="1"/>
        <pt x="94" y="577" on="1"/>
        <pt x="37" y="580" on="1"/>
        <pt x="37" y="665" on="1"/>
        <pt x="277" y="665" on="1"/>
        <pt x="277" y="584" on="1"/>
        <pt x="244" y="581" on="1"/>
        <pt x="215" y="578" on="0"/>
        <pt x="215" y="549" on="1"/>
        <pt x="215" y="329" on="1"/>
        <pt x="419" y="577" on="1"/>
        <pt x="363" y="580" on="1"/>
        <pt x="363" y="665" on="1"/>
        <pt x="597" y="665" on="1"/>
        <pt x="597" y="584" on="1"/>
        <pt x="564" y="581" on="1"/>
        <pt x="545" y="579" on="0"/>
        <pt x="524" y="553" on="1"/>
        <pt x="382" y="379" on="1"/>
        <pt x="559" y="88" on="1"/>
        <pt x="612" y="85" on="1"/>
        <pt x="612" y="0" on="1"/>
        <pt x="356" y="0" on="1"/>
        <pt x="356" y="81" on="1"/>
        <pt x="387" y="84" on="1"/>
        <pt x="407" y="86" on="0"/>
        <pt x="407" y="100" on="1"/>
        <pt x="407" y="106" on="0"/>
        <pt x="402" y="116" on="1"/>
        <pt x="303" y="287" on="1"/>
        <pt x="215" y="181" on="1"/>
        <pt x="215" y="88" on="1"/>
        <pt x="272" y="85" on="1"/>
        <pt x="272" y="0" on="1"/>
        <pt x="32" y="0" on="1"/>
        <pt x="32" y="81" on="1"/>
        <pt x="65" y="84" on="1"/>
        <pt x="80" y="86" on="0"/>
        <pt x="94" y="99" on="0"/>
      </contour>
      <contour>
        <pt x="279" y="-61" on="1"/>
        <pt x="328" y="-71" on="1"/>
        <pt x="360" y="-77" on="0"/>
        <pt x="365" y="-100" on="1"/>
        <pt x="366" y="-104" on="0"/>
        <pt x="366" y="-127" on="0"/>
        <pt x="352" y="-146" on="1"/>
        <pt x="266" y="-281" on="1"/>
        <pt x="220" y="-259" on="1"/>
      </contour>
    </TTGlyph>
    <TTGlyph name="L" xMin="32" yMin="0" xMax="507" yMax="665">
      <contour>
        <pt x="507" y="0" on="1"/>
        <pt x="32" y="0" on="1"/>
        <pt x="32" y="81" on="1"/>
        <pt x="65" y="84" on="1"/>
        <pt x="94" y="87" on="0"/>
        <pt x="94" y="112" on="1"/>
        <pt x="94" y="577" on="1"/>
        <pt x="37" y="580" on="1"/>
        <pt x="37" y="665" on="1"/>
        <pt x="278" y="665" on="1"/>
        <pt x="278" y="584" on="1"/>
        <pt x="245" y="581" on="1"/>
        <pt x="216" y="578" on="0"/>
        <pt x="216" y="549" on="1"/>
        <pt x="216" y="103" on="1"/>
        <pt x="382" y="103" on="1"/>
        <pt x="396" y="103" on="0"/>
        <pt x="405" y="118" on="0"/>
        <pt x="405" y="135" on="1"/>
        <pt x="405" y="205" on="1"/>
        <pt x="507" y="198" on="1"/>
      </contour>
    </TTGlyph>
    <TTGlyph name="Lacute" xMin="32" yMin="0" xMax="507" yMax="907">
      <contour>
        <pt x="507" y="0" on="1"/>
        <pt x="32" y="0" on="1"/>
        <pt x="32" y="81" on="1"/>
        <pt x="65" y="84" on="1"/>
        <pt x="94" y="87" on="0"/>
        <pt x="94" y="112" on="1"/>
        <pt x="94" y="577" on="1"/>
        <pt x="37" y="580" on="1"/>
        <pt x="37" y="665" on="1"/>
        <pt x="278" y="665" on="1"/>
        <pt x="278" y="584" on="1"/>
        <pt x="245" y="581" on="1"/>
        <pt x="216" y="578" on="0"/>
        <pt x="216" y="549" on="1"/>
        <pt x="216" y="103" on="1"/>
        <pt x="382" y="103" on="1"/>
        <pt x="396" y="103" on="0"/>
        <pt x="405" y="118" on="0"/>
        <pt x="405" y="135" on="1"/>
        <pt x="405" y="205" on="1"/>
        <pt x="507" y="198" on="1"/>
      </contour>
      <contour>
        <pt x="58" y="750" on="1"/>
        <pt x="220" y="907" on="1"/>
        <pt x="260" y="874" on="1"/>
        <pt x="278" y="857" on="0"/>
        <pt x="278" y="841" on="1"/>
        <pt x="278" y="816" on="0"/>
        <pt x="243" y="796" on="1"/>
        <pt x="88" y="709" on="1"/>
      </contour>
    </TTGlyph>
    <TTGlyph name="Lcaron" xMin="32" yMin="0" xMax="507" yMax="665">
      <contour>
        <pt x="507" y="0" on="1"/>
        <pt x="32" y="0" on="1"/>
        <pt x="32" y="81" on="1"/>
        <pt x="65" y="84" on="1"/>
        <pt x="94" y="87" on="0"/>
        <pt x="94" y="112" on="1"/>
        <pt x="94" y="577" on="1"/>
        <pt x="37" y="580" on="1"/>
        <pt x="37" y="665" on="1"/>
        <pt x="278" y="665" on="1"/>
        <pt x="278" y="584" on="1"/>
        <pt x="245" y="581" on="1"/>
        <pt x="216" y="578" on="0"/>
        <pt x="216" y="549" on="1"/>
        <pt x="216" y="103" on="1"/>
        <pt x="382" y="103" on="1"/>
        <pt x="396" y="103" on="0"/>
        <pt x="405" y="118" on="0"/>
        <pt x="405" y="135" on="1"/>
        <pt x="405" y="205" on="1"/>
        <pt x="507" y="198" on="1"/>
      </contour>
      <contour>
        <pt x="420" y="663" on="1"/>
        <pt x="460" y="663" on="0"/>
        <pt x="460" y="623" on="1"/>
        <pt x="460" y="611" on="0"/>
        <pt x="456" y="597" on="1"/>
        <pt x="410" y="438" on="1"/>
        <pt x="362" y="447" on="1"/>
        <pt x="362" y="658" on="1"/>
        <pt x="412" y="663" on="1"/>
        <pt x="416" y="663" on="0"/>
      </contour>
    </TTGlyph>
    <TTGlyph name="Lcommaaccent" xMin="32" yMin="-281" xMax="507" yMax="665">
      <contour>
        <pt x="507" y="0" on="1"/>
        <pt x="32" y="0" on="1"/>
        <pt x="32" y="81" on="1"/>
        <pt x="65" y="84" on="1"/>
        <pt x="94" y="87" on="0"/>
        <pt x="94" y="112" on="1"/>
        <pt x="94" y="577" on="1"/>
        <pt x="37" y="580" on="1"/>
        <pt x="37" y="665" on="1"/>
        <pt x="278" y="665" on="1"/>
        <pt x="278" y="584" on="1"/>
        <pt x="245" y="581" on="1"/>
        <pt x="216" y="578" on="0"/>
        <pt x="216" y="549" on="1"/>
        <pt x="216" y="103" on="1"/>
        <pt x="382" y="103" on="1"/>
        <pt x="396" y="103" on="0"/>
        <pt x="405" y="118" on="0"/>
        <pt x="405" y="135" on="1"/>
        <pt x="405" y="205" on="1"/>
        <pt x="507" y="198" on="1"/>
      </contour>
      <contour>
        <pt x="257" y="-61" on="1"/>
        <pt x="306" y="-71" on="1"/>
        <pt x="338" y="-77" on="0"/>
        <pt x="343" y="-100" on="1"/>
        <pt x="344" y="-104" on="0"/>
        <pt x="344" y="-127" on="0"/>
        <pt x="330" y="-146" on="1"/>
        <pt x="244" y="-281" on="1"/>
        <pt x="198" y="-259" on="1"/>
      </contour>
    </TTGlyph>
    <TTGlyph name="Ldot" xMin="32" yMin="0" xMax="507" yMax="665">
      <contour>
        <pt x="507" y="0" on="1"/>
        <pt x="32" y="0" on="1"/>
        <pt x="32" y="81" on="1"/>
        <pt x="65" y="84" on="1"/>
        <pt x="94" y="87" on="0"/>
        <pt x="94" y="112" on="1"/>
        <pt x="94" y="577" on="1"/>
        <pt x="37" y="580" on="1"/>
        <pt x="37" y="665" on="1"/>
        <pt x="278" y="665" on="1"/>
        <pt x="278" y="584" on="1"/>
        <pt x="245" y="581" on="1"/>
        <pt x="216" y="578" on="0"/>
        <pt x="216" y="549" on="1"/>
        <pt x="216" y="103" on="1"/>
        <pt x="382" y="103" on="1"/>
        <pt x="396" y="103" on="0"/>
        <pt x="405" y="118" on="0"/>
        <pt x="405" y="135" on="1"/>
        <pt x="405" y="205" on="1"/>
        <pt x="507" y="198" on="1"/>
      </contour>
      <contour>
        <pt x="376" y="314" on="0"/>
        <pt x="338" y="351" on="0"/>
        <pt x="338" y="408" on="0"/>
        <pt x="377" y="447" on="0"/>
        <pt x="437" y="447" on="0"/>
        <pt x="476" y="408" on="0"/>
        <pt x="476" y="351" on="0"/>
        <pt x="437" y="314" on="0"/>
      </contour>
    </TTGlyph>
    <TTGlyph name="Lslash" xMin="5" yMin="0" xMax="507" yMax="665">
      <contour>
        <pt x="507" y="0" on="1"/>
        <pt x="32" y="0" on="1"/>
        <pt x="32" y="81" on="1"/>
        <pt x="65" y="84" on="1"/>
        <pt x="94" y="87" on="0"/>
        <pt x="94" y="112" on="1"/>
        <pt x="94" y="244" on="1"/>
        <pt x="28" y="208" on="1"/>
        <pt x="5" y="295" on="1"/>
        <pt x="94" y="343" on="1"/>
        <pt x="94" y="577" on="1"/>
        <pt x="37" y="580" on="1"/>
        <pt x="37" y="665" on="1"/>
        <pt x="278" y="665" on="1"/>
        <pt x="278" y="584" on="1"/>
        <pt x="245" y="581" on="1"/>
        <pt x="216" y="578" on="0"/>
        <pt x="216" y="549" on="1"/>
        <pt x="216" y="394" on="1"/>
        <pt x="401" y="491" on="1"/>
        <pt x="425" y="403" on="1"/>
        <pt x="216" y="295" on="1"/>
        <pt x="216" y="103" on="1"/>
        <pt x="382" y="103" on="1"/>
        <pt x="396" y="103" on="0"/>
        <pt x="405" y="118" on="0"/>
        <pt x="405" y="135" on="1"/>
        <pt x="405" y="205" on="1"/>
        <pt x="507" y="198" on="1"/>
      </contour>
    </TTGlyph>
    <TTGlyph name="M" xMin="20" yMin="0" xMax="814" yMax="665">
      <contour>
        <pt x="248" y="665" on="1"/>
        <pt x="418" y="213" on="1"/>
        <pt x="420" y="213" on="1"/>
        <pt x="591" y="665" on="1"/>
        <pt x="789" y="665" on="1"/>
        <pt x="789" y="584" on="1"/>
        <pt x="756" y="581" on="1"/>
        <pt x="726" y="578" on="0"/>
        <pt x="727" y="546" on="1"/>
        <pt x="752" y="88" on="1"/>
        <pt x="814" y="85" on="1"/>
        <pt x="814" y="0" on="1"/>
        <pt x="573" y="0" on="1"/>
        <pt x="573" y="81" on="1"/>
        <pt x="609" y="84" on="1"/>
        <pt x="636" y="86" on="0"/>
        <pt x="635" y="110" on="1"/>
        <pt x="616" y="463" on="1"/>
        <pt x="614" y="463" on="1"/>
        <pt x="460" y="64" on="1"/>
        <pt x="365" y="64" on="1"/>
        <pt x="213" y="459" on="1"/>
        <pt x="211" y="459" on="1"/>
        <pt x="191" y="88" on="1"/>
        <pt x="256" y="85" on="1"/>
        <pt x="256" y="0" on="1"/>
        <pt x="20" y="0" on="1"/>
        <pt x="20" y="81" on="1"/>
        <pt x="56" y="84" on="1"/>
        <pt x="79" y="86" on="0"/>
        <pt x="81" y="111" on="1"/>
        <pt x="108" y="576" on="1"/>
        <pt x="47" y="580" on="1"/>
        <pt x="47" y="665" on="1"/>
      </contour>
    </TTGlyph>
    <TTGlyph name="N" xMin="32" yMin="0" xMax="680" yMax="665">
      <contour>
        <pt x="32" y="0" on="1"/>
        <pt x="32" y="81" on="1"/>
        <pt x="68" y="84" on="1"/>
        <pt x="94" y="86" on="0"/>
        <pt x="94" y="112" on="1"/>
        <pt x="94" y="577" on="1"/>
        <pt x="37" y="580" on="1"/>
        <pt x="37" y="665" on="1"/>
        <pt x="217" y="665" on="1"/>
        <pt x="500" y="206" on="1"/>
        <pt x="502" y="206" on="1"/>
        <pt x="502" y="577" on="1"/>
        <pt x="436" y="580" on="1"/>
        <pt x="436" y="665" on="1"/>
        <pt x="680" y="665" on="1"/>
        <pt x="680" y="584" on="1"/>
        <pt x="644" y="581" on="1"/>
        <pt x="620" y="579" on="0"/>
        <pt x="620" y="550" on="1"/>
        <pt x="620" y="0" on="1"/>
        <pt x="503" y="0" on="1"/>
        <pt x="214" y="466" on="1"/>
        <pt x="212" y="466" on="1"/>
        <pt x="212" y="88" on="1"/>
        <pt x="277" y="85" on="1"/>
        <pt x="277" y="0" on="1"/>
      </contour>
    </TTGlyph>
    <TTGlyph name="Nacute" xMin="32" yMin="0" xMax="680" yMax="907">
      <contour>
        <pt x="32" y="0" on="1"/>
        <pt x="32" y="81" on="1"/>
        <pt x="68" y="84" on="1"/>
        <pt x="94" y="86" on="0"/>
        <pt x="94" y="112" on="1"/>
        <pt x="94" y="577" on="1"/>
        <pt x="37" y="580" on="1"/>
        <pt x="37" y="665" on="1"/>
        <pt x="217" y="665" on="1"/>
        <pt x="500" y="206" on="1"/>
        <pt x="502" y="206" on="1"/>
        <pt x="502" y="577" on="1"/>
        <pt x="436" y="580" on="1"/>
        <pt x="436" y="665" on="1"/>
        <pt x="680" y="665" on="1"/>
        <pt x="680" y="584" on="1"/>
        <pt x="644" y="581" on="1"/>
        <pt x="620" y="579" on="0"/>
        <pt x="620" y="550" on="1"/>
        <pt x="620" y="0" on="1"/>
        <pt x="503" y="0" on="1"/>
        <pt x="214" y="466" on="1"/>
        <pt x="212" y="466" on="1"/>
        <pt x="212" y="88" on="1"/>
        <pt x="277" y="85" on="1"/>
        <pt x="277" y="0" on="1"/>
      </contour>
      <contour>
        <pt x="269" y="750" on="1"/>
        <pt x="431" y="907" on="1"/>
        <pt x="471" y="874" on="1"/>
        <pt x="489" y="857" on="0"/>
        <pt x="489" y="841" on="1"/>
        <pt x="489" y="816" on="0"/>
        <pt x="454" y="796" on="1"/>
        <pt x="299" y="709" on="1"/>
      </contour>
    </TTGlyph>
    <TTGlyph name="Ncaron" xMin="32" yMin="0" xMax="680" yMax="893">
      <contour>
        <pt x="32" y="0" on="1"/>
        <pt x="32" y="81" on="1"/>
        <pt x="68" y="84" on="1"/>
        <pt x="94" y="86" on="0"/>
        <pt x="94" y="112" on="1"/>
        <pt x="94" y="577" on="1"/>
        <pt x="37" y="580" on="1"/>
        <pt x="37" y="665" on="1"/>
        <pt x="217" y="665" on="1"/>
        <pt x="500" y="206" on="1"/>
        <pt x="502" y="206" on="1"/>
        <pt x="502" y="577" on="1"/>
        <pt x="436" y="580" on="1"/>
        <pt x="436" y="665" on="1"/>
        <pt x="680" y="665" on="1"/>
        <pt x="680" y="584" on="1"/>
        <pt x="644" y="581" on="1"/>
        <pt x="620" y="579" on="0"/>
        <pt x="620" y="550" on="1"/>
        <pt x="620" y="0" on="1"/>
        <pt x="503" y="0" on="1"/>
        <pt x="214" y="466" on="1"/>
        <pt x="212" y="466" on="1"/>
        <pt x="212" y="88" on="1"/>
        <pt x="277" y="85" on="1"/>
        <pt x="277" y="0" on="1"/>
      </contour>
      <contour>
        <pt x="470" y="893" on="1"/>
        <pt x="511" y="859" on="1"/>
        <pt x="393" y="731" on="1"/>
        <pt x="372" y="708" on="0"/>
        <pt x="351" y="708" on="1"/>
        <pt x="311" y="729" on="1"/>
        <pt x="191" y="858" on="1"/>
        <pt x="232" y="893" on="1"/>
        <pt x="352" y="807" on="1"/>
      </contour>
    </TTGlyph>
    <TTGlyph name="Ncommaaccent" xMin="32" yMin="-281" xMax="680" yMax="665">
      <contour>
        <pt x="32" y="0" on="1"/>
        <pt x="32" y="81" on="1"/>
        <pt x="68" y="84" on="1"/>
        <pt x="94" y="86" on="0"/>
        <pt x="94" y="112" on="1"/>
        <pt x="94" y="577" on="1"/>
        <pt x="37" y="580" on="1"/>
        <pt x="37" y="665" on="1"/>
        <pt x="217" y="665" on="1"/>
        <pt x="500" y="206" on="1"/>
        <pt x="502" y="206" on="1"/>
        <pt x="502" y="577" on="1"/>
        <pt x="436" y="580" on="1"/>
        <pt x="436" y="665" on="1"/>
        <pt x="680" y="665" on="1"/>
        <pt x="680" y="584" on="1"/>
        <pt x="644" y="581" on="1"/>
        <pt x="620" y="579" on="0"/>
        <pt x="620" y="550" on="1"/>
        <pt x="620" y="0" on="1"/>
        <pt x="503" y="0" on="1"/>
        <pt x="214" y="466" on="1"/>
        <pt x="212" y="466" on="1"/>
        <pt x="212" y="88" on="1"/>
        <pt x="277" y="85" on="1"/>
        <pt x="277" y="0" on="1"/>
      </contour>
      <contour>
        <pt x="313" y="-61" on="1"/>
        <pt x="362" y="-71" on="1"/>
        <pt x="394" y="-77" on="0"/>
        <pt x="399" y="-100" on="1"/>
        <pt x="400" y="-104" on="0"/>
        <pt x="400" y="-127" on="0"/>
        <pt x="386" y="-146" on="1"/>
        <pt x="300" y="-281" on="1"/>
        <pt x="254" y="-259" on="1"/>
      </contour>
    </TTGlyph>
    <TTGlyph name="Ntilde" xMin="32" yMin="0" xMax="680" yMax="846">
      <contour>
        <pt x="32" y="0" on="1"/>
        <pt x="32" y="81" on="1"/>
        <pt x="68" y="84" on="1"/>
        <pt x="94" y="86" on="0"/>
        <pt x="94" y="112" on="1"/>
        <pt x="94" y="577" on="1"/>
        <pt x="37" y="580" on="1"/>
        <pt x="37" y="665" on="1"/>
        <pt x="217" y="665" on="1"/>
        <pt x="500" y="206" on="1"/>
        <pt x="502" y="206" on="1"/>
        <pt x="502" y="577" on="1"/>
        <pt x="436" y="580" on="1"/>
        <pt x="436" y="665" on="1"/>
        <pt x="680" y="665" on="1"/>
        <pt x="680" y="584" on="1"/>
        <pt x="644" y="581" on="1"/>
        <pt x="620" y="579" on="0"/>
        <pt x="620" y="550" on="1"/>
        <pt x="620" y="0" on="1"/>
        <pt x="503" y="0" on="1"/>
        <pt x="214" y="466" on="1"/>
        <pt x="212" y="466" on="1"/>
        <pt x="212" y="88" on="1"/>
        <pt x="277" y="85" on="1"/>
        <pt x="277" y="0" on="1"/>
      </contour>
      <contour>
        <pt x="222" y="728" on="1"/>
        <pt x="174" y="763" on="1"/>
        <pt x="210" y="842" on="0"/>
        <pt x="276" y="842" on="1"/>
        <pt x="300" y="842" on="0"/>
        <pt x="392" y="814" on="0"/>
        <pt x="435" y="814" on="0"/>
        <pt x="454" y="846" on="1"/>
        <pt x="508" y="817" on="1"/>
        <pt x="475" y="730" on="0"/>
        <pt x="405" y="730" on="1"/>
        <pt x="384" y="730" on="0"/>
        <pt x="296" y="757" on="0"/>
        <pt x="260" y="757" on="0"/>
        <pt x="238" y="746" on="0"/>
      </contour>
    </TTGlyph>
    <TTGlyph name="O" xMin="40" yMin="-13" xMax="624" yMax="677">
      <contour>
        <pt x="464" y="677" on="0"/>
        <pt x="624" y="509" on="0"/>
        <pt x="624" y="164" on="0"/>
        <pt x="465" y="-13" on="0"/>
        <pt x="194" y="-13" on="0"/>
        <pt x="40" y="163" on="0"/>
        <pt x="40" y="331" on="1"/>
        <pt x="40" y="423" on="0"/>
        <pt x="94" y="562" on="0"/>
        <pt x="138" y="600" on="1"/>
        <pt x="227" y="677" on="0"/>
      </contour>
      <contour>
        <pt x="165" y="336" on="1"/>
        <pt x="165" y="88" on="0"/>
        <pt x="337" y="88" on="1"/>
        <pt x="429" y="88" on="0"/>
        <pt x="466" y="164" on="1"/>
        <pt x="500" y="231" on="0"/>
        <pt x="500" y="328" on="1"/>
        <pt x="500" y="415" on="0"/>
        <pt x="470" y="488" on="1"/>
        <pt x="453" y="528" on="0"/>
        <pt x="384" y="574" on="0"/>
        <pt x="274" y="574" on="0"/>
        <pt x="195" y="502" on="0"/>
        <pt x="165" y="400" on="0"/>
      </contour>
    </TTGlyph>
    <TTGlyph name="OE" xMin="40" yMin="-13" xMax="846" yMax="677">
      <contour>
        <pt x="834" y="665" on="1"/>
        <pt x="834" y="499" on="1"/>
        <pt x="732" y="492" on="1"/>
        <pt x="732" y="532" on="1"/>
        <pt x="732" y="549" on="0"/>
        <pt x="722" y="563" on="0"/>
        <pt x="703" y="563" on="1"/>
        <pt x="555" y="563" on="1"/>
        <pt x="555" y="392" on="1"/>
        <pt x="786" y="392" on="1"/>
        <pt x="786" y="290" on="1"/>
        <pt x="555" y="290" on="1"/>
        <pt x="555" y="103" on="1"/>
        <pt x="716" y="103" on="1"/>
        <pt x="734" y="103" on="0"/>
        <pt x="744" y="118" on="0"/>
        <pt x="744" y="135" on="1"/>
        <pt x="744" y="185" on="1"/>
        <pt x="846" y="178" on="1"/>
        <pt x="846" y="0" on="1"/>
        <pt x="444" y="0" on="1"/>
        <pt x="390" y="-13" on="0"/>
        <pt x="332" y="-13" on="1"/>
        <pt x="193" y="-13" on="0"/>
        <pt x="40" y="163" on="0"/>
        <pt x="40" y="332" on="1"/>
        <pt x="40" y="406" on="0"/>
        <pt x="76" y="526" on="0"/>
        <pt x="135" y="603" on="0"/>
        <pt x="175" y="629" on="1"/>
        <pt x="249" y="677" on="0"/>
        <pt x="345" y="677" on="1"/>
        <pt x="391" y="677" on="0"/>
        <pt x="444" y="665" on="1"/>
      </contour>
      <contour>
        <pt x="165" y="337" on="1"/>
        <pt x="165" y="205" on="0"/>
        <pt x="219" y="142" on="1"/>
        <pt x="265" y="88" on="0"/>
        <pt x="347" y="88" on="1"/>
        <pt x="398" y="88" on="0"/>
        <pt x="433" y="103" on="1"/>
        <pt x="433" y="555" on="1"/>
        <pt x="387" y="575" on="0"/>
        <pt x="345" y="575" on="1"/>
        <pt x="254" y="575" on="0"/>
        <pt x="165" y="437" on="0"/>
      </contour>
    </TTGlyph>
    <TTGlyph name="Oacute" xMin="40" yMin="-13" xMax="624" yMax="907">
      <contour>
        <pt x="464" y="677" on="0"/>
        <pt x="624" y="509" on="0"/>
        <pt x="624" y="164" on="0"/>
        <pt x="465" y="-13" on="0"/>
        <pt x="194" y="-13" on="0"/>
        <pt x="40" y="163" on="0"/>
        <pt x="40" y="331" on="1"/>
        <pt x="40" y="423" on="0"/>
        <pt x="94" y="562" on="0"/>
        <pt x="138" y="600" on="1"/>
        <pt x="227" y="677" on="0"/>
      </contour>
      <contour>
        <pt x="165" y="336" on="1"/>
        <pt x="165" y="88" on="0"/>
        <pt x="337" y="88" on="1"/>
        <pt x="429" y="88" on="0"/>
        <pt x="466" y="164" on="1"/>
        <pt x="500" y="231" on="0"/>
        <pt x="500" y="328" on="1"/>
        <pt x="500" y="415" on="0"/>
        <pt x="470" y="488" on="1"/>
        <pt x="453" y="528" on="0"/>
        <pt x="384" y="574" on="0"/>
        <pt x="274" y="574" on="0"/>
        <pt x="195" y="502" on="0"/>
        <pt x="165" y="400" on="0"/>
      </contour>
      <contour>
        <pt x="237" y="750" on="1"/>
        <pt x="399" y="907" on="1"/>
        <pt x="439" y="874" on="1"/>
        <pt x="457" y="857" on="0"/>
        <pt x="457" y="841" on="1"/>
        <pt x="457" y="816" on="0"/>
        <pt x="422" y="796" on="1"/>
        <pt x="267" y="709" on="1"/>
      </contour>
    </TTGlyph>
    <TTGlyph name="Obreve" xMin="40" yMin="-13" xMax="624" yMax="874">
      <contour>
        <pt x="464" y="677" on="0"/>
        <pt x="624" y="509" on="0"/>
        <pt x="624" y="164" on="0"/>
        <pt x="465" y="-13" on="0"/>
        <pt x="194" y="-13" on="0"/>
        <pt x="40" y="163" on="0"/>
        <pt x="40" y="331" on="1"/>
        <pt x="40" y="423" on="0"/>
        <pt x="94" y="562" on="0"/>
        <pt x="138" y="600" on="1"/>
        <pt x="227" y="677" on="0"/>
      </contour>
      <contour>
        <pt x="165" y="336" on="1"/>
        <pt x="165" y="88" on="0"/>
        <pt x="337" y="88" on="1"/>
        <pt x="429" y="88" on="0"/>
        <pt x="466" y="164" on="1"/>
        <pt x="500" y="231" on="0"/>
        <pt x="500" y="328" on="1"/>
        <pt x="500" y="415" on="0"/>
        <pt x="470" y="488" on="1"/>
        <pt x="453" y="528" on="0"/>
        <pt x="384" y="574" on="0"/>
        <pt x="274" y="574" on="0"/>
        <pt x="195" y="502" on="0"/>
        <pt x="165" y="400" on="0"/>
      </contour>
      <contour>
        <pt x="435" y="874" on="1"/>
        <pt x="501" y="847" on="1"/>
        <pt x="459" y="720" on="0"/>
        <pt x="204" y="720" on="0"/>
        <pt x="169" y="846" on="1"/>
        <pt x="236" y="874" on="1"/>
        <pt x="267" y="796" on="0"/>
        <pt x="336" y="796" on="1"/>
        <pt x="373" y="796" on="0"/>
        <pt x="418" y="833" on="0"/>
      </contour>
    </TTGlyph>
    <TTGlyph name="Ocircumflex" xMin="40" yMin="-13" xMax="624" yMax="893">
      <contour>
        <pt x="464" y="677" on="0"/>
        <pt x="624" y="509" on="0"/>
        <pt x="624" y="164" on="0"/>
        <pt x="465" y="-13" on="0"/>
        <pt x="194" y="-13" on="0"/>
        <pt x="40" y="163" on="0"/>
        <pt x="40" y="331" on="1"/>
        <pt x="40" y="423" on="0"/>
        <pt x="94" y="562" on="0"/>
        <pt x="138" y="600" on="1"/>
        <pt x="227" y="677" on="0"/>
      </contour>
      <contour>
        <pt x="165" y="336" on="1"/>
        <pt x="165" y="88" on="0"/>
        <pt x="337" y="88" on="1"/>
        <pt x="429" y="88" on="0"/>
        <pt x="466" y="164" on="1"/>
        <pt x="500" y="231" on="0"/>
        <pt x="500" y="328" on="1"/>
        <pt x="500" y="415" on="0"/>
        <pt x="470" y="488" on="1"/>
        <pt x="453" y="528" on="0"/>
        <pt x="384" y="574" on="0"/>
        <pt x="274" y="574" on="0"/>
        <pt x="195" y="502" on="0"/>
        <pt x="165" y="400" on="0"/>
      </contour>
      <contour>
        <pt x="220" y="708" on="1"/>
        <pt x="179" y="742" on="1"/>
        <pt x="297" y="870" on="1"/>
        <pt x="318" y="893" on="0"/>
        <pt x="339" y="893" on="1"/>
        <pt x="379" y="872" on="1"/>
        <pt x="499" y="743" on="1"/>
        <pt x="458" y="708" on="1"/>
        <pt x="338" y="794" on="1"/>
      </contour>
    </TTGlyph>
    <TTGlyph name="Odieresis" xMin="40" yMin="-13" xMax="624" yMax="854">
      <contour>
        <pt x="464" y="677" on="0"/>
        <pt x="624" y="509" on="0"/>
        <pt x="624" y="164" on="0"/>
        <pt x="465" y="-13" on="0"/>
        <pt x="194" y="-13" on="0"/>
        <pt x="40" y="163" on="0"/>
        <pt x="40" y="331" on="1"/>
        <pt x="40" y="423" on="0"/>
        <pt x="94" y="562" on="0"/>
        <pt x="138" y="600" on="1"/>
        <pt x="227" y="677" on="0"/>
      </contour>
      <contour>
        <pt x="165" y="336" on="1"/>
        <pt x="165" y="88" on="0"/>
        <pt x="337" y="88" on="1"/>
        <pt x="429" y="88" on="0"/>
        <pt x="466" y="164" on="1"/>
        <pt x="500" y="231" on="0"/>
        <pt x="500" y="328" on="1"/>
        <pt x="500" y="415" on="0"/>
        <pt x="470" y="488" on="1"/>
        <pt x="453" y="528" on="0"/>
        <pt x="384" y="574" on="0"/>
        <pt x="274" y="574" on="0"/>
        <pt x="195" y="502" on="0"/>
        <pt x="165" y="400" on="0"/>
      </contour>
      <contour>
        <pt x="407" y="721" on="0"/>
        <pt x="369" y="758" on="0"/>
        <pt x="369" y="815" on="0"/>
        <pt x="408" y="854" on="0"/>
        <pt x="468" y="854" on="0"/>
        <pt x="507" y="815" on="0"/>
        <pt x="507" y="758" on="0"/>
        <pt x="468" y="721" on="0"/>
      </contour>
      <contour>
        <pt x="207" y="721" on="0"/>
        <pt x="169" y="758" on="0"/>
        <pt x="169" y="815" on="0"/>
        <pt x="208" y="854" on="0"/>
        <pt x="268" y="854" on="0"/>
        <pt x="307" y="815" on="0"/>
        <pt x="307" y="758" on="0"/>
        <pt x="268" y="721" on="0"/>
      </contour>
    </TTGlyph>
    <TTGlyph name="Ograve" xMin="40" yMin="-13" xMax="624" yMax="907">
      <contour>
        <pt x="464" y="677" on="0"/>
        <pt x="624" y="509" on="0"/>
        <pt x="624" y="164" on="0"/>
        <pt x="465" y="-13" on="0"/>
        <pt x="194" y="-13" on="0"/>
        <pt x="40" y="163" on="0"/>
        <pt x="40" y="331" on="1"/>
        <pt x="40" y="423" on="0"/>
        <pt x="94" y="562" on="0"/>
        <pt x="138" y="600" on="1"/>
        <pt x="227" y="677" on="0"/>
      </contour>
      <contour>
        <pt x="165" y="336" on="1"/>
        <pt x="165" y="88" on="0"/>
        <pt x="337" y="88" on="1"/>
        <pt x="429" y="88" on="0"/>
        <pt x="466" y="164" on="1"/>
        <pt x="500" y="231" on="0"/>
        <pt x="500" y="328" on="1"/>
        <pt x="500" y="415" on="0"/>
        <pt x="470" y="488" on="1"/>
        <pt x="453" y="528" on="0"/>
        <pt x="384" y="574" on="0"/>
        <pt x="274" y="574" on="0"/>
        <pt x="195" y="502" on="0"/>
        <pt x="165" y="400" on="0"/>
      </contour>
      <contour>
        <pt x="282" y="907" on="1"/>
        <pt x="444" y="750" on="1"/>
        <pt x="414" y="709" on="1"/>
        <pt x="259" y="796" on="1"/>
        <pt x="223" y="816" on="0"/>
        <pt x="223" y="856" on="0"/>
        <pt x="242" y="874" on="1"/>
      </contour>
    </TTGlyph>
    <TTGlyph name="Ohungarumlaut" xMin="40" yMin="-13" xMax="624" yMax="897">
      <contour>
        <pt x="464" y="677" on="0"/>
        <pt x="624" y="509" on="0"/>
        <pt x="624" y="164" on="0"/>
        <pt x="465" y="-13" on="0"/>
        <pt x="194" y="-13" on="0"/>
        <pt x="40" y="163" on="0"/>
        <pt x="40" y="331" on="1"/>
        <pt x="40" y="423" on="0"/>
        <pt x="94" y="562" on="0"/>
        <pt x="138" y="600" on="1"/>
        <pt x="227" y="677" on="0"/>
      </contour>
      <contour>
        <pt x="165" y="336" on="1"/>
        <pt x="165" y="88" on="0"/>
        <pt x="337" y="88" on="1"/>
        <pt x="429" y="88" on="0"/>
        <pt x="466" y="164" on="1"/>
        <pt x="500" y="231" on="0"/>
        <pt x="500" y="328" on="1"/>
        <pt x="500" y="415" on="0"/>
        <pt x="470" y="488" on="1"/>
        <pt x="453" y="528" on="0"/>
        <pt x="384" y="574" on="0"/>
        <pt x="274" y="574" on="0"/>
        <pt x="195" y="502" on="0"/>
        <pt x="165" y="400" on="0"/>
      </contour>
      <contour>
        <pt x="180" y="744" on="1"/>
        <pt x="345" y="897" on="1"/>
        <pt x="385" y="863" on="1"/>
        <pt x="402" y="846" on="0"/>
        <pt x="402" y="836" on="1"/>
        <pt x="402" y="806" on="0"/>
        <pt x="366" y="785" on="1"/>
        <pt x="209" y="702" on="1"/>
      </contour>
      <contour>
        <pt x="388" y="744" on="1"/>
        <pt x="553" y="897" on="1"/>
        <pt x="593" y="863" on="1"/>
        <pt x="610" y="846" on="0"/>
        <pt x="610" y="836" on="1"/>
        <pt x="610" y="806" on="0"/>
        <pt x="574" y="785" on="1"/>
        <pt x="417" y="702" on="1"/>
      </contour>
    </TTGlyph>
    <TTGlyph name="Omacron" xMin="40" yMin="-13" xMax="624" yMax="821">
      <contour>
        <pt x="464" y="677" on="0"/>
        <pt x="624" y="509" on="0"/>
        <pt x="624" y="164" on="0"/>
        <pt x="465" y="-13" on="0"/>
        <pt x="194" y="-13" on="0"/>
        <pt x="40" y="163" on="0"/>
        <pt x="40" y="331" on="1"/>
        <pt x="40" y="423" on="0"/>
        <pt x="94" y="562" on="0"/>
        <pt x="138" y="600" on="1"/>
        <pt x="227" y="677" on="0"/>
      </contour>
      <contour>
        <pt x="165" y="336" on="1"/>
        <pt x="165" y="88" on="0"/>
        <pt x="337" y="88" on="1"/>
        <pt x="429" y="88" on="0"/>
        <pt x="466" y="164" on="1"/>
        <pt x="500" y="231" on="0"/>
        <pt x="500" y="328" on="1"/>
        <pt x="500" y="415" on="0"/>
        <pt x="470" y="488" on="1"/>
        <pt x="453" y="528" on="0"/>
        <pt x="384" y="574" on="0"/>
        <pt x="274" y="574" on="0"/>
        <pt x="195" y="502" on="0"/>
        <pt x="165" y="400" on="0"/>
      </contour>
      <contour>
        <pt x="192" y="734" on="1"/>
        <pt x="192" y="821" on="1"/>
        <pt x="479" y="821" on="1"/>
        <pt x="479" y="734" on="1"/>
      </contour>
    </TTGlyph>
    <TTGlyph name="Omega" xMin="55" yMin="0" xMax="733" yMax="677">
      <contour>
        <pt x="73" y="360" on="1"/>
        <pt x="73" y="506" on="0"/>
        <pt x="256" y="677" on="0"/>
        <pt x="539" y="677" on="0"/>
        <pt x="710" y="520" on="0"/>
        <pt x="710" y="377" on="1"/>
        <pt x="710" y="295" on="0"/>
        <pt x="641" y="146" on="0"/>
        <pt x="588" y="106" on="1"/>
        <pt x="733" y="106" on="1"/>
        <pt x="733" y="0" on="1"/>
        <pt x="456" y="0" on="1"/>
        <pt x="456" y="86" on="1"/>
        <pt x="506" y="122" on="0"/>
        <pt x="586" y="255" on="0"/>
        <pt x="586" y="461" on="0"/>
        <pt x="478" y="574" on="0"/>
        <pt x="310" y="574" on="0"/>
        <pt x="199" y="461" on="0"/>
        <pt x="199" y="349" on="1"/>
        <pt x="199" y="262" on="0"/>
        <pt x="281" y="119" on="0"/>
        <pt x="339" y="85" on="1"/>
        <pt x="339" y="0" on="1"/>
        <pt x="55" y="0" on="1"/>
        <pt x="55" y="106" on="1"/>
        <pt x="191" y="106" on="1"/>
        <pt x="137" y="143" on="0"/>
        <pt x="73" y="281" on="0"/>
      </contour>
    </TTGlyph>
    <TTGlyph name="Oslash" xMin="40" yMin="-100" xMax="624" yMax="751">
      <contour>
        <pt x="528" y="608" on="1"/>
        <pt x="624" y="519" on="0"/>
        <pt x="624" y="164" on="0"/>
        <pt x="465" y="-13" on="0"/>
        <pt x="330" y="-13" on="1"/>
        <pt x="274" y="-13" on="0"/>
        <pt x="223" y="3" on="1"/>
        <pt x="173" y="-100" on="1"/>
        <pt x="86" y="-58" on="1"/>
        <pt x="139" y="52" on="1"/>
        <pt x="40" y="140" on="0"/>
        <pt x="40" y="331" on="1"/>
        <pt x="40" y="423" on="0"/>
        <pt x="94" y="562" on="0"/>
        <pt x="138" y="600" on="1"/>
        <pt x="227" y="677" on="0"/>
        <pt x="341" y="677" on="1"/>
        <pt x="395" y="677" on="0"/>
        <pt x="444" y="660" on="1"/>
        <pt x="488" y="751" on="1"/>
        <pt x="577" y="710" on="1"/>
      </contour>
      <contour>
        <pt x="165" y="336" on="1"/>
        <pt x="165" y="226" on="0"/>
        <pt x="199" y="164" on="1"/>
        <pt x="391" y="564" on="1"/>
        <pt x="363" y="574" on="0"/>
        <pt x="335" y="574" on="1"/>
        <pt x="274" y="574" on="0"/>
        <pt x="195" y="502" on="0"/>
        <pt x="165" y="400" on="0"/>
      </contour>
      <contour>
        <pt x="466" y="495" on="1"/>
        <pt x="275" y="98" on="1"/>
        <pt x="301" y="88" on="0"/>
        <pt x="383" y="88" on="0"/>
        <pt x="449" y="128" on="0"/>
        <pt x="466" y="164" on="1"/>
        <pt x="500" y="231" on="0"/>
        <pt x="500" y="430" on="0"/>
      </contour>
    </TTGlyph>
    <TTGlyph name="Oslashacute" xMin="40" yMin="-110" xMax="624" yMax="907">
      <contour>
        <pt x="464" y="677" on="0"/>
        <pt x="624" y="509" on="0"/>
        <pt x="624" y="164" on="0"/>
        <pt x="465" y="-13" on="0"/>
        <pt x="194" y="-13" on="0"/>
        <pt x="40" y="163" on="0"/>
        <pt x="40" y="331" on="1"/>
        <pt x="40" y="423" on="0"/>
        <pt x="94" y="562" on="0"/>
        <pt x="138" y="600" on="1"/>
        <pt x="227" y="677" on="0"/>
      </contour>
      <contour>
        <pt x="165" y="336" on="1"/>
        <pt x="165" y="88" on="0"/>
        <pt x="337" y="88" on="1"/>
        <pt x="429" y="88" on="0"/>
        <pt x="466" y="164" on="1"/>
        <pt x="500" y="231" on="0"/>
        <pt x="500" y="328" on="1"/>
        <pt x="500" y="415" on="0"/>
        <pt x="470" y="488" on="1"/>
        <pt x="453" y="528" on="0"/>
        <pt x="384" y="574" on="0"/>
        <pt x="274" y="574" on="0"/>
        <pt x="195" y="502" on="0"/>
        <pt x="165" y="400" on="0"/>
      </contour>
      <contour>
        <pt x="229" y="-110" on="1"/>
        <pt x="127" y="-72" on="1"/>
        <pt x="433" y="755" on="1"/>
        <pt x="537" y="718" on="1"/>
      </contour>
      <contour>
        <pt x="237" y="750" on="1"/>
        <pt x="399" y="907" on="1"/>
        <pt x="439" y="874" on="1"/>
        <pt x="457" y="857" on="0"/>
        <pt x="457" y="841" on="1"/>
        <pt x="457" y="816" on="0"/>
        <pt x="422" y="796" on="1"/>
        <pt x="267" y="709" on="1"/>
      </contour>
    </TTGlyph>
    <TTGlyph name="Otilde" xMin="40" yMin="-13" xMax="624" yMax="846">
      <contour>
        <pt x="464" y="677" on="0"/>
        <pt x="624" y="509" on="0"/>
        <pt x="624" y="164" on="0"/>
        <pt x="465" y="-13" on="0"/>
        <pt x="194" y="-13" on="0"/>
        <pt x="40" y="163" on="0"/>
        <pt x="40" y="331" on="1"/>
        <pt x="40" y="423" on="0"/>
        <pt x="94" y="562" on="0"/>
        <pt x="138" y="600" on="1"/>
        <pt x="227" y="677" on="0"/>
      </contour>
      <contour>
        <pt x="165" y="336" on="1"/>
        <pt x="165" y="88" on="0"/>
        <pt x="337" y="88" on="1"/>
        <pt x="429" y="88" on="0"/>
        <pt x="466" y="164" on="1"/>
        <pt x="500" y="231" on="0"/>
        <pt x="500" y="328" on="1"/>
        <pt x="500" y="415" on="0"/>
        <pt x="470" y="488" on="1"/>
        <pt x="453" y="528" on="0"/>
        <pt x="384" y="574" on="0"/>
        <pt x="274" y="574" on="0"/>
        <pt x="195" y="502" on="0"/>
        <pt x="165" y="400" on="0"/>
      </contour>
      <contour>
        <pt x="220" y="728" on="1"/>
        <pt x="172" y="763" on="1"/>
        <pt x="208" y="842" on="0"/>
        <pt x="274" y="842" on="1"/>
        <pt x="298" y="842" on="0"/>
        <pt x="390" y="814" on="0"/>
        <pt x="433" y="814" on="0"/>
        <pt x="452" y="846" on="1"/>
        <pt x="506" y="817" on="1"/>
        <pt x="473" y="730" on="0"/>
        <pt x="403" y="730" on="1"/>
        <pt x="382" y="730" on="0"/>
        <pt x="294" y="757" on="0"/>
        <pt x="258" y="757" on="0"/>
        <pt x="236" y="746" on="0"/>
      </contour>
    </TTGlyph>
    <TTGlyph name="P" xMin="32" yMin="0" xMax="560" yMax="665">
      <contour>
        <pt x="32" y="0" on="1"/>
        <pt x="32" y="81" on="1"/>
        <pt x="65" y="84" on="1"/>
        <pt x="94" y="87" on="0"/>
        <pt x="94" y="112" on="1"/>
        <pt x="94" y="577" on="1"/>
        <pt x="37" y="580" on="1"/>
        <pt x="37" y="665" on="1"/>
        <pt x="323" y="665" on="1"/>
        <pt x="435" y="665" on="0"/>
        <pt x="560" y="560" on="0"/>
        <pt x="560" y="350" on="0"/>
        <pt x="418" y="233" on="0"/>
        <pt x="301" y="233" on="1"/>
        <pt x="216" y="233" on="1"/>
        <pt x="216" y="88" on="1"/>
        <pt x="312" y="85" on="1"/>
        <pt x="312" y="0" on="1"/>
      </contour>
      <contour>
        <pt x="216" y="330" on="1"/>
        <pt x="288" y="330" on="1"/>
        <pt x="434" y="330" on="0"/>
        <pt x="434" y="449" on="1"/>
        <pt x="434" y="521" on="0"/>
        <pt x="359" y="568" on="0"/>
        <pt x="277" y="568" on="1"/>
        <pt x="216" y="568" on="1"/>
      </contour>
    </TTGlyph>
    <TTGlyph name="Q" xMin="39" yMin="-166" xMax="706" yMax="677">
      <contour>
        <pt x="623" y="331" on="1"/>
        <pt x="623" y="202" on="0"/>
        <pt x="514" y="36" on="0"/>
        <pt x="411" y="9" on="1"/>
        <pt x="411" y="6" on="1"/>
        <pt x="488" y="2" on="0"/>
        <pt x="558" y="-40" on="1"/>
        <pt x="608" y="-71" on="0"/>
        <pt x="675" y="-71" on="1"/>
        <pt x="690" y="-71" on="0"/>
        <pt x="706" y="-69" on="1"/>
        <pt x="694" y="-165" on="1"/>
        <pt x="680" y="-166" on="0"/>
        <pt x="667" y="-166" on="1"/>
        <pt x="568" y="-149" on="1"/>
        <pt x="505" y="-127" on="0"/>
        <pt x="445" y="-99" on="1"/>
        <pt x="377" y="-67" on="0"/>
        <pt x="319" y="-67" on="1"/>
        <pt x="291" y="-67" on="0"/>
        <pt x="263" y="-73" on="1"/>
        <pt x="277" y="-1" on="1"/>
        <pt x="39" y="30" on="0"/>
        <pt x="39" y="331" on="1"/>
        <pt x="39" y="423" on="0"/>
        <pt x="93" y="562" on="0"/>
        <pt x="138" y="600" on="1"/>
        <pt x="226" y="677" on="0"/>
        <pt x="463" y="677" on="0"/>
        <pt x="623" y="509" on="0"/>
      </contour>
      <contour>
        <pt x="164" y="336" on="1"/>
        <pt x="164" y="88" on="0"/>
        <pt x="336" y="88" on="1"/>
        <pt x="428" y="88" on="0"/>
        <pt x="466" y="164" on="1"/>
        <pt x="499" y="231" on="0"/>
        <pt x="499" y="328" on="1"/>
        <pt x="499" y="415" on="0"/>
        <pt x="468" y="488" on="1"/>
        <pt x="452" y="528" on="0"/>
        <pt x="383" y="574" on="0"/>
        <pt x="273" y="574" on="0"/>
        <pt x="194" y="502" on="0"/>
        <pt x="164" y="400" on="0"/>
      </contour>
    </TTGlyph>
    <TTGlyph name="R" xMin="32" yMin="0" xMax="616" yMax="665">
      <contour>
        <pt x="32" y="0" on="1"/>
        <pt x="32" y="81" on="1"/>
        <pt x="65" y="84" on="1"/>
        <pt x="94" y="87" on="0"/>
        <pt x="94" y="112" on="1"/>
        <pt x="94" y="577" on="1"/>
        <pt x="37" y="580" on="1"/>
        <pt x="37" y="665" on="1"/>
        <pt x="310" y="665" on="1"/>
        <pt x="426" y="665" on="0"/>
        <pt x="550" y="579" on="0"/>
        <pt x="550" y="481" on="1"/>
        <pt x="550" y="413" on="0"/>
        <pt x="479" y="325" on="0"/>
        <pt x="430" y="305" on="1"/>
        <pt x="466" y="292" on="0"/>
        <pt x="487" y="244" on="1"/>
        <pt x="559" y="87" on="1"/>
        <pt x="616" y="85" on="1"/>
        <pt x="616" y="0" on="1"/>
        <pt x="369" y="0" on="1"/>
        <pt x="369" y="81" on="1"/>
        <pt x="398" y="84" on="1"/>
        <pt x="421" y="87" on="0"/>
        <pt x="421" y="102" on="1"/>
        <pt x="421" y="108" on="0"/>
        <pt x="417" y="116" on="1"/>
        <pt x="370" y="216" on="1"/>
        <pt x="359" y="241" on="0"/>
        <pt x="332" y="262" on="0"/>
        <pt x="307" y="262" on="1"/>
        <pt x="216" y="262" on="1"/>
        <pt x="216" y="88" on="1"/>
        <pt x="281" y="85" on="1"/>
        <pt x="281" y="0" on="1"/>
      </contour>
      <contour>
        <pt x="216" y="357" on="1"/>
        <pt x="303" y="357" on="1"/>
        <pt x="426" y="357" on="0"/>
        <pt x="426" y="467" on="1"/>
        <pt x="426" y="530" on="0"/>
        <pt x="361" y="568" on="0"/>
        <pt x="289" y="568" on="1"/>
        <pt x="216" y="568" on="1"/>
      </contour>
    </TTGlyph>
    <TTGlyph name="Racute" xMin="32" yMin="0" xMax="616" yMax="907">
      <contour>
        <pt x="32" y="0" on="1"/>
        <pt x="32" y="81" on="1"/>
        <pt x="65" y="84" on="1"/>
        <pt x="94" y="87" on="0"/>
        <pt x="94" y="112" on="1"/>
        <pt x="94" y="577" on="1"/>
        <pt x="37" y="580" on="1"/>
        <pt x="37" y="665" on="1"/>
        <pt x="310" y="665" on="1"/>
        <pt x="426" y="665" on="0"/>
        <pt x="550" y="579" on="0"/>
        <pt x="550" y="481" on="1"/>
        <pt x="550" y="413" on="0"/>
        <pt x="479" y="325" on="0"/>
        <pt x="430" y="305" on="1"/>
        <pt x="466" y="292" on="0"/>
        <pt x="487" y="244" on="1"/>
        <pt x="559" y="87" on="1"/>
        <pt x="616" y="85" on="1"/>
        <pt x="616" y="0" on="1"/>
        <pt x="369" y="0" on="1"/>
        <pt x="369" y="81" on="1"/>
        <pt x="398" y="84" on="1"/>
        <pt x="421" y="87" on="0"/>
        <pt x="421" y="102" on="1"/>
        <pt x="421" y="108" on="0"/>
        <pt x="417" y="116" on="1"/>
        <pt x="370" y="216" on="1"/>
        <pt x="359" y="241" on="0"/>
        <pt x="332" y="262" on="0"/>
        <pt x="307" y="262" on="1"/>
        <pt x="216" y="262" on="1"/>
        <pt x="216" y="88" on="1"/>
        <pt x="281" y="85" on="1"/>
        <pt x="281" y="0" on="1"/>
      </contour>
      <contour>
        <pt x="216" y="357" on="1"/>
        <pt x="303" y="357" on="1"/>
        <pt x="426" y="357" on="0"/>
        <pt x="426" y="467" on="1"/>
        <pt x="426" y="530" on="0"/>
        <pt x="361" y="568" on="0"/>
        <pt x="289" y="568" on="1"/>
        <pt x="216" y="568" on="1"/>
      </contour>
      <contour>
        <pt x="204" y="750" on="1"/>
        <pt x="366" y="907" on="1"/>
        <pt x="406" y="874" on="1"/>
        <pt x="424" y="857" on="0"/>
        <pt x="424" y="841" on="1"/>
        <pt x="424" y="816" on="0"/>
        <pt x="389" y="796" on="1"/>
        <pt x="234" y="709" on="1"/>
      </contour>
    </TTGlyph>
    <TTGlyph name="Rcaron" xMin="32" yMin="0" xMax="616" yMax="893">
      <contour>
        <pt x="32" y="0" on="1"/>
        <pt x="32" y="81" on="1"/>
        <pt x="65" y="84" on="1"/>
        <pt x="94" y="87" on="0"/>
        <pt x="94" y="112" on="1"/>
        <pt x="94" y="577" on="1"/>
        <pt x="37" y="580" on="1"/>
        <pt x="37" y="665" on="1"/>
        <pt x="310" y="665" on="1"/>
        <pt x="426" y="665" on="0"/>
        <pt x="550" y="579" on="0"/>
        <pt x="550" y="481" on="1"/>
        <pt x="550" y="413" on="0"/>
        <pt x="479" y="325" on="0"/>
        <pt x="430" y="305" on="1"/>
        <pt x="466" y="292" on="0"/>
        <pt x="487" y="244" on="1"/>
        <pt x="559" y="87" on="1"/>
        <pt x="616" y="85" on="1"/>
        <pt x="616" y="0" on="1"/>
        <pt x="369" y="0" on="1"/>
        <pt x="369" y="81" on="1"/>
        <pt x="398" y="84" on="1"/>
        <pt x="421" y="87" on="0"/>
        <pt x="421" y="102" on="1"/>
        <pt x="421" y="108" on="0"/>
        <pt x="417" y="116" on="1"/>
        <pt x="370" y="216" on="1"/>
        <pt x="359" y="241" on="0"/>
        <pt x="332" y="262" on="0"/>
        <pt x="307" y="262" on="1"/>
        <pt x="216" y="262" on="1"/>
        <pt x="216" y="88" on="1"/>
        <pt x="281" y="85" on="1"/>
        <pt x="281" y="0" on="1"/>
      </contour>
      <contour>
        <pt x="216" y="357" on="1"/>
        <pt x="303" y="357" on="1"/>
        <pt x="426" y="357" on="0"/>
        <pt x="426" y="467" on="1"/>
        <pt x="426" y="530" on="0"/>
        <pt x="361" y="568" on="0"/>
        <pt x="289" y="568" on="1"/>
        <pt x="216" y="568" on="1"/>
      </contour>
      <contour>
        <pt x="398" y="893" on="1"/>
        <pt x="439" y="859" on="1"/>
        <pt x="321" y="731" on="1"/>
        <pt x="300" y="708" on="0"/>
        <pt x="279" y="708" on="1"/>
        <pt x="239" y="729" on="1"/>
        <pt x="119" y="858" on="1"/>
        <pt x="160" y="893" on="1"/>
        <pt x="280" y="807" on="1"/>
      </contour>
    </TTGlyph>
    <TTGlyph name="Rcommaaccent" xMin="32" yMin="-281" xMax="616" yMax="665">
      <contour>
        <pt x="32" y="0" on="1"/>
        <pt x="32" y="81" on="1"/>
        <pt x="65" y="84" on="1"/>
        <pt x="94" y="87" on="0"/>
        <pt x="94" y="112" on="1"/>
        <pt x="94" y="577" on="1"/>
        <pt x="37" y="580" on="1"/>
        <pt x="37" y="665" on="1"/>
        <pt x="310" y="665" on="1"/>
        <pt x="426" y="665" on="0"/>
        <pt x="550" y="579" on="0"/>
        <pt x="550" y="481" on="1"/>
        <pt x="550" y="413" on="0"/>
        <pt x="479" y="325" on="0"/>
        <pt x="430" y="305" on="1"/>
        <pt x="466" y="292" on="0"/>
        <pt x="487" y="244" on="1"/>
        <pt x="559" y="87" on="1"/>
        <pt x="616" y="85" on="1"/>
        <pt x="616" y="0" on="1"/>
        <pt x="369" y="0" on="1"/>
        <pt x="369" y="81" on="1"/>
        <pt x="398" y="84" on="1"/>
        <pt x="421" y="87" on="0"/>
        <pt x="421" y="102" on="1"/>
        <pt x="421" y="108" on="0"/>
        <pt x="417" y="116" on="1"/>
        <pt x="370" y="216" on="1"/>
        <pt x="359" y="241" on="0"/>
        <pt x="332" y="262" on="0"/>
        <pt x="307" y="262" on="1"/>
        <pt x="216" y="262" on="1"/>
        <pt x="216" y="88" on="1"/>
        <pt x="281" y="85" on="1"/>
        <pt x="281" y="0" on="1"/>
      </contour>
      <contour>
        <pt x="216" y="357" on="1"/>
        <pt x="303" y="357" on="1"/>
        <pt x="426" y="357" on="0"/>
        <pt x="426" y="467" on="1"/>
        <pt x="426" y="530" on="0"/>
        <pt x="361" y="568" on="0"/>
        <pt x="289" y="568" on="1"/>
        <pt x="216" y="568" on="1"/>
      </contour>
      <contour>
        <pt x="283" y="-61" on="1"/>
        <pt x="332" y="-71" on="1"/>
        <pt x="364" y="-77" on="0"/>
        <pt x="369" y="-100" on="1"/>
        <pt x="370" y="-104" on="0"/>
        <pt x="370" y="-127" on="0"/>
        <pt x="356" y="-146" on="1"/>
        <pt x="270" y="-281" on="1"/>
        <pt x="224" y="-259" on="1"/>
      </contour>
    </TTGlyph>
    <TTGlyph name="S" xMin="43" yMin="-13" xMax="490" yMax="677">
      <contour>
        <pt x="241" y="90" on="1"/>
        <pt x="361" y="90" on="0"/>
        <pt x="361" y="186" on="1"/>
        <pt x="361" y="236" on="0"/>
        <pt x="308" y="260" on="1"/>
        <pt x="280" y="274" on="0"/>
        <pt x="191" y="298" on="0"/>
        <pt x="132" y="323" on="0"/>
        <pt x="102" y="345" on="1"/>
        <pt x="43" y="389" on="0"/>
        <pt x="43" y="572" on="0"/>
        <pt x="170" y="677" on="0"/>
        <pt x="375" y="677" on="0"/>
        <pt x="463" y="636" on="1"/>
        <pt x="463" y="486" on="1"/>
        <pt x="361" y="479" on="1"/>
        <pt x="361" y="537" on="1"/>
        <pt x="361" y="552" on="0"/>
        <pt x="357" y="559" on="1"/>
        <pt x="346" y="578" on="0"/>
        <pt x="227" y="578" on="0"/>
        <pt x="170" y="536" on="0"/>
        <pt x="170" y="492" on="1"/>
        <pt x="170" y="460" on="0"/>
        <pt x="194" y="436" on="1"/>
        <pt x="210" y="420" on="0"/>
        <pt x="273" y="399" on="0"/>
        <pt x="344" y="377" on="0"/>
        <pt x="399" y="351" on="0"/>
        <pt x="429" y="328" on="1"/>
        <pt x="490" y="283" on="0"/>
        <pt x="490" y="95" on="0"/>
        <pt x="355" y="-13" on="0"/>
        <pt x="134" y="-13" on="0"/>
        <pt x="46" y="28" on="1"/>
        <pt x="46" y="186" on="1"/>
        <pt x="148" y="193" on="1"/>
        <pt x="148" y="132" on="1"/>
        <pt x="148" y="117" on="0"/>
        <pt x="156" y="103" on="0"/>
        <pt x="197" y="90" on="0"/>
      </contour>
    </TTGlyph>
    <TTGlyph name="Sacute" xMin="43" yMin="-13" xMax="490" yMax="907">
      <contour>
        <pt x="241" y="90" on="1"/>
        <pt x="361" y="90" on="0"/>
        <pt x="361" y="186" on="1"/>
        <pt x="361" y="236" on="0"/>
        <pt x="308" y="260" on="1"/>
        <pt x="280" y="274" on="0"/>
        <pt x="191" y="298" on="0"/>
        <pt x="132" y="323" on="0"/>
        <pt x="102" y="345" on="1"/>
        <pt x="43" y="389" on="0"/>
        <pt x="43" y="572" on="0"/>
        <pt x="170" y="677" on="0"/>
        <pt x="375" y="677" on="0"/>
        <pt x="463" y="636" on="1"/>
        <pt x="463" y="486" on="1"/>
        <pt x="361" y="479" on="1"/>
        <pt x="361" y="537" on="1"/>
        <pt x="361" y="552" on="0"/>
        <pt x="357" y="559" on="1"/>
        <pt x="346" y="578" on="0"/>
        <pt x="227" y="578" on="0"/>
        <pt x="170" y="536" on="0"/>
        <pt x="170" y="492" on="1"/>
        <pt x="170" y="460" on="0"/>
        <pt x="194" y="436" on="1"/>
        <pt x="210" y="420" on="0"/>
        <pt x="273" y="399" on="0"/>
        <pt x="344" y="377" on="0"/>
        <pt x="399" y="351" on="0"/>
        <pt x="429" y="328" on="1"/>
        <pt x="490" y="283" on="0"/>
        <pt x="490" y="95" on="0"/>
        <pt x="355" y="-13" on="0"/>
        <pt x="134" y="-13" on="0"/>
        <pt x="46" y="28" on="1"/>
        <pt x="46" y="186" on="1"/>
        <pt x="148" y="193" on="1"/>
        <pt x="148" y="132" on="1"/>
        <pt x="148" y="117" on="0"/>
        <pt x="156" y="103" on="0"/>
        <pt x="197" y="90" on="0"/>
      </contour>
      <contour>
        <pt x="184" y="750" on="1"/>
        <pt x="346" y="907" on="1"/>
        <pt x="386" y="874" on="1"/>
        <pt x="404" y="857" on="0"/>
        <pt x="404" y="841" on="1"/>
        <pt x="404" y="816" on="0"/>
        <pt x="369" y="796" on="1"/>
        <pt x="214" y="709" on="1"/>
      </contour>
    </TTGlyph>
    <TTGlyph name="Scaron" xMin="43" yMin="-13" xMax="490" yMax="893">
      <contour>
        <pt x="241" y="90" on="1"/>
        <pt x="361" y="90" on="0"/>
        <pt x="361" y="186" on="1"/>
        <pt x="361" y="236" on="0"/>
        <pt x="308" y="260" on="1"/>
        <pt x="280" y="274" on="0"/>
        <pt x="191" y="298" on="0"/>
        <pt x="132" y="323" on="0"/>
        <pt x="102" y="345" on="1"/>
        <pt x="43" y="389" on="0"/>
        <pt x="43" y="572" on="0"/>
        <pt x="170" y="677" on="0"/>
        <pt x="375" y="677" on="0"/>
        <pt x="463" y="636" on="1"/>
        <pt x="463" y="486" on="1"/>
        <pt x="361" y="479" on="1"/>
        <pt x="361" y="537" on="1"/>
        <pt x="361" y="552" on="0"/>
        <pt x="357" y="559" on="1"/>
        <pt x="346" y="578" on="0"/>
        <pt x="227" y="578" on="0"/>
        <pt x="170" y="536" on="0"/>
        <pt x="170" y="492" on="1"/>
        <pt x="170" y="460" on="0"/>
        <pt x="194" y="436" on="1"/>
        <pt x="210" y="420" on="0"/>
        <pt x="273" y="399" on="0"/>
        <pt x="344" y="377" on="0"/>
        <pt x="399" y="351" on="0"/>
        <pt x="429" y="328" on="1"/>
        <pt x="490" y="283" on="0"/>
        <pt x="490" y="95" on="0"/>
        <pt x="355" y="-13" on="0"/>
        <pt x="134" y="-13" on="0"/>
        <pt x="46" y="28" on="1"/>
        <pt x="46" y="186" on="1"/>
        <pt x="148" y="193" on="1"/>
        <pt x="148" y="132" on="1"/>
        <pt x="148" y="117" on="0"/>
        <pt x="156" y="103" on="0"/>
        <pt x="197" y="90" on="0"/>
      </contour>
      <contour>
        <pt x="386" y="893" on="1"/>
        <pt x="427" y="859" on="1"/>
        <pt x="309" y="731" on="1"/>
        <pt x="288" y="708" on="0"/>
        <pt x="267" y="708" on="1"/>
        <pt x="227" y="729" on="1"/>
        <pt x="107" y="858" on="1"/>
        <pt x="148" y="893" on="1"/>
        <pt x="268" y="807" on="1"/>
      </contour>
    </TTGlyph>
    <TTGlyph name="Scedilla" xMin="43" yMin="-242" xMax="490" yMax="677">
      <contour>
        <pt x="241" y="90" on="1"/>
        <pt x="361" y="90" on="0"/>
        <pt x="361" y="186" on="1"/>
        <pt x="361" y="236" on="0"/>
        <pt x="308" y="260" on="1"/>
        <pt x="280" y="274" on="0"/>
        <pt x="191" y="298" on="0"/>
        <pt x="132" y="323" on="0"/>
        <pt x="102" y="345" on="1"/>
        <pt x="43" y="389" on="0"/>
        <pt x="43" y="572" on="0"/>
        <pt x="170" y="677" on="0"/>
        <pt x="375" y="677" on="0"/>
        <pt x="463" y="636" on="1"/>
        <pt x="463" y="486" on="1"/>
        <pt x="361" y="479" on="1"/>
        <pt x="361" y="537" on="1"/>
        <pt x="361" y="552" on="0"/>
        <pt x="357" y="559" on="1"/>
        <pt x="346" y="578" on="0"/>
        <pt x="227" y="578" on="0"/>
        <pt x="170" y="536" on="0"/>
        <pt x="170" y="492" on="1"/>
        <pt x="170" y="460" on="0"/>
        <pt x="194" y="436" on="1"/>
        <pt x="210" y="420" on="0"/>
        <pt x="273" y="399" on="0"/>
        <pt x="344" y="377" on="0"/>
        <pt x="399" y="351" on="0"/>
        <pt x="429" y="328" on="1"/>
        <pt x="490" y="283" on="0"/>
        <pt x="490" y="103" on="0"/>
        <pt x="377" y="-2" on="0"/>
        <pt x="285" y="-11" on="1"/>
        <pt x="272" y="-63" on="1"/>
        <pt x="314" y="-66" on="0"/>
        <pt x="365" y="-108" on="0"/>
        <pt x="365" y="-195" on="0"/>
        <pt x="292" y="-242" on="0"/>
        <pt x="194" y="-242" on="0"/>
        <pt x="153" y="-224" on="1"/>
        <pt x="169" y="-172" on="1"/>
        <pt x="208" y="-185" on="0"/>
        <pt x="236" y="-185" on="1"/>
        <pt x="284" y="-185" on="0"/>
        <pt x="284" y="-110" on="0"/>
        <pt x="196" y="-110" on="1"/>
        <pt x="227" y="-13" on="1"/>
        <pt x="125" y="-10" on="0"/>
        <pt x="46" y="28" on="1"/>
        <pt x="46" y="186" on="1"/>
        <pt x="148" y="193" on="1"/>
        <pt x="148" y="132" on="1"/>
        <pt x="148" y="117" on="0"/>
        <pt x="156" y="103" on="0"/>
        <pt x="197" y="90" on="0"/>
      </contour>
    </TTGlyph>
    <TTGlyph name="Scircumflex" xMin="43" yMin="-13" xMax="490" yMax="893">
      <contour>
        <pt x="241" y="90" on="1"/>
        <pt x="361" y="90" on="0"/>
        <pt x="361" y="186" on="1"/>
        <pt x="361" y="236" on="0"/>
        <pt x="308" y="260" on="1"/>
        <pt x="280" y="274" on="0"/>
        <pt x="191" y="298" on="0"/>
        <pt x="132" y="323" on="0"/>
        <pt x="102" y="345" on="1"/>
        <pt x="43" y="389" on="0"/>
        <pt x="43" y="572" on="0"/>
        <pt x="170" y="677" on="0"/>
        <pt x="375" y="677" on="0"/>
        <pt x="463" y="636" on="1"/>
        <pt x="463" y="486" on="1"/>
        <pt x="361" y="479" on="1"/>
        <pt x="361" y="537" on="1"/>
        <pt x="361" y="552" on="0"/>
        <pt x="357" y="559" on="1"/>
        <pt x="346" y="578" on="0"/>
        <pt x="227" y="578" on="0"/>
        <pt x="170" y="536" on="0"/>
        <pt x="170" y="492" on="1"/>
        <pt x="170" y="460" on="0"/>
        <pt x="194" y="436" on="1"/>
        <pt x="210" y="420" on="0"/>
        <pt x="273" y="399" on="0"/>
        <pt x="344" y="377" on="0"/>
        <pt x="399" y="351" on="0"/>
        <pt x="429" y="328" on="1"/>
        <pt x="490" y="283" on="0"/>
        <pt x="490" y="95" on="0"/>
        <pt x="355" y="-13" on="0"/>
        <pt x="134" y="-13" on="0"/>
        <pt x="46" y="28" on="1"/>
        <pt x="46" y="186" on="1"/>
        <pt x="148" y="193" on="1"/>
        <pt x="148" y="132" on="1"/>
        <pt x="148" y="117" on="0"/>
        <pt x="156" y="103" on="0"/>
        <pt x="197" y="90" on="0"/>
      </contour>
      <contour>
        <pt x="155" y="708" on="1"/>
        <pt x="114" y="742" on="1"/>
        <pt x="232" y="870" on="1"/>
        <pt x="253" y="893" on="0"/>
        <pt x="274" y="893" on="1"/>
        <pt x="314" y="872" on="1"/>
        <pt x="434" y="743" on="1"/>
        <pt x="393" y="708" on="1"/>
        <pt x="273" y="794" on="1"/>
      </contour>
    </TTGlyph>
    <TTGlyph name="Scommaaccent" xMin="43" yMin="-281" xMax="490" yMax="677">
      <contour>
        <pt x="241" y="90" on="1"/>
        <pt x="361" y="90" on="0"/>
        <pt x="361" y="186" on="1"/>
        <pt x="361" y="236" on="0"/>
        <pt x="308" y="260" on="1"/>
        <pt x="280" y="274" on="0"/>
        <pt x="191" y="298" on="0"/>
        <pt x="132" y="323" on="0"/>
        <pt x="102" y="345" on="1"/>
        <pt x="43" y="389" on="0"/>
        <pt x="43" y="572" on="0"/>
        <pt x="170" y="677" on="0"/>
        <pt x="375" y="677" on="0"/>
        <pt x="463" y="636" on="1"/>
        <pt x="463" y="486" on="1"/>
        <pt x="361" y="479" on="1"/>
        <pt x="361" y="537" on="1"/>
        <pt x="361" y="552" on="0"/>
        <pt x="357" y="559" on="1"/>
        <pt x="346" y="578" on="0"/>
        <pt x="227" y="578" on="0"/>
        <pt x="170" y="536" on="0"/>
        <pt x="170" y="492" on="1"/>
        <pt x="170" y="460" on="0"/>
        <pt x="194" y="436" on="1"/>
        <pt x="210" y="420" on="0"/>
        <pt x="273" y="399" on="0"/>
        <pt x="344" y="377" on="0"/>
        <pt x="399" y="351" on="0"/>
        <pt x="429" y="328" on="1"/>
        <pt x="490" y="283" on="0"/>
        <pt x="490" y="95" on="0"/>
        <pt x="355" y="-13" on="0"/>
        <pt x="134" y="-13" on="0"/>
        <pt x="46" y="28" on="1"/>
        <pt x="46" y="186" on="1"/>
        <pt x="148" y="193" on="1"/>
        <pt x="148" y="132" on="1"/>
        <pt x="148" y="117" on="0"/>
        <pt x="156" y="103" on="0"/>
        <pt x="197" y="90" on="0"/>
      </contour>
      <contour>
        <pt x="229" y="-61" on="1"/>
        <pt x="278" y="-71" on="1"/>
        <pt x="310" y="-77" on="0"/>
        <pt x="315" y="-100" on="1"/>
        <pt x="316" y="-104" on="0"/>
        <pt x="316" y="-127" on="0"/>
        <pt x="302" y="-146" on="1"/>
        <pt x="216" y="-281" on="1"/>
        <pt x="170" y="-259" on="1"/>
      </contour>
    </TTGlyph>
    <TTGlyph name="T" xMin="15" yMin="0" xMax="538" yMax="665">
      <contour>
        <pt x="218" y="112" on="1"/>
        <pt x="218" y="566" on="1"/>
        <pt x="140" y="566" on="1"/>
        <pt x="117" y="566" on="0"/>
        <pt x="117" y="535" on="1"/>
        <pt x="117" y="488" on="1"/>
        <pt x="15" y="495" on="1"/>
        <pt x="15" y="665" on="1"/>
        <pt x="538" y="665" on="1"/>
        <pt x="538" y="495" on="1"/>
        <pt x="436" y="488" on="1"/>
        <pt x="436" y="535" on="1"/>
        <pt x="436" y="552" on="0"/>
        <pt x="426" y="566" on="0"/>
        <pt x="407" y="566" on="1"/>
        <pt x="339" y="566" on="1"/>
        <pt x="339" y="88" on="1"/>
        <pt x="418" y="85" on="1"/>
        <pt x="418" y="0" on="1"/>
        <pt x="136" y="0" on="1"/>
        <pt x="136" y="81" on="1"/>
        <pt x="189" y="84" on="1"/>
        <pt x="218" y="87" on="0"/>
      </contour>
    </TTGlyph>
    <TTGlyph name="Tbar" xMin="15" yMin="0" xMax="538" yMax="665">
      <contour>
        <pt x="218" y="112" on="1"/>
        <pt x="218" y="272" on="1"/>
        <pt x="93" y="272" on="1"/>
        <pt x="93" y="362" on="1"/>
        <pt x="218" y="362" on="1"/>
        <pt x="218" y="559" on="1"/>
        <pt x="140" y="559" on="1"/>
        <pt x="117" y="559" on="0"/>
        <pt x="117" y="528" on="1"/>
        <pt x="117" y="488" on="1"/>
        <pt x="15" y="495" on="1"/>
        <pt x="15" y="665" on="1"/>
        <pt x="538" y="665" on="1"/>
        <pt x="538" y="495" on="1"/>
        <pt x="436" y="488" on="1"/>
        <pt x="436" y="528" on="1"/>
        <pt x="436" y="545" on="0"/>
        <pt x="426" y="559" on="0"/>
        <pt x="407" y="559" on="1"/>
        <pt x="339" y="559" on="1"/>
        <pt x="339" y="362" on="1"/>
        <pt x="463" y="362" on="1"/>
        <pt x="463" y="272" on="1"/>
        <pt x="339" y="272" on="1"/>
        <pt x="339" y="88" on="1"/>
        <pt x="418" y="85" on="1"/>
        <pt x="418" y="0" on="1"/>
        <pt x="136" y="0" on="1"/>
        <pt x="136" y="81" on="1"/>
        <pt x="189" y="84" on="1"/>
        <pt x="218" y="87" on="0"/>
      </contour>
    </TTGlyph>
    <TTGlyph name="Tcaron" xMin="15" yMin="0" xMax="538" yMax="893">
      <contour>
        <pt x="218" y="112" on="1"/>
        <pt x="218" y="566" on="1"/>
        <pt x="140" y="566" on="1"/>
        <pt x="117" y="566" on="0"/>
        <pt x="117" y="535" on="1"/>
        <pt x="117" y="488" on="1"/>
        <pt x="15" y="495" on="1"/>
        <pt x="15" y="665" on="1"/>
        <pt x="538" y="665" on="1"/>
        <pt x="538" y="495" on="1"/>
        <pt x="436" y="488" on="1"/>
        <pt x="436" y="535" on="1"/>
        <pt x="436" y="552" on="0"/>
        <pt x="426" y="566" on="0"/>
        <pt x="407" y="566" on="1"/>
        <pt x="339" y="566" on="1"/>
        <pt x="339" y="88" on="1"/>
        <pt x="418" y="85" on="1"/>
        <pt x="418" y="0" on="1"/>
        <pt x="136" y="0" on="1"/>
        <pt x="136" y="81" on="1"/>
        <pt x="189" y="84" on="1"/>
        <pt x="218" y="87" on="0"/>
      </contour>
      <contour>
        <pt x="399" y="893" on="1"/>
        <pt x="440" y="859" on="1"/>
        <pt x="322" y="731" on="1"/>
        <pt x="301" y="708" on="0"/>
        <pt x="280" y="708" on="1"/>
        <pt x="240" y="729" on="1"/>
        <pt x="120" y="858" on="1"/>
        <pt x="161" y="893" on="1"/>
        <pt x="281" y="807" on="1"/>
      </contour>
    </TTGlyph>
    <TTGlyph name="Thorn" xMin="32" yMin="0" xMax="560" yMax="665">
      <contour>
        <pt x="216" y="227" on="1"/>
        <pt x="288" y="227" on="1"/>
        <pt x="434" y="227" on="0"/>
        <pt x="434" y="336" on="1"/>
        <pt x="434" y="402" on="0"/>
        <pt x="359" y="445" on="0"/>
        <pt x="277" y="445" on="1"/>
        <pt x="216" y="445" on="1"/>
      </contour>
      <contour>
        <pt x="216" y="559" on="1"/>
        <pt x="216" y="542" on="1"/>
        <pt x="323" y="542" on="1"/>
        <pt x="435" y="542" on="0"/>
        <pt x="560" y="442" on="0"/>
        <pt x="560" y="242" on="0"/>
        <pt x="418" y="130" on="0"/>
        <pt x="301" y="130" on="1"/>
        <pt x="216" y="130" on="1"/>
        <pt x="216" y="84" on="1"/>
        <pt x="312" y="81" on="1"/>
        <pt x="312" y="0" on="1"/>
        <pt x="32" y="0" on="1"/>
        <pt x="32" y="78" on="1"/>
        <pt x="65" y="81" on="1"/>
        <pt x="94" y="84" on="0"/>
        <pt x="94" y="109" on="1"/>
        <pt x="94" y="579" on="1"/>
        <pt x="32" y="583" on="1"/>
        <pt x="32" y="665" on="1"/>
        <pt x="309" y="665" on="1"/>
        <pt x="309" y="590" on="1"/>
        <pt x="245" y="587" on="1"/>
        <pt x="216" y="585" on="0"/>
      </contour>
    </TTGlyph>
    <TTGlyph name="U" xMin="22" yMin="-13" xMax="641" yMax="665">
      <contour>
        <pt x="201" y="548" on="1"/>
        <pt x="201" y="216" on="1"/>
        <pt x="201" y="146" on="0"/>
        <pt x="268" y="89" on="0"/>
        <pt x="393" y="89" on="0"/>
        <pt x="462" y="151" on="0"/>
        <pt x="462" y="211" on="1"/>
        <pt x="462" y="577" on="1"/>
        <pt x="404" y="580" on="1"/>
        <pt x="404" y="665" on="1"/>
        <pt x="641" y="665" on="1"/>
        <pt x="641" y="584" on="1"/>
        <pt x="608" y="581" on="1"/>
        <pt x="579" y="578" on="0"/>
        <pt x="579" y="551" on="1"/>
        <pt x="579" y="194" on="1"/>
        <pt x="579" y="97" on="0"/>
        <pt x="443" y="-13" on="0"/>
        <pt x="203" y="-13" on="0"/>
        <pt x="80" y="94" on="0"/>
        <pt x="80" y="210" on="1"/>
        <pt x="80" y="577" on="1"/>
        <pt x="22" y="580" on="1"/>
        <pt x="22" y="665" on="1"/>
        <pt x="264" y="665" on="1"/>
        <pt x="264" y="584" on="1"/>
        <pt x="231" y="581" on="1"/>
        <pt x="215" y="579" on="0"/>
        <pt x="201" y="566" on="0"/>
      </contour>
    </TTGlyph>
    <TTGlyph name="Uacute" xMin="22" yMin="-13" xMax="641" yMax="907">
      <contour>
        <pt x="201" y="548" on="1"/>
        <pt x="201" y="216" on="1"/>
        <pt x="201" y="146" on="0"/>
        <pt x="268" y="89" on="0"/>
        <pt x="393" y="89" on="0"/>
        <pt x="462" y="151" on="0"/>
        <pt x="462" y="211" on="1"/>
        <pt x="462" y="577" on="1"/>
        <pt x="404" y="580" on="1"/>
        <pt x="404" y="665" on="1"/>
        <pt x="641" y="665" on="1"/>
        <pt x="641" y="584" on="1"/>
        <pt x="608" y="581" on="1"/>
        <pt x="579" y="578" on="0"/>
        <pt x="579" y="551" on="1"/>
        <pt x="579" y="194" on="1"/>
        <pt x="579" y="97" on="0"/>
        <pt x="443" y="-13" on="0"/>
        <pt x="203" y="-13" on="0"/>
        <pt x="80" y="94" on="0"/>
        <pt x="80" y="210" on="1"/>
        <pt x="80" y="577" on="1"/>
        <pt x="22" y="580" on="1"/>
        <pt x="22" y="665" on="1"/>
        <pt x="264" y="665" on="1"/>
        <pt x="264" y="584" on="1"/>
        <pt x="231" y="581" on="1"/>
        <pt x="215" y="579" on="0"/>
        <pt x="201" y="566" on="0"/>
      </contour>
      <contour>
        <pt x="243" y="750" on="1"/>
        <pt x="405" y="907" on="1"/>
        <pt x="445" y="874" on="1"/>
        <pt x="463" y="857" on="0"/>
        <pt x="463" y="841" on="1"/>
        <pt x="463" y="816" on="0"/>
        <pt x="428" y="796" on="1"/>
        <pt x="273" y="709" on="1"/>
      </contour>
    </TTGlyph>
    <TTGlyph name="Ubreve" xMin="22" yMin="-13" xMax="641" yMax="874">
      <contour>
        <pt x="201" y="548" on="1"/>
        <pt x="201" y="216" on="1"/>
        <pt x="201" y="146" on="0"/>
        <pt x="268" y="89" on="0"/>
        <pt x="393" y="89" on="0"/>
        <pt x="462" y="151" on="0"/>
        <pt x="462" y="211" on="1"/>
        <pt x="462" y="577" on="1"/>
        <pt x="404" y="580" on="1"/>
        <pt x="404" y="665" on="1"/>
        <pt x="641" y="665" on="1"/>
        <pt x="641" y="584" on="1"/>
        <pt x="608" y="581" on="1"/>
        <pt x="579" y="578" on="0"/>
        <pt x="579" y="551" on="1"/>
        <pt x="579" y="194" on="1"/>
        <pt x="579" y="97" on="0"/>
        <pt x="443" y="-13" on="0"/>
        <pt x="203" y="-13" on="0"/>
        <pt x="80" y="94" on="0"/>
        <pt x="80" y="210" on="1"/>
        <pt x="80" y="577" on="1"/>
        <pt x="22" y="580" on="1"/>
        <pt x="22" y="665" on="1"/>
        <pt x="264" y="665" on="1"/>
        <pt x="264" y="584" on="1"/>
        <pt x="231" y="581" on="1"/>
        <pt x="215" y="579" on="0"/>
        <pt x="201" y="566" on="0"/>
      </contour>
      <contour>
        <pt x="434" y="874" on="1"/>
        <pt x="500" y="847" on="1"/>
        <pt x="458" y="720" on="0"/>
        <pt x="203" y="720" on="0"/>
        <pt x="168" y="846" on="1"/>
        <pt x="235" y="874" on="1"/>
        <pt x="266" y="796" on="0"/>
        <pt x="335" y="796" on="1"/>
        <pt x="372" y="796" on="0"/>
        <pt x="417" y="833" on="0"/>
      </contour>
    </TTGlyph>
    <TTGlyph name="Ucircumflex" xMin="22" yMin="-13" xMax="641" yMax="893">
      <contour>
        <pt x="201" y="548" on="1"/>
        <pt x="201" y="216" on="1"/>
        <pt x="201" y="146" on="0"/>
        <pt x="268" y="89" on="0"/>
        <pt x="393" y="89" on="0"/>
        <pt x="462" y="151" on="0"/>
        <pt x="462" y="211" on="1"/>
        <pt x="462" y="577" on="1"/>
        <pt x="404" y="580" on="1"/>
        <pt x="404" y="665" on="1"/>
        <pt x="641" y="665" on="1"/>
        <pt x="641" y="584" on="1"/>
        <pt x="608" y="581" on="1"/>
        <pt x="579" y="578" on="0"/>
        <pt x="579" y="551" on="1"/>
        <pt x="579" y="194" on="1"/>
        <pt x="579" y="97" on="0"/>
        <pt x="443" y="-13" on="0"/>
        <pt x="203" y="-13" on="0"/>
        <pt x="80" y="94" on="0"/>
        <pt x="80" y="210" on="1"/>
        <pt x="80" y="577" on="1"/>
        <pt x="22" y="580" on="1"/>
        <pt x="22" y="665" on="1"/>
        <pt x="264" y="665" on="1"/>
        <pt x="264" y="584" on="1"/>
        <pt x="231" y="581" on="1"/>
        <pt x="215" y="579" on="0"/>
        <pt x="201" y="566" on="0"/>
      </contour>
      <contour>
        <pt x="209" y="708" on="1"/>
        <pt x="168" y="742" on="1"/>
        <pt x="286" y="870" on="1"/>
        <pt x="307" y="893" on="0"/>
        <pt x="328" y="893" on="1"/>
        <pt x="368" y="872" on="1"/>
        <pt x="488" y="743" on="1"/>
        <pt x="447" y="708" on="1"/>
        <pt x="327" y="794" on="1"/>
      </contour>
    </TTGlyph>
    <TTGlyph name="Udieresis" xMin="22" yMin="-13" xMax="641" yMax="854">
      <contour>
        <pt x="201" y="548" on="1"/>
        <pt x="201" y="216" on="1"/>
        <pt x="201" y="146" on="0"/>
        <pt x="268" y="89" on="0"/>
        <pt x="393" y="89" on="0"/>
        <pt x="462" y="151" on="0"/>
        <pt x="462" y="211" on="1"/>
        <pt x="462" y="577" on="1"/>
        <pt x="404" y="580" on="1"/>
        <pt x="404" y="665" on="1"/>
        <pt x="641" y="665" on="1"/>
        <pt x="641" y="584" on="1"/>
        <pt x="608" y="581" on="1"/>
        <pt x="579" y="578" on="0"/>
        <pt x="579" y="551" on="1"/>
        <pt x="579" y="194" on="1"/>
        <pt x="579" y="97" on="0"/>
        <pt x="443" y="-13" on="0"/>
        <pt x="203" y="-13" on="0"/>
        <pt x="80" y="94" on="0"/>
        <pt x="80" y="210" on="1"/>
        <pt x="80" y="577" on="1"/>
        <pt x="22" y="580" on="1"/>
        <pt x="22" y="665" on="1"/>
        <pt x="264" y="665" on="1"/>
        <pt x="264" y="584" on="1"/>
        <pt x="231" y="581" on="1"/>
        <pt x="215" y="579" on="0"/>
        <pt x="201" y="566" on="0"/>
      </contour>
      <contour>
        <pt x="407" y="721" on="0"/>
        <pt x="369" y="758" on="0"/>
        <pt x="369" y="815" on="0"/>
        <pt x="408" y="854" on="0"/>
        <pt x="468" y="854" on="0"/>
        <pt x="507" y="815" on="0"/>
        <pt x="507" y="758" on="0"/>
        <pt x="468" y="721" on="0"/>
      </contour>
      <contour>
        <pt x="207" y="721" on="0"/>
        <pt x="169" y="758" on="0"/>
        <pt x="169" y="815" on="0"/>
        <pt x="208" y="854" on="0"/>
        <pt x="268" y="854" on="0"/>
        <pt x="307" y="815" on="0"/>
        <pt x="307" y="758" on="0"/>
        <pt x="268" y="721" on="0"/>
      </contour>
    </TTGlyph>
    <TTGlyph name="Ugrave" xMin="22" yMin="-13" xMax="641" yMax="907">
      <contour>
        <pt x="201" y="548" on="1"/>
        <pt x="201" y="216" on="1"/>
        <pt x="201" y="146" on="0"/>
        <pt x="268" y="89" on="0"/>
        <pt x="393" y="89" on="0"/>
        <pt x="462" y="151" on="0"/>
        <pt x="462" y="211" on="1"/>
        <pt x="462" y="577" on="1"/>
        <pt x="404" y="580" on="1"/>
        <pt x="404" y="665" on="1"/>
        <pt x="641" y="665" on="1"/>
        <pt x="641" y="584" on="1"/>
        <pt x="608" y="581" on="1"/>
        <pt x="579" y="578" on="0"/>
        <pt x="579" y="551" on="1"/>
        <pt x="579" y="194" on="1"/>
        <pt x="579" y="97" on="0"/>
        <pt x="443" y="-13" on="0"/>
        <pt x="203" y="-13" on="0"/>
        <pt x="80" y="94" on="0"/>
        <pt x="80" y="210" on="1"/>
        <pt x="80" y="577" on="1"/>
        <pt x="22" y="580" on="1"/>
        <pt x="22" y="665" on="1"/>
        <pt x="264" y="665" on="1"/>
        <pt x="264" y="584" on="1"/>
        <pt x="231" y="581" on="1"/>
        <pt x="215" y="579" on="0"/>
        <pt x="201" y="566" on="0"/>
      </contour>
      <contour>
        <pt x="257" y="907" on="1"/>
        <pt x="419" y="750" on="1"/>
        <pt x="389" y="709" on="1"/>
        <pt x="234" y="796" on="1"/>
        <pt x="198" y="816" on="0"/>
        <pt x="198" y="856" on="0"/>
        <pt x="217" y="874" on="1"/>
      </contour>
    </TTGlyph>
    <TTGlyph name="Uhungarumlaut" xMin="22" yMin="-13" xMax="641" yMax="897">
      <contour>
        <pt x="201" y="548" on="1"/>
        <pt x="201" y="216" on="1"/>
        <pt x="201" y="146" on="0"/>
        <pt x="268" y="89" on="0"/>
        <pt x="393" y="89" on="0"/>
        <pt x="462" y="151" on="0"/>
        <pt x="462" y="211" on="1"/>
        <pt x="462" y="577" on="1"/>
        <pt x="404" y="580" on="1"/>
        <pt x="404" y="665" on="1"/>
        <pt x="641" y="665" on="1"/>
        <pt x="641" y="584" on="1"/>
        <pt x="608" y="581" on="1"/>
        <pt x="579" y="578" on="0"/>
        <pt x="579" y="551" on="1"/>
        <pt x="579" y="194" on="1"/>
        <pt x="579" y="97" on="0"/>
        <pt x="443" y="-13" on="0"/>
        <pt x="203" y="-13" on="0"/>
        <pt x="80" y="94" on="0"/>
        <pt x="80" y="210" on="1"/>
        <pt x="80" y="577" on="1"/>
        <pt x="22" y="580" on="1"/>
        <pt x="22" y="665" on="1"/>
        <pt x="264" y="665" on="1"/>
        <pt x="264" y="584" on="1"/>
        <pt x="231" y="581" on="1"/>
        <pt x="215" y="579" on="0"/>
        <pt x="201" y="566" on="0"/>
      </contour>
      <contour>
        <pt x="169" y="744" on="1"/>
        <pt x="334" y="897" on="1"/>
        <pt x="374" y="863" on="1"/>
        <pt x="391" y="846" on="0"/>
        <pt x="391" y="836" on="1"/>
        <pt x="391" y="806" on="0"/>
        <pt x="355" y="785" on="1"/>
        <pt x="198" y="702" on="1"/>
      </contour>
      <contour>
        <pt x="377" y="744" on="1"/>
        <pt x="542" y="897" on="1"/>
        <pt x="582" y="863" on="1"/>
        <pt x="599" y="846" on="0"/>
        <pt x="599" y="836" on="1"/>
        <pt x="599" y="806" on="0"/>
        <pt x="563" y="785" on="1"/>
        <pt x="406" y="702" on="1"/>
      </contour>
    </TTGlyph>
    <TTGlyph name="Umacron" xMin="22" yMin="-13" xMax="641" yMax="821">
      <contour>
        <pt x="201" y="548" on="1"/>
        <pt x="201" y="216" on="1"/>
        <pt x="201" y="146" on="0"/>
        <pt x="268" y="89" on="0"/>
        <pt x="393" y="89" on="0"/>
        <pt x="462" y="151" on="0"/>
        <pt x="462" y="211" on="1"/>
        <pt x="462" y="577" on="1"/>
        <pt x="404" y="580" on="1"/>
        <pt x="404" y="665" on="1"/>
        <pt x="641" y="665" on="1"/>
        <pt x="641" y="584" on="1"/>
        <pt x="608" y="581" on="1"/>
        <pt x="579" y="578" on="0"/>
        <pt x="579" y="551" on="1"/>
        <pt x="579" y="194" on="1"/>
        <pt x="579" y="97" on="0"/>
        <pt x="443" y="-13" on="0"/>
        <pt x="203" y="-13" on="0"/>
        <pt x="80" y="94" on="0"/>
        <pt x="80" y="210" on="1"/>
        <pt x="80" y="577" on="1"/>
        <pt x="22" y="580" on="1"/>
        <pt x="22" y="665" on="1"/>
        <pt x="264" y="665" on="1"/>
        <pt x="264" y="584" on="1"/>
        <pt x="231" y="581" on="1"/>
        <pt x="215" y="579" on="0"/>
        <pt x="201" y="566" on="0"/>
      </contour>
      <contour>
        <pt x="188" y="734" on="1"/>
        <pt x="188" y="821" on="1"/>
        <pt x="475" y="821" on="1"/>
        <pt x="475" y="734" on="1"/>
      </contour>
    </TTGlyph>
    <TTGlyph name="Uogonek" xMin="22" yMin="-214" xMax="641" yMax="665">
      <contour>
        <pt x="201" y="548" on="1"/>
        <pt x="201" y="216" on="1"/>
        <pt x="201" y="146" on="0"/>
        <pt x="268" y="89" on="0"/>
        <pt x="393" y="89" on="0"/>
        <pt x="462" y="151" on="0"/>
        <pt x="462" y="211" on="1"/>
        <pt x="462" y="577" on="1"/>
        <pt x="404" y="580" on="1"/>
        <pt x="404" y="665" on="1"/>
        <pt x="641" y="665" on="1"/>
        <pt x="641" y="584" on="1"/>
        <pt x="608" y="581" on="1"/>
        <pt x="579" y="578" on="0"/>
        <pt x="579" y="551" on="1"/>
        <pt x="579" y="194" on="1"/>
        <pt x="579" y="75" on="0"/>
        <pt x="482" y="22" on="1"/>
        <pt x="374" y="-37" on="0"/>
        <pt x="374" y="-97" on="1"/>
        <pt x="374" y="-135" on="0"/>
        <pt x="415" y="-135" on="1"/>
        <pt x="437" y="-135" on="0"/>
        <pt x="462" y="-124" on="1"/>
        <pt x="484" y="-190" on="1"/>
        <pt x="434" y="-214" on="0"/>
        <pt x="325" y="-214" on="0"/>
        <pt x="274" y="-159" on="0"/>
        <pt x="274" y="-118" on="1"/>
        <pt x="274" y="-56" on="0"/>
        <pt x="341" y="-13" on="1"/>
        <pt x="328" y="-13" on="1"/>
        <pt x="203" y="-13" on="0"/>
        <pt x="80" y="94" on="0"/>
        <pt x="80" y="210" on="1"/>
        <pt x="80" y="577" on="1"/>
        <pt x="22" y="580" on="1"/>
        <pt x="22" y="665" on="1"/>
        <pt x="264" y="665" on="1"/>
        <pt x="264" y="584" on="1"/>
        <pt x="231" y="581" on="1"/>
        <pt x="215" y="579" on="0"/>
        <pt x="201" y="566" on="0"/>
      </contour>
    </TTGlyph>
    <TTGlyph name="Uring" xMin="22" yMin="-13" xMax="641" yMax="886">
      <contour>
        <pt x="201" y="548" on="1"/>
        <pt x="201" y="216" on="1"/>
        <pt x="201" y="146" on="0"/>
        <pt x="268" y="89" on="0"/>
        <pt x="393" y="89" on="0"/>
        <pt x="462" y="151" on="0"/>
        <pt x="462" y="211" on="1"/>
        <pt x="462" y="577" on="1"/>
        <pt x="404" y="580" on="1"/>
        <pt x="404" y="665" on="1"/>
        <pt x="641" y="665" on="1"/>
        <pt x="641" y="584" on="1"/>
        <pt x="608" y="581" on="1"/>
        <pt x="579" y="578" on="0"/>
        <pt x="579" y="551" on="1"/>
        <pt x="579" y="194" on="1"/>
        <pt x="579" y="97" on="0"/>
        <pt x="443" y="-13" on="0"/>
        <pt x="203" y="-13" on="0"/>
        <pt x="80" y="94" on="0"/>
        <pt x="80" y="210" on="1"/>
        <pt x="80" y="577" on="1"/>
        <pt x="22" y="580" on="1"/>
        <pt x="22" y="665" on="1"/>
        <pt x="264" y="665" on="1"/>
        <pt x="264" y="584" on="1"/>
        <pt x="231" y="581" on="1"/>
        <pt x="215" y="579" on="0"/>
        <pt x="201" y="566" on="0"/>
      </contour>
      <contour>
        <pt x="289" y="700" on="0"/>
        <pt x="240" y="753" on="0"/>
        <pt x="240" y="834" on="0"/>
        <pt x="293" y="886" on="0"/>
        <pt x="378" y="886" on="0"/>
        <pt x="428" y="835" on="0"/>
        <pt x="428" y="755" on="0"/>
        <pt x="376" y="700" on="0"/>
      </contour>
      <contour>
        <pt x="371" y="834" on="0"/>
        <pt x="299" y="834" on="0"/>
        <pt x="299" y="751" on="0"/>
        <pt x="335" y="751" on="1"/>
        <pt x="352" y="751" on="0"/>
        <pt x="371" y="775" on="0"/>
        <pt x="371" y="793" on="1"/>
      </contour>
    </TTGlyph>
    <TTGlyph name="Utilde" xMin="22" yMin="-13" xMax="641" yMax="846">
      <contour>
        <pt x="201" y="548" on="1"/>
        <pt x="201" y="216" on="1"/>
        <pt x="201" y="146" on="0"/>
        <pt x="268" y="89" on="0"/>
        <pt x="393" y="89" on="0"/>
        <pt x="462" y="151" on="0"/>
        <pt x="462" y="211" on="1"/>
        <pt x="462" y="577" on="1"/>
        <pt x="404" y="580" on="1"/>
        <pt x="404" y="665" on="1"/>
        <pt x="641" y="665" on="1"/>
        <pt x="641" y="584" on="1"/>
        <pt x="608" y="581" on="1"/>
        <pt x="579" y="578" on="0"/>
        <pt x="579" y="551" on="1"/>
        <pt x="579" y="194" on="1"/>
        <pt x="579" y="97" on="0"/>
        <pt x="443" y="-13" on="0"/>
        <pt x="203" y="-13" on="0"/>
        <pt x="80" y="94" on="0"/>
        <pt x="80" y="210" on="1"/>
        <pt x="80" y="577" on="1"/>
        <pt x="22" y="580" on="1"/>
        <pt x="22" y="665" on="1"/>
        <pt x="264" y="665" on="1"/>
        <pt x="264" y="584" on="1"/>
        <pt x="231" y="581" on="1"/>
        <pt x="215" y="579" on="0"/>
        <pt x="201" y="566" on="0"/>
      </contour>
      <contour>
        <pt x="219" y="728" on="1"/>
        <pt x="171" y="763" on="1"/>
        <pt x="207" y="842" on="0"/>
        <pt x="273" y="842" on="1"/>
        <pt x="297" y="842" on="0"/>
        <pt x="389" y="814" on="0"/>
        <pt x="432" y="814" on="0"/>
        <pt x="451" y="846" on="1"/>
        <pt x="505" y="817" on="1"/>
        <pt x="472" y="730" on="0"/>
        <pt x="402" y="730" on="1"/>
        <pt x="380" y="730" on="0"/>
        <pt x="292" y="757" on="0"/>
        <pt x="257" y="757" on="0"/>
        <pt x="235" y="746" on="0"/>
      </contour>
    </TTGlyph>
    <TTGlyph name="V" xMin="5" yMin="0" xMax="649" yMax="665">
      <contour>
        <pt x="201" y="546" on="1"/>
        <pt x="335" y="143" on="1"/>
        <pt x="340" y="143" on="1"/>
        <pt x="480" y="576" on="1"/>
        <pt x="419" y="580" on="1"/>
        <pt x="419" y="665" on="1"/>
        <pt x="649" y="665" on="1"/>
        <pt x="649" y="584" on="1"/>
        <pt x="616" y="581" on="1"/>
        <pt x="603" y="580" on="0"/>
        <pt x="591" y="567" on="0"/>
        <pt x="585" y="551" on="1"/>
        <pt x="396" y="0" on="1"/>
        <pt x="266" y="0" on="1"/>
        <pt x="62" y="577" on="1"/>
        <pt x="5" y="580" on="1"/>
        <pt x="5" y="665" on="1"/>
        <pt x="263" y="665" on="1"/>
        <pt x="263" y="584" on="1"/>
        <pt x="230" y="581" on="1"/>
        <pt x="199" y="579" on="0"/>
        <pt x="199" y="557" on="1"/>
        <pt x="199" y="552" on="0"/>
      </contour>
    </TTGlyph>
    <TTGlyph name="W" xMin="5" yMin="0" xMax="880" yMax="665">
      <contour>
        <pt x="880" y="584" on="1"/>
        <pt x="847" y="581" on="1"/>
        <pt x="821" y="579" on="0"/>
        <pt x="814" y="545" on="1"/>
        <pt x="688" y="0" on="1"/>
        <pt x="551" y="0" on="1"/>
        <pt x="446" y="445" on="1"/>
        <pt x="443" y="445" on="1"/>
        <pt x="341" y="0" on="1"/>
        <pt x="200" y="0" on="1"/>
        <pt x="62" y="577" on="1"/>
        <pt x="5" y="580" on="1"/>
        <pt x="5" y="665" on="1"/>
        <pt x="253" y="665" on="1"/>
        <pt x="253" y="584" on="1"/>
        <pt x="220" y="581" on="1"/>
        <pt x="189" y="578" on="0"/>
        <pt x="189" y="555" on="1"/>
        <pt x="189" y="551" on="0"/>
        <pt x="190" y="546" on="1"/>
        <pt x="277" y="160" on="1"/>
        <pt x="281" y="160" on="1"/>
        <pt x="385" y="612" on="1"/>
        <pt x="514" y="612" on="1"/>
        <pt x="622" y="158" on="1"/>
        <pt x="624" y="158" on="1"/>
        <pt x="709" y="576" on="1"/>
        <pt x="655" y="580" on="1"/>
        <pt x="655" y="665" on="1"/>
        <pt x="880" y="665" on="1"/>
      </contour>
    </TTGlyph>
    <TTGlyph name="Wacute" xMin="5" yMin="0" xMax="880" yMax="907">
      <contour>
        <pt x="880" y="584" on="1"/>
        <pt x="847" y="581" on="1"/>
        <pt x="821" y="579" on="0"/>
        <pt x="814" y="545" on="1"/>
        <pt x="688" y="0" on="1"/>
        <pt x="551" y="0" on="1"/>
        <pt x="446" y="445" on="1"/>
        <pt x="443" y="445" on="1"/>
        <pt x="341" y="0" on="1"/>
        <pt x="200" y="0" on="1"/>
        <pt x="62" y="577" on="1"/>
        <pt x="5" y="580" on="1"/>
        <pt x="5" y="665" on="1"/>
        <pt x="253" y="665" on="1"/>
        <pt x="253" y="584" on="1"/>
        <pt x="220" y="581" on="1"/>
        <pt x="189" y="578" on="0"/>
        <pt x="189" y="555" on="1"/>
        <pt x="189" y="551" on="0"/>
        <pt x="190" y="546" on="1"/>
        <pt x="277" y="160" on="1"/>
        <pt x="281" y="160" on="1"/>
        <pt x="385" y="612" on="1"/>
        <pt x="514" y="612" on="1"/>
        <pt x="622" y="158" on="1"/>
        <pt x="624" y="158" on="1"/>
        <pt x="709" y="576" on="1"/>
        <pt x="655" y="580" on="1"/>
        <pt x="655" y="665" on="1"/>
        <pt x="880" y="665" on="1"/>
      </contour>
      <contour>
        <pt x="353" y="750" on="1"/>
        <pt x="515" y="907" on="1"/>
        <pt x="555" y="874" on="1"/>
        <pt x="573" y="857" on="0"/>
        <pt x="573" y="841" on="1"/>
        <pt x="573" y="816" on="0"/>
        <pt x="538" y="796" on="1"/>
        <pt x="383" y="709" on="1"/>
      </contour>
    </TTGlyph>
    <TTGlyph name="Wcircumflex" xMin="5" yMin="0" xMax="880" yMax="893">
      <contour>
        <pt x="880" y="584" on="1"/>
        <pt x="847" y="581" on="1"/>
        <pt x="821" y="579" on="0"/>
        <pt x="814" y="545" on="1"/>
        <pt x="688" y="0" on="1"/>
        <pt x="551" y="0" on="1"/>
        <pt x="446" y="445" on="1"/>
        <pt x="443" y="445" on="1"/>
        <pt x="341" y="0" on="1"/>
        <pt x="200" y="0" on="1"/>
        <pt x="62" y="577" on="1"/>
        <pt x="5" y="580" on="1"/>
        <pt x="5" y="665" on="1"/>
        <pt x="253" y="665" on="1"/>
        <pt x="253" y="584" on="1"/>
        <pt x="220" y="581" on="1"/>
        <pt x="189" y="578" on="0"/>
        <pt x="189" y="555" on="1"/>
        <pt x="189" y="551" on="0"/>
        <pt x="190" y="546" on="1"/>
        <pt x="277" y="160" on="1"/>
        <pt x="281" y="160" on="1"/>
        <pt x="385" y="612" on="1"/>
        <pt x="514" y="612" on="1"/>
        <pt x="622" y="158" on="1"/>
        <pt x="624" y="158" on="1"/>
        <pt x="709" y="576" on="1"/>
        <pt x="655" y="580" on="1"/>
        <pt x="655" y="665" on="1"/>
        <pt x="880" y="665" on="1"/>
      </contour>
      <contour>
        <pt x="326" y="708" on="1"/>
        <pt x="285" y="742" on="1"/>
        <pt x="403" y="870" on="1"/>
        <pt x="424" y="893" on="0"/>
        <pt x="445" y="893" on="1"/>
        <pt x="485" y="872" on="1"/>
        <pt x="605" y="743" on="1"/>
        <pt x="564" y="708" on="1"/>
        <pt x="444" y="794" on="1"/>
      </contour>
    </TTGlyph>
    <TTGlyph name="Wdieresis" xMin="5" yMin="0" xMax="880" yMax="854">
      <contour>
        <pt x="880" y="584" on="1"/>
        <pt x="847" y="581" on="1"/>
        <pt x="821" y="579" on="0"/>
        <pt x="814" y="545" on="1"/>
        <pt x="688" y="0" on="1"/>
        <pt x="551" y="0" on="1"/>
        <pt x="446" y="445" on="1"/>
        <pt x="443" y="445" on="1"/>
        <pt x="341" y="0" on="1"/>
        <pt x="200" y="0" on="1"/>
        <pt x="62" y="577" on="1"/>
        <pt x="5" y="580" on="1"/>
        <pt x="5" y="665" on="1"/>
        <pt x="253" y="665" on="1"/>
        <pt x="253" y="584" on="1"/>
        <pt x="220" y="581" on="1"/>
        <pt x="189" y="578" on="0"/>
        <pt x="189" y="555" on="1"/>
        <pt x="189" y="551" on="0"/>
        <pt x="190" y="546" on="1"/>
        <pt x="277" y="160" on="1"/>
        <pt x="281" y="160" on="1"/>
        <pt x="385" y="612" on="1"/>
        <pt x="514" y="612" on="1"/>
        <pt x="622" y="158" on="1"/>
        <pt x="624" y="158" on="1"/>
        <pt x="709" y="576" on="1"/>
        <pt x="655" y="580" on="1"/>
        <pt x="655" y="665" on="1"/>
        <pt x="880" y="665" on="1"/>
      </contour>
      <contour>
        <pt x="523" y="721" on="0"/>
        <pt x="485" y="758" on="0"/>
        <pt x="485" y="815" on="0"/>
        <pt x="524" y="854" on="0"/>
        <pt x="584" y="854" on="0"/>
        <pt x="623" y="815" on="0"/>
        <pt x="623" y="758" on="0"/>
        <pt x="584" y="721" on="0"/>
      </contour>
      <contour>
        <pt x="323" y="721" on="0"/>
        <pt x="285" y="758" on="0"/>
        <pt x="285" y="815" on="0"/>
        <pt x="324" y="854" on="0"/>
        <pt x="384" y="854" on="0"/>
        <pt x="423" y="815" on="0"/>
        <pt x="423" y="758" on="0"/>
        <pt x="384" y="721" on="0"/>
      </contour>
    </TTGlyph>
    <TTGlyph name="Wgrave" xMin="5" yMin="0" xMax="880" yMax="907">
      <contour>
        <pt x="880" y="584" on="1"/>
        <pt x="847" y="581" on="1"/>
        <pt x="821" y="579" on="0"/>
        <pt x="814" y="545" on="1"/>
        <pt x="688" y="0" on="1"/>
        <pt x="551" y="0" on="1"/>
        <pt x="446" y="445" on="1"/>
        <pt x="443" y="445" on="1"/>
        <pt x="341" y="0" on="1"/>
        <pt x="200" y="0" on="1"/>
        <pt x="62" y="577" on="1"/>
        <pt x="5" y="580" on="1"/>
        <pt x="5" y="665" on="1"/>
        <pt x="253" y="665" on="1"/>
        <pt x="253" y="584" on="1"/>
        <pt x="220" y="581" on="1"/>
        <pt x="189" y="578" on="0"/>
        <pt x="189" y="555" on="1"/>
        <pt x="189" y="551" on="0"/>
        <pt x="190" y="546" on="1"/>
        <pt x="277" y="160" on="1"/>
        <pt x="281" y="160" on="1"/>
        <pt x="385" y="612" on="1"/>
        <pt x="514" y="612" on="1"/>
        <pt x="622" y="158" on="1"/>
        <pt x="624" y="158" on="1"/>
        <pt x="709" y="576" on="1"/>
        <pt x="655" y="580" on="1"/>
        <pt x="655" y="665" on="1"/>
        <pt x="880" y="665" on="1"/>
      </contour>
      <contour>
        <pt x="379" y="907" on="1"/>
        <pt x="541" y="750" on="1"/>
        <pt x="511" y="709" on="1"/>
        <pt x="356" y="796" on="1"/>
        <pt x="320" y="816" on="0"/>
        <pt x="320" y="856" on="0"/>
        <pt x="339" y="874" on="1"/>
      </contour>
    </TTGlyph>
    <TTGlyph name="X" xMin="5" yMin="0" xMax="616" yMax="665">
      <contour>
        <pt x="521" y="549" on="1"/>
        <pt x="378" y="356" on="1"/>
        <pt x="553" y="92" on="1"/>
        <pt x="616" y="88" on="1"/>
        <pt x="616" y="0" on="1"/>
        <pt x="338" y="0" on="1"/>
        <pt x="338" y="82" on="1"/>
        <pt x="368" y="85" on="1"/>
        <pt x="387" y="87" on="0"/>
        <pt x="401" y="110" on="0"/>
        <pt x="392" y="123" on="1"/>
        <pt x="302" y="262" on="1"/>
        <pt x="187" y="88" on="1"/>
        <pt x="235" y="85" on="1"/>
        <pt x="235" y="0" on="1"/>
        <pt x="5" y="0" on="1"/>
        <pt x="5" y="81" on="1"/>
        <pt x="36" y="84" on="1"/>
        <pt x="55" y="87" on="0"/>
        <pt x="74" y="116" on="1"/>
        <pt x="236" y="348" on="1"/>
        <pt x="84" y="572" on="1"/>
        <pt x="29" y="577" on="1"/>
        <pt x="29" y="665" on="1"/>
        <pt x="294" y="665" on="1"/>
        <pt x="294" y="583" on="1"/>
        <pt x="269" y="580" on="1"/>
        <pt x="248" y="578" on="0"/>
        <pt x="237" y="554" on="0"/>
        <pt x="247" y="539" on="1"/>
        <pt x="314" y="434" on="1"/>
        <pt x="411" y="577" on="1"/>
        <pt x="361" y="580" on="1"/>
        <pt x="361" y="665" on="1"/>
        <pt x="590" y="665" on="1"/>
        <pt x="590" y="584" on="1"/>
        <pt x="559" y="581" on="1"/>
        <pt x="540" y="578" on="0"/>
      </contour>
    </TTGlyph>
    <TTGlyph name="Y" xMin="5" yMin="0" xMax="565" yMax="665">
      <contour>
        <pt x="222" y="112" on="1"/>
        <pt x="222" y="254" on="1"/>
        <pt x="52" y="577" on="1"/>
        <pt x="5" y="580" on="1"/>
        <pt x="5" y="665" on="1"/>
        <pt x="249" y="665" on="1"/>
        <pt x="249" y="584" on="1"/>
        <pt x="219" y="581" on="1"/>
        <pt x="203" y="580" on="0"/>
        <pt x="194" y="558" on="0"/>
        <pt x="202" y="542" on="1"/>
        <pt x="287" y="368" on="1"/>
        <pt x="291" y="368" on="1"/>
        <pt x="400" y="576" on="1"/>
        <pt x="350" y="580" on="1"/>
        <pt x="350" y="665" on="1"/>
        <pt x="565" y="665" on="1"/>
        <pt x="565" y="584" on="1"/>
        <pt x="535" y="581" on="1"/>
        <pt x="516" y="579" on="0"/>
        <pt x="501" y="551" on="1"/>
        <pt x="344" y="254" on="1"/>
        <pt x="344" y="88" on="1"/>
        <pt x="422" y="85" on="1"/>
        <pt x="422" y="0" on="1"/>
        <pt x="140" y="0" on="1"/>
        <pt x="140" y="81" on="1"/>
        <pt x="193" y="84" on="1"/>
        <pt x="222" y="86" on="0"/>
      </contour>
    </TTGlyph>
    <TTGlyph name="Yacute" xMin="5" yMin="0" xMax="565" yMax="907">
      <contour>
        <pt x="222" y="112" on="1"/>
        <pt x="222" y="254" on="1"/>
        <pt x="52" y="577" on="1"/>
        <pt x="5" y="580" on="1"/>
        <pt x="5" y="665" on="1"/>
        <pt x="249" y="665" on="1"/>
        <pt x="249" y="584" on="1"/>
        <pt x="219" y="581" on="1"/>
        <pt x="203" y="580" on="0"/>
        <pt x="194" y="558" on="0"/>
        <pt x="202" y="542" on="1"/>
        <pt x="287" y="368" on="1"/>
        <pt x="291" y="368" on="1"/>
        <pt x="400" y="576" on="1"/>
        <pt x="350" y="580" on="1"/>
        <pt x="350" y="665" on="1"/>
        <pt x="565" y="665" on="1"/>
        <pt x="565" y="584" on="1"/>
        <pt x="535" y="581" on="1"/>
        <pt x="516" y="579" on="0"/>
        <pt x="501" y="551" on="1"/>
        <pt x="344" y="254" on="1"/>
        <pt x="344" y="88" on="1"/>
        <pt x="422" y="85" on="1"/>
        <pt x="422" y="0" on="1"/>
        <pt x="140" y="0" on="1"/>
        <pt x="140" y="81" on="1"/>
        <pt x="193" y="84" on="1"/>
        <pt x="222" y="86" on="0"/>
      </contour>
      <contour>
        <pt x="191" y="750" on="1"/>
        <pt x="353" y="907" on="1"/>
        <pt x="393" y="874" on="1"/>
        <pt x="411" y="857" on="0"/>
        <pt x="411" y="841" on="1"/>
        <pt x="411" y="816" on="0"/>
        <pt x="376" y="796" on="1"/>
        <pt x="221" y="709" on="1"/>
      </contour>
    </TTGlyph>
    <TTGlyph name="Ycircumflex" xMin="5" yMin="0" xMax="565" yMax="893">
      <contour>
        <pt x="222" y="112" on="1"/>
        <pt x="222" y="254" on="1"/>
        <pt x="52" y="577" on="1"/>
        <pt x="5" y="580" on="1"/>
        <pt x="5" y="665" on="1"/>
        <pt x="249" y="665" on="1"/>
        <pt x="249" y="584" on="1"/>
        <pt x="219" y="581" on="1"/>
        <pt x="203" y="580" on="0"/>
        <pt x="194" y="558" on="0"/>
        <pt x="202" y="542" on="1"/>
        <pt x="287" y="368" on="1"/>
        <pt x="291" y="368" on="1"/>
        <pt x="400" y="576" on="1"/>
        <pt x="350" y="580" on="1"/>
        <pt x="350" y="665" on="1"/>
        <pt x="565" y="665" on="1"/>
        <pt x="565" y="584" on="1"/>
        <pt x="535" y="581" on="1"/>
        <pt x="516" y="579" on="0"/>
        <pt x="501" y="551" on="1"/>
        <pt x="344" y="254" on="1"/>
        <pt x="344" y="88" on="1"/>
        <pt x="422" y="85" on="1"/>
        <pt x="422" y="0" on="1"/>
        <pt x="140" y="0" on="1"/>
        <pt x="140" y="81" on="1"/>
        <pt x="193" y="84" on="1"/>
        <pt x="222" y="86" on="0"/>
      </contour>
      <contour>
        <pt x="166" y="708" on="1"/>
        <pt x="125" y="742" on="1"/>
        <pt x="243" y="870" on="1"/>
        <pt x="264" y="893" on="0"/>
        <pt x="285" y="893" on="1"/>
        <pt x="325" y="872" on="1"/>
        <pt x="445" y="743" on="1"/>
        <pt x="404" y="708" on="1"/>
        <pt x="284" y="794" on="1"/>
      </contour>
    </TTGlyph>
    <TTGlyph name="Ydieresis" xMin="5" yMin="0" xMax="565" yMax="854">
      <contour>
        <pt x="222" y="112" on="1"/>
        <pt x="222" y="254" on="1"/>
        <pt x="52" y="577" on="1"/>
        <pt x="5" y="580" on="1"/>
        <pt x="5" y="665" on="1"/>
        <pt x="249" y="665" on="1"/>
        <pt x="249" y="584" on="1"/>
        <pt x="219" y="581" on="1"/>
        <pt x="203" y="580" on="0"/>
        <pt x="194" y="558" on="0"/>
        <pt x="202" y="542" on="1"/>
        <pt x="287" y="368" on="1"/>
        <pt x="291" y="368" on="1"/>
        <pt x="400" y="576" on="1"/>
        <pt x="350" y="580" on="1"/>
        <pt x="350" y="665" on="1"/>
        <pt x="565" y="665" on="1"/>
        <pt x="565" y="584" on="1"/>
        <pt x="535" y="581" on="1"/>
        <pt x="516" y="579" on="0"/>
        <pt x="501" y="551" on="1"/>
        <pt x="344" y="254" on="1"/>
        <pt x="344" y="88" on="1"/>
        <pt x="422" y="85" on="1"/>
        <pt x="422" y="0" on="1"/>
        <pt x="140" y="0" on="1"/>
        <pt x="140" y="81" on="1"/>
        <pt x="193" y="84" on="1"/>
        <pt x="222" y="86" on="0"/>
      </contour>
      <contour>
        <pt x="366" y="721" on="0"/>
        <pt x="328" y="758" on="0"/>
        <pt x="328" y="815" on="0"/>
        <pt x="367" y="854" on="0"/>
        <pt x="427" y="854" on="0"/>
        <pt x="466" y="815" on="0"/>
        <pt x="466" y="758" on="0"/>
        <pt x="427" y="721" on="0"/>
      </contour>
      <contour>
        <pt x="166" y="721" on="0"/>
        <pt x="128" y="758" on="0"/>
        <pt x="128" y="815" on="0"/>
        <pt x="167" y="854" on="0"/>
        <pt x="227" y="854" on="0"/>
        <pt x="266" y="815" on="0"/>
        <pt x="266" y="758" on="0"/>
        <pt x="227" y="721" on="0"/>
      </contour>
    </TTGlyph>
    <TTGlyph name="Ygrave" xMin="5" yMin="0" xMax="565" yMax="907">
      <contour>
        <pt x="222" y="112" on="1"/>
        <pt x="222" y="254" on="1"/>
        <pt x="52" y="577" on="1"/>
        <pt x="5" y="580" on="1"/>
        <pt x="5" y="665" on="1"/>
        <pt x="249" y="665" on="1"/>
        <pt x="249" y="584" on="1"/>
        <pt x="219" y="581" on="1"/>
        <pt x="203" y="580" on="0"/>
        <pt x="194" y="558" on="0"/>
        <pt x="202" y="542" on="1"/>
        <pt x="287" y="368" on="1"/>
        <pt x="291" y="368" on="1"/>
        <pt x="400" y="576" on="1"/>
        <pt x="350" y="580" on="1"/>
        <pt x="350" y="665" on="1"/>
        <pt x="565" y="665" on="1"/>
        <pt x="565" y="584" on="1"/>
        <pt x="535" y="581" on="1"/>
        <pt x="516" y="579" on="0"/>
        <pt x="501" y="551" on="1"/>
        <pt x="344" y="254" on="1"/>
        <pt x="344" y="88" on="1"/>
        <pt x="422" y="85" on="1"/>
        <pt x="422" y="0" on="1"/>
        <pt x="140" y="0" on="1"/>
        <pt x="140" y="81" on="1"/>
        <pt x="193" y="84" on="1"/>
        <pt x="222" y="86" on="0"/>
      </contour>
      <contour>
        <pt x="209" y="907" on="1"/>
        <pt x="371" y="750" on="1"/>
        <pt x="341" y="709" on="1"/>
        <pt x="186" y="796" on="1"/>
        <pt x="150" y="816" on="0"/>
        <pt x="150" y="856" on="0"/>
        <pt x="169" y="874" on="1"/>
      </contour>
    </TTGlyph>
    <TTGlyph name="Z" xMin="33" yMin="0" xMax="493" yMax="665">
      <contour>
        <pt x="477" y="584" on="1"/>
        <pt x="172" y="95" on="1"/>
        <pt x="366" y="95" on="1"/>
        <pt x="391" y="95" on="0"/>
        <pt x="391" y="127" on="1"/>
        <pt x="391" y="197" on="1"/>
        <pt x="493" y="190" on="1"/>
        <pt x="493" y="0" on="1"/>
        <pt x="33" y="0" on="1"/>
        <pt x="33" y="83" on="1"/>
        <pt x="335" y="570" on="1"/>
        <pt x="169" y="570" on="1"/>
        <pt x="142" y="570" on="0"/>
        <pt x="142" y="539" on="1"/>
        <pt x="142" y="499" on="1"/>
        <pt x="40" y="506" on="1"/>
        <pt x="40" y="665" on="1"/>
        <pt x="477" y="665" on="1"/>
      </contour>
    </TTGlyph>
    <TTGlyph name="Zacute" xMin="33" yMin="0" xMax="493" yMax="907">
      <contour>
        <pt x="477" y="584" on="1"/>
        <pt x="172" y="95" on="1"/>
        <pt x="366" y="95" on="1"/>
        <pt x="391" y="95" on="0"/>
        <pt x="391" y="127" on="1"/>
        <pt x="391" y="197" on="1"/>
        <pt x="493" y="190" on="1"/>
        <pt x="493" y="0" on="1"/>
        <pt x="33" y="0" on="1"/>
        <pt x="33" y="83" on="1"/>
        <pt x="335" y="570" on="1"/>
        <pt x="169" y="570" on="1"/>
        <pt x="142" y="570" on="0"/>
        <pt x="142" y="539" on="1"/>
        <pt x="142" y="499" on="1"/>
        <pt x="40" y="506" on="1"/>
        <pt x="40" y="665" on="1"/>
        <pt x="477" y="665" on="1"/>
      </contour>
      <contour>
        <pt x="178" y="750" on="1"/>
        <pt x="340" y="907" on="1"/>
        <pt x="380" y="874" on="1"/>
        <pt x="398" y="857" on="0"/>
        <pt x="398" y="841" on="1"/>
        <pt x="398" y="816" on="0"/>
        <pt x="363" y="796" on="1"/>
        <pt x="208" y="709" on="1"/>
      </contour>
    </TTGlyph>
    <TTGlyph name="Zcaron" xMin="33" yMin="0" xMax="493" yMax="893">
      <contour>
        <pt x="477" y="584" on="1"/>
        <pt x="172" y="95" on="1"/>
        <pt x="366" y="95" on="1"/>
        <pt x="391" y="95" on="0"/>
        <pt x="391" y="127" on="1"/>
        <pt x="391" y="197" on="1"/>
        <pt x="493" y="190" on="1"/>
        <pt x="493" y="0" on="1"/>
        <pt x="33" y="0" on="1"/>
        <pt x="33" y="83" on="1"/>
        <pt x="335" y="570" on="1"/>
        <pt x="169" y="570" on="1"/>
        <pt x="142" y="570" on="0"/>
        <pt x="142" y="539" on="1"/>
        <pt x="142" y="499" on="1"/>
        <pt x="40" y="506" on="1"/>
        <pt x="40" y="665" on="1"/>
        <pt x="477" y="665" on="1"/>
      </contour>
      <contour>
        <pt x="384" y="893" on="1"/>
        <pt x="425" y="859" on="1"/>
        <pt x="307" y="731" on="1"/>
        <pt x="286" y="708" on="0"/>
        <pt x="265" y="708" on="1"/>
        <pt x="225" y="729" on="1"/>
        <pt x="105" y="858" on="1"/>
        <pt x="146" y="893" on="1"/>
        <pt x="266" y="807" on="1"/>
      </contour>
    </TTGlyph>
    <TTGlyph name="Zdotaccent" xMin="33" yMin="0" xMax="493" yMax="860">
      <contour>
        <pt x="477" y="584" on="1"/>
        <pt x="172" y="95" on="1"/>
        <pt x="366" y="95" on="1"/>
        <pt x="391" y="95" on="0"/>
        <pt x="391" y="127" on="1"/>
        <pt x="391" y="197" on="1"/>
        <pt x="493" y="190" on="1"/>
        <pt x="493" y="0" on="1"/>
        <pt x="33" y="0" on="1"/>
        <pt x="33" y="83" on="1"/>
        <pt x="335" y="570" on="1"/>
        <pt x="169" y="570" on="1"/>
        <pt x="142" y="570" on="0"/>
        <pt x="142" y="539" on="1"/>
        <pt x="142" y="499" on="1"/>
        <pt x="40" y="506" on="1"/>
        <pt x="40" y="665" on="1"/>
        <pt x="477" y="665" on="1"/>
      </contour>
      <contour>
        <pt x="227" y="727" on="0"/>
        <pt x="189" y="764" on="0"/>
        <pt x="189" y="821" on="0"/>
        <pt x="228" y="860" on="0"/>
        <pt x="288" y="860" on="0"/>
        <pt x="327" y="821" on="0"/>
        <pt x="327" y="764" on="0"/>
        <pt x="288" y="727" on="0"/>
      </contour>
    </TTGlyph>
    <TTGlyph name="a" xMin="40" yMin="-13" xMax="539" yMax="518">
      <contour>
        <pt x="482" y="483" on="1"/>
        <pt x="482" y="111" on="1"/>
        <pt x="482" y="95" on="0"/>
        <pt x="493" y="83" on="0"/>
        <pt x="507" y="82" on="1"/>
        <pt x="539" y="80" on="1"/>
        <pt x="539" y="0" on="1"/>
        <pt x="380" y="0" on="1"/>
        <pt x="380" y="58" on="1"/>
        <pt x="377" y="59" on="1"/>
        <pt x="327" y="-13" on="0"/>
        <pt x="240" y="-13" on="1"/>
        <pt x="138" y="-13" on="0"/>
        <pt x="40" y="117" on="0"/>
        <pt x="40" y="230" on="1"/>
        <pt x="40" y="366" on="0"/>
        <pt x="172" y="518" on="0"/>
        <pt x="304" y="518" on="1"/>
        <pt x="389" y="518" on="0"/>
      </contour>
      <contour>
        <pt x="366" y="159" on="1"/>
        <pt x="366" y="418" on="1"/>
        <pt x="338" y="431" on="0"/>
        <pt x="289" y="431" on="1"/>
        <pt x="222" y="431" on="0"/>
        <pt x="162" y="323" on="0"/>
        <pt x="162" y="234" on="1"/>
        <pt x="162" y="72" on="0"/>
        <pt x="266" y="72" on="1"/>
        <pt x="310" y="72" on="0"/>
        <pt x="366" y="125" on="0"/>
      </contour>
    </TTGlyph>
    <TTGlyph name="aacute" xMin="40" yMin="-13" xMax="539" yMax="786">
      <contour>
        <pt x="482" y="483" on="1"/>
        <pt x="482" y="111" on="1"/>
        <pt x="482" y="95" on="0"/>
        <pt x="493" y="83" on="0"/>
        <pt x="507" y="82" on="1"/>
        <pt x="539" y="80" on="1"/>
        <pt x="539" y="0" on="1"/>
        <pt x="380" y="0" on="1"/>
        <pt x="380" y="58" on="1"/>
        <pt x="377" y="59" on="1"/>
        <pt x="327" y="-13" on="0"/>
        <pt x="240" y="-13" on="1"/>
        <pt x="138" y="-13" on="0"/>
        <pt x="40" y="117" on="0"/>
        <pt x="40" y="230" on="1"/>
        <pt x="40" y="366" on="0"/>
        <pt x="172" y="518" on="0"/>
        <pt x="304" y="518" on="1"/>
        <pt x="389" y="518" on="0"/>
      </contour>
      <contour>
        <pt x="366" y="159" on="1"/>
        <pt x="366" y="418" on="1"/>
        <pt x="338" y="431" on="0"/>
        <pt x="289" y="431" on="1"/>
        <pt x="222" y="431" on="0"/>
        <pt x="162" y="323" on="0"/>
        <pt x="162" y="234" on="1"/>
        <pt x="162" y="72" on="0"/>
        <pt x="266" y="72" on="1"/>
        <pt x="310" y="72" on="0"/>
        <pt x="366" y="125" on="0"/>
      </contour>
      <contour>
        <pt x="214" y="594" on="1"/>
        <pt x="330" y="786" on="1"/>
        <pt x="377" y="764" on="1"/>
        <pt x="406" y="748" on="0"/>
        <pt x="406" y="708" on="0"/>
        <pt x="381" y="685" on="1"/>
        <pt x="253" y="561" on="1"/>
      </contour>
    </TTGlyph>
    <TTGlyph name="abreve" xMin="40" yMin="-13" xMax="539" yMax="722">
      <component glyphName="a" x="0" y="0" flags="0x1004"/>
      <component glyphName="breve" x="37" y="0" flags="0x1004"/>
    </TTGlyph>
    <TTGlyph name="acircumflex" xMin="40" yMin="-13" xMax="539" yMax="771">
      <component glyphName="a" x="0" y="0" flags="0x1004"/>
      <component glyphName="circumflex" x="43" y="0" flags="0x1004"/>
    </TTGlyph>
    <TTGlyph name="acute" xMin="148" yMin="561" xMax="340" yMax="786">
      <contour>
        <pt x="148" y="594" on="1"/>
        <pt x="264" y="786" on="1"/>
        <pt x="311" y="764" on="1"/>
        <pt x="340" y="748" on="0"/>
        <pt x="340" y="708" on="0"/>
        <pt x="315" y="685" on="1"/>
        <pt x="187" y="561" on="1"/>
      </contour>
    </TTGlyph>
    <TTGlyph name="acute.cap" xMin="149" yMin="709" xMax="369" yMax="907">
      <contour>
        <pt x="149" y="750" on="1"/>
        <pt x="311" y="907" on="1"/>
        <pt x="351" y="874" on="1"/>
        <pt x="369" y="857" on="0"/>
        <pt x="369" y="841" on="1"/>
        <pt x="369" y="816" on="0"/>
        <pt x="334" y="796" on="1"/>
        <pt x="179" y="709" on="1"/>
      </contour>
    </TTGlyph>
    <TTGlyph name="adieresis" xMin="40" yMin="-13" xMax="539" yMax="714">
      <component glyphName="a" x="0" y="0" flags="0x1004"/>
      <component glyphName="dieresis" x="38" y="0" flags="0x1004"/>
    </TTGlyph>
    <TTGlyph name="ae" xMin="40" yMin="-13" xMax="730" yMax="518">
      <contour>
        <pt x="442" y="484" on="1"/>
        <pt x="495" y="518" on="0"/>
        <pt x="641" y="518" on="0"/>
        <pt x="728" y="445" on="0"/>
        <pt x="728" y="379" on="1"/>
        <pt x="728" y="200" on="0"/>
        <pt x="443" y="198" on="1"/>
        <pt x="446" y="143" on="0"/>
        <pt x="508" y="79" on="0"/>
        <pt x="626" y="79" on="0"/>
        <pt x="692" y="124" on="1"/>
        <pt x="730" y="43" on="1"/>
        <pt x="707" y="24" on="0"/>
        <pt x="613" y="-13" on="0"/>
        <pt x="550" y="-13" on="1"/>
        <pt x="446" y="-13" on="0"/>
        <pt x="392" y="41" on="1"/>
        <pt x="326" y="-13" on="0"/>
        <pt x="244" y="-13" on="1"/>
        <pt x="136" y="-13" on="0"/>
        <pt x="40" y="122" on="0"/>
        <pt x="40" y="366" on="0"/>
        <pt x="174" y="518" on="0"/>
        <pt x="299" y="518" on="1"/>
        <pt x="372" y="518" on="0"/>
      </contour>
      <contour>
        <pt x="287" y="431" on="1"/>
        <pt x="224" y="431" on="0"/>
        <pt x="162" y="325" on="0"/>
        <pt x="162" y="158" on="0"/>
        <pt x="211" y="72" on="0"/>
        <pt x="269" y="72" on="1"/>
        <pt x="312" y="72" on="0"/>
        <pt x="344" y="104" on="1"/>
        <pt x="318" y="159" on="0"/>
        <pt x="318" y="341" on="0"/>
        <pt x="369" y="416" on="1"/>
        <pt x="332" y="431" on="0"/>
      </contour>
      <contour>
        <pt x="618" y="348" on="0"/>
        <pt x="618" y="402" on="0"/>
        <pt x="586" y="433" on="0"/>
        <pt x="559" y="433" on="1"/>
        <pt x="503" y="433" on="0"/>
        <pt x="442" y="343" on="0"/>
        <pt x="439" y="281" on="1"/>
        <pt x="493" y="281" on="0"/>
        <pt x="578" y="308" on="0"/>
      </contour>
    </TTGlyph>
    <TTGlyph name="aeacute" xMin="40" yMin="-13" xMax="730" yMax="786">
      <component glyphName="ae" x="0" y="0" flags="0x1004"/>
      <component glyphName="acute" x="185" y="0" flags="0x1004"/>
    </TTGlyph>
    <TTGlyph name="agrave" xMin="40" yMin="-13" xMax="539" yMax="786">
      <component glyphName="a" x="0" y="0" flags="0x1004"/>
      <component glyphName="grave" x="19" y="0" flags="0x1004"/>
    </TTGlyph>
    <TTGlyph name="amacron" xMin="40" yMin="-13" xMax="539" yMax="694">
      <component glyphName="a" x="0" y="0" flags="0x1004"/>
      <component glyphName="macron" x="45" y="0" flags="0x1004"/>
    </TTGlyph>
    <TTGlyph name="ampersand" xMin="50" yMin="-34" xMax="684" yMax="677">
      <contour>
        <pt x="475" y="220" on="1"/>
        <pt x="494" y="268" on="0"/>
        <pt x="494" y="312" on="1"/>
        <pt x="494" y="326" on="0"/>
        <pt x="476" y="328" on="1"/>
        <pt x="444" y="330" on="1"/>
        <pt x="444" y="408" on="1"/>
        <pt x="655" y="408" on="1"/>
        <pt x="655" y="327" on="1"/>
        <pt x="600" y="325" on="1"/>
        <pt x="600" y="229" on="0"/>
        <pt x="558" y="149" on="1"/>
        <pt x="603" y="111" on="0"/>
        <pt x="684" y="53" on="1"/>
        <pt x="618" y="-34" on="1"/>
        <pt x="558" y="6" on="0"/>
        <pt x="492" y="60" on="1"/>
        <pt x="418" y="-14" on="0"/>
        <pt x="166" y="-14" on="0"/>
        <pt x="50" y="104" on="0"/>
        <pt x="50" y="189" on="1"/>
        <pt x="50" y="321" on="0"/>
        <pt x="172" y="397" on="1"/>
        <pt x="141" y="448" on="0"/>
        <pt x="141" y="507" on="1"/>
        <pt x="141" y="583" on="0"/>
        <pt x="243" y="677" on="0"/>
        <pt x="428" y="677" on="0"/>
        <pt x="516" y="636" on="1"/>
        <pt x="516" y="485" on="1"/>
        <pt x="414" y="478" on="1"/>
        <pt x="414" y="539" on="1"/>
        <pt x="414" y="567" on="0"/>
        <pt x="393" y="574" on="1"/>
        <pt x="366" y="582" on="0"/>
        <pt x="340" y="582" on="1"/>
        <pt x="259" y="582" on="0"/>
        <pt x="259" y="505" on="1"/>
        <pt x="259" y="403" on="0"/>
      </contour>
      <contour>
        <pt x="408" y="130" on="1"/>
        <pt x="288" y="232" on="0"/>
        <pt x="227" y="314" on="1"/>
        <pt x="166" y="271" on="0"/>
        <pt x="166" y="197" on="1"/>
        <pt x="166" y="146" on="0"/>
        <pt x="229" y="83" on="0"/>
        <pt x="366" y="83" on="0"/>
      </contour>
    </TTGlyph>
    <TTGlyph name="aogonek" xMin="40" yMin="-214" xMax="540" yMax="518">
      <contour>
        <pt x="482" y="483" on="1"/>
        <pt x="482" y="111" on="1"/>
        <pt x="482" y="95" on="0"/>
        <pt x="493" y="83" on="0"/>
        <pt x="507" y="82" on="1"/>
        <pt x="539" y="80" on="1"/>
        <pt x="539" y="0" on="1"/>
        <pt x="430" y="-42" on="0"/>
        <pt x="430" y="-95" on="1"/>
        <pt x="430" y="-135" on="0"/>
        <pt x="471" y="-135" on="1"/>
        <pt x="493" y="-135" on="0"/>
        <pt x="518" y="-124" on="1"/>
        <pt x="540" y="-190" on="1"/>
        <pt x="490" y="-214" on="0"/>
        <pt x="381" y="-214" on="0"/>
        <pt x="330" y="-159" on="0"/>
        <pt x="330" y="-118" on="1"/>
        <pt x="330" y="-43" on="0"/>
        <pt x="425" y="-7" on="1"/>
        <pt x="425" y="0" on="1"/>
        <pt x="380" y="0" on="1"/>
        <pt x="380" y="58" on="1"/>
        <pt x="377" y="59" on="1"/>
        <pt x="327" y="-13" on="0"/>
        <pt x="240" y="-13" on="1"/>
        <pt x="138" y="-13" on="0"/>
        <pt x="40" y="117" on="0"/>
        <pt x="40" y="230" on="1"/>
        <pt x="40" y="366" on="0"/>
        <pt x="172" y="518" on="0"/>
        <pt x="304" y="518" on="1"/>
        <pt x="389" y="518" on="0"/>
      </contour>
      <contour>
        <pt x="366" y="159" on="1"/>
        <pt x="366" y="418" on="1"/>
        <pt x="338" y="431" on="0"/>
        <pt x="289" y="431" on="1"/>
        <pt x="222" y="431" on="0"/>
        <pt x="162" y="323" on="0"/>
        <pt x="162" y="234" on="1"/>
        <pt x="162" y="72" on="0"/>
        <pt x="266" y="72" on="1"/>
        <pt x="310" y="72" on="0"/>
        <pt x="366" y="125" on="0"/>
      </contour>
    </TTGlyph>
    <TTGlyph name="apostrophe" xMin="81" yMin="488" xMax="203" yMax="713">
      <contour>
        <pt x="81" y="503" on="1"/>
        <pt x="115" y="713" on="1"/>
        <pt x="163" y="711" on="1"/>
        <pt x="193" y="710" on="0"/>
        <pt x="200" y="689" on="1"/>
        <pt x="203" y="682" on="0"/>
        <pt x="203" y="659" on="0"/>
        <pt x="194" y="643" on="1"/>
        <pt x="125" y="488" on="1"/>
      </contour>
    </TTGlyph>
</ttFont>
